STARTFONT 2.1
COMMENT
COMMENT Converted from OpenType font "notosans.ttf" by "otf2bdf 3.0".
COMMENT
FONT -FreeType-Noto Sans-Medium-R-Normal--14-100-100-100-P-71-ISO10646-1
SIZE 10 100 100
FONTBOUNDINGBOX 48 24 -9 -5
STARTPROPERTIES 19
FOUNDRY "FreeType"
FAMILY_NAME "Noto Sans"
WEIGHT_NAME "Medium"
SLANT "R"
SETWIDTH_NAME "Normal"
ADD_STYLE_NAME ""
PIXEL_SIZE 14
POINT_SIZE 100
RESOLUTION_X 100
RESOLUTION_Y 100
SPACING "P"
AVERAGE_WIDTH 71
CHARSET_REGISTRY "ISO10646"
CHARSET_ENCODING "1"
FONT_ASCENT 14
FONT_DESCENT 4
COPYRIGHT "Copyright 2015-2021 Google LLC. All Rights Reserved."
_OTF_FONTFILE "notosans.ttf"
_OTF_PSNAME "NotoSans-Regular"
ENDPROPERTIES
CHARS 3053
STARTCHAR 0000
ENCODING 0
SWIDTH 0 0
DWIDTH 0 0
BBX 0 0 0 0
BITMAP
ENDCHAR
STARTCHAR 000D
ENCODING 13
SWIDTH 216 0
DWIDTH 3 0
BBX 0 0 0 0
BITMAP
ENDCHAR
STARTCHAR 0020
ENCODING 32
SWIDTH 216 0
DWIDTH 3 0
BBX 0 0 0 0
BITMAP
ENDCHAR
STARTCHAR 0021
ENCODING 33
SWIDTH 216 0
DWIDTH 3 0
BBX 2 10 1 0
BITMAP
C0
C0
80
80
80
80
80
00
80
C0
ENDCHAR
STARTCHAR 0022
ENCODING 34
SWIDTH 360 0
DWIDTH 5 0
BBX 4 4 1 6
BITMAP
B0
90
90
80
ENDCHAR
STARTCHAR 0023
ENCODING 35
SWIDTH 576 0
DWIDTH 8 0
BBX 9 10 0 0
BITMAP
1200
1200
1200
7F80
1200
2400
FF00
2400
2400
2400
ENDCHAR
STARTCHAR 0024
ENCODING 36
SWIDTH 504 0
DWIDTH 7 0
BBX 6 10 1 0
BITMAP
20
FC
A0
A0
E0
1C
24
24
F8
20
ENDCHAR
STARTCHAR 0025
ENCODING 37
SWIDTH 792 0
DWIDTH 11 0
BBX 10 10 1 0
BITMAP
E100
9200
9200
9400
9780
EA40
1A40
1240
2240
2380
ENDCHAR
STARTCHAR 0026
ENCODING 38
SWIDTH 720 0
DWIDTH 10 0
BBX 9 10 1 0
BITMAP
7800
4C00
4C00
4800
3000
5900
8D00
8700
8700
7980
ENDCHAR
STARTCHAR 0027
ENCODING 39
SWIDTH 216 0
DWIDTH 3 0
BBX 1 4 1 6
BITMAP
80
80
80
80
ENDCHAR
STARTCHAR 0028
ENCODING 40
SWIDTH 288 0
DWIDTH 4 0
BBX 2 12 1 -2
BITMAP
40
40
80
80
80
80
80
80
80
80
C0
40
ENDCHAR
STARTCHAR 0029
ENCODING 41
SWIDTH 288 0
DWIDTH 4 0
BBX 3 12 1 -2
BITMAP
80
C0
40
40
40
60
60
60
40
40
C0
80
ENDCHAR
STARTCHAR 002A
ENCODING 42
SWIDTH 504 0
DWIDTH 7 0
BBX 6 7 1 4
BITMAP
20
20
24
FC
30
58
40
ENDCHAR
STARTCHAR 002B
ENCODING 43
SWIDTH 504 0
DWIDTH 7 0
BBX 6 6 1 2
BITMAP
20
20
20
FC
20
20
ENDCHAR
STARTCHAR 002C
ENCODING 44
SWIDTH 216 0
DWIDTH 3 0
BBX 2 4 1 -2
BITMAP
C0
80
80
80
ENDCHAR
STARTCHAR 002D
ENCODING 45
SWIDTH 288 0
DWIDTH 4 0
BBX 3 1 1 3
BITMAP
E0
ENDCHAR
STARTCHAR 002E
ENCODING 46
SWIDTH 216 0
DWIDTH 3 0
BBX 2 2 1 0
BITMAP
80
C0
ENDCHAR
STARTCHAR 002F
ENCODING 47
SWIDTH 360 0
DWIDTH 5 0
BBX 5 10 0 0
BITMAP
08
18
10
10
20
20
60
40
40
C0
ENDCHAR
STARTCHAR 0030
ENCODING 48
SWIDTH 504 0
DWIDTH 7 0
BBX 6 10 1 0
BITMAP
78
CC
84
84
84
84
84
84
CC
78
ENDCHAR
STARTCHAR 0031
ENCODING 49
SWIDTH 504 0
DWIDTH 7 0
BBX 4 10 1 0
BITMAP
30
70
90
10
10
10
10
10
10
10
ENDCHAR
STARTCHAR 0032
ENCODING 50
SWIDTH 504 0
DWIDTH 7 0
BBX 6 10 1 0
BITMAP
78
8C
04
0C
08
18
30
60
C0
FC
ENDCHAR
STARTCHAR 0033
ENCODING 51
SWIDTH 504 0
DWIDTH 7 0
BBX 6 10 1 0
BITMAP
F8
8C
04
0C
78
18
04
04
0C
F8
ENDCHAR
STARTCHAR 0034
ENCODING 52
SWIDTH 504 0
DWIDTH 7 0
BBX 8 10 0 0
BITMAP
04
0C
14
14
24
44
C4
FF
04
04
ENDCHAR
STARTCHAR 0035
ENCODING 53
SWIDTH 504 0
DWIDTH 7 0
BBX 6 10 1 0
BITMAP
F8
C0
80
80
F8
0C
04
04
0C
F8
ENDCHAR
STARTCHAR 0036
ENCODING 54
SWIDTH 504 0
DWIDTH 7 0
BBX 6 10 1 0
BITMAP
3C
40
C0
80
F8
84
84
84
C4
78
ENDCHAR
STARTCHAR 0037
ENCODING 55
SWIDTH 504 0
DWIDTH 7 0
BBX 6 10 1 0
BITMAP
FC
04
0C
08
18
10
10
20
20
40
ENDCHAR
STARTCHAR 0038
ENCODING 56
SWIDTH 504 0
DWIDTH 7 0
BBX 6 10 1 0
BITMAP
78
8C
84
CC
70
58
84
84
84
78
ENDCHAR
STARTCHAR 0039
ENCODING 57
SWIDTH 504 0
DWIDTH 7 0
BBX 6 10 1 0
BITMAP
78
8C
84
84
84
FC
04
04
08
F0
ENDCHAR
STARTCHAR 003A
ENCODING 58
SWIDTH 216 0
DWIDTH 3 0
BBX 2 8 1 0
BITMAP
80
C0
00
00
00
00
80
C0
ENDCHAR
STARTCHAR 003B
ENCODING 59
SWIDTH 216 0
DWIDTH 3 0
BBX 2 9 1 -2
BITMAP
80
C0
00
00
00
00
C0
80
80
ENDCHAR
STARTCHAR 003C
ENCODING 60
SWIDTH 504 0
DWIDTH 7 0
BBX 6 6 1 2
BITMAP
0C
30
C0
C0
30
0C
ENDCHAR
STARTCHAR 003D
ENCODING 61
SWIDTH 504 0
DWIDTH 7 0
BBX 6 4 1 3
BITMAP
FC
00
00
FC
ENDCHAR
STARTCHAR 003E
ENCODING 62
SWIDTH 504 0
DWIDTH 7 0
BBX 6 6 1 2
BITMAP
C0
30
0C
0C
30
C0
ENDCHAR
STARTCHAR 003F
ENCODING 63
SWIDTH 432 0
DWIDTH 6 0
BBX 6 10 0 0
BITMAP
F8
0C
0C
08
18
30
20
00
20
20
ENDCHAR
STARTCHAR 0040
ENCODING 64
SWIDTH 864 0
DWIDTH 12 0
BBX 11 11 1 -1
BITMAP
1F00
2080
4040
8F40
9120
9320
9340
9340
8C80
4000
3F00
ENDCHAR
STARTCHAR 0041
ENCODING 65
SWIDTH 576 0
DWIDTH 8 0
BBX 9 10 0 0
BITMAP
0800
1C00
1400
1400
2200
2200
7F00
4100
4100
8180
ENDCHAR
STARTCHAR 0042
ENCODING 66
SWIDTH 648 0
DWIDTH 9 0
BBX 7 10 1 0
BITMAP
FC
C6
C2
C6
FC
C6
C2
C2
C6
FC
ENDCHAR
STARTCHAR 0043
ENCODING 67
SWIDTH 576 0
DWIDTH 8 0
BBX 7 10 1 0
BITMAP
3E
60
C0
80
80
80
80
C0
60
3E
ENDCHAR
STARTCHAR 0044
ENCODING 68
SWIDTH 720 0
DWIDTH 10 0
BBX 8 10 1 0
BITMAP
FC
C6
C3
C1
C1
C1
C1
C3
C6
FC
ENDCHAR
STARTCHAR 0045
ENCODING 69
SWIDTH 504 0
DWIDTH 7 0
BBX 6 10 1 0
BITMAP
FC
C0
C0
C0
FC
C0
C0
C0
C0
FC
ENDCHAR
STARTCHAR 0046
ENCODING 70
SWIDTH 504 0
DWIDTH 7 0
BBX 6 10 1 0
BITMAP
FC
C0
C0
C0
C0
FC
C0
C0
C0
C0
ENDCHAR
STARTCHAR 0047
ENCODING 71
SWIDTH 720 0
DWIDTH 10 0
BBX 8 10 1 0
BITMAP
3F
61
C0
80
80
87
81
C1
61
3F
ENDCHAR
STARTCHAR 0048
ENCODING 72
SWIDTH 720 0
DWIDTH 10 0
BBX 8 10 1 0
BITMAP
C1
C1
C1
C1
FF
C1
C1
C1
C1
C1
ENDCHAR
STARTCHAR 0049
ENCODING 73
SWIDTH 288 0
DWIDTH 4 0
BBX 3 10 1 0
BITMAP
E0
40
40
40
40
40
40
40
40
E0
ENDCHAR
STARTCHAR 004A
ENCODING 74
SWIDTH 216 0
DWIDTH 3 0
BBX 4 13 -1 -3
BITMAP
30
30
30
30
30
30
30
30
30
30
20
60
C0
ENDCHAR
STARTCHAR 004B
ENCODING 75
SWIDTH 576 0
DWIDTH 8 0
BBX 7 10 1 0
BITMAP
C2
C4
C8
D0
F0
D0
C8
CC
C6
C2
ENDCHAR
STARTCHAR 004C
ENCODING 76
SWIDTH 504 0
DWIDTH 7 0
BBX 6 10 1 0
BITMAP
C0
C0
C0
C0
C0
C0
C0
C0
C0
FC
ENDCHAR
STARTCHAR 004D
ENCODING 77
SWIDTH 864 0
DWIDTH 12 0
BBX 10 10 1 0
BITMAP
C0C0
A0C0
A1C0
A140
D140
D240
DA40
CA40
CC40
C440
ENDCHAR
STARTCHAR 004E
ENCODING 78
SWIDTH 720 0
DWIDTH 10 0
BBX 8 10 1 0
BITMAP
C1
E1
A1
91
D9
C9
CD
C7
C3
C3
ENDCHAR
STARTCHAR 004F
ENCODING 79
SWIDTH 720 0
DWIDTH 10 0
BBX 9 10 1 0
BITMAP
3E00
6300
C180
8080
8080
8080
8080
C180
4300
3E00
ENDCHAR
STARTCHAR 0050
ENCODING 80
SWIDTH 576 0
DWIDTH 8 0
BBX 7 10 1 0
BITMAP
F8
C4
C6
C6
C4
F8
C0
C0
C0
C0
ENDCHAR
STARTCHAR 0051
ENCODING 81
SWIDTH 720 0
DWIDTH 10 0
BBX 9 12 1 -2
BITMAP
3E00
6300
C180
8080
8080
8080
8080
C180
4300
3E00
0600
0300
ENDCHAR
STARTCHAR 0052
ENCODING 82
SWIDTH 576 0
DWIDTH 8 0
BBX 7 10 1 0
BITMAP
F8
C4
C6
C6
C4
F8
C8
CC
C6
C2
ENDCHAR
STARTCHAR 0053
ENCODING 83
SWIDTH 504 0
DWIDTH 7 0
BBX 6 10 1 0
BITMAP
7C
80
80
80
60
18
0C
04
0C
F8
ENDCHAR
STARTCHAR 0054
ENCODING 84
SWIDTH 504 0
DWIDTH 7 0
BBX 8 10 0 0
BITMAP
FF
10
10
10
10
10
10
10
10
10
ENDCHAR
STARTCHAR 0055
ENCODING 85
SWIDTH 720 0
DWIDTH 10 0
BBX 8 10 1 0
BITMAP
C1
C1
C1
C1
C1
C1
C1
C1
42
3C
ENDCHAR
STARTCHAR 0056
ENCODING 86
SWIDTH 576 0
DWIDTH 8 0
BBX 8 10 0 0
BITMAP
81
41
42
62
26
24
34
1C
18
18
ENDCHAR
STARTCHAR 0057
ENCODING 87
SWIDTH 864 0
DWIDTH 12 0
BBX 13 10 0 0
BITMAP
C218
4610
4510
4510
6D30
29A0
28A0
28A0
30C0
1040
ENDCHAR
STARTCHAR 0058
ENCODING 88
SWIDTH 576 0
DWIDTH 8 0
BBX 8 10 0 0
BITMAP
43
62
24
3C
18
18
34
24
42
C3
ENDCHAR
STARTCHAR 0059
ENCODING 89
SWIDTH 504 0
DWIDTH 7 0
BBX 8 10 0 0
BITMAP
C3
42
66
24
38
18
18
18
18
18
ENDCHAR
STARTCHAR 005A
ENCODING 90
SWIDTH 504 0
DWIDTH 7 0
BBX 6 10 1 0
BITMAP
FC
04
08
18
10
20
60
40
80
FC
ENDCHAR
STARTCHAR 005B
ENCODING 91
SWIDTH 288 0
DWIDTH 4 0
BBX 3 12 1 -2
BITMAP
E0
80
80
80
80
80
80
80
80
80
80
E0
ENDCHAR
STARTCHAR 005C
ENCODING 92
SWIDTH 360 0
DWIDTH 5 0
BBX 5 10 0 0
BITMAP
80
40
40
60
20
20
10
10
10
08
ENDCHAR
STARTCHAR 005D
ENCODING 93
SWIDTH 288 0
DWIDTH 4 0
BBX 3 12 0 -2
BITMAP
E0
20
20
20
20
20
20
20
20
20
20
E0
ENDCHAR
STARTCHAR 005E
ENCODING 94
SWIDTH 504 0
DWIDTH 7 0
BBX 6 6 1 4
BITMAP
20
30
50
48
88
84
ENDCHAR
STARTCHAR 005F
ENCODING 95
SWIDTH 432 0
DWIDTH 6 0
BBX 6 1 0 -2
BITMAP
FC
ENDCHAR
STARTCHAR 0060
ENCODING 96
SWIDTH 216 0
DWIDTH 3 0
BBX 2 3 1 8
BITMAP
80
C0
40
ENDCHAR
STARTCHAR 0061
ENCODING 97
SWIDTH 504 0
DWIDTH 7 0
BBX 6 8 1 0
BITMAP
30
48
0C
0C
FC
8C
8C
F4
ENDCHAR
STARTCHAR 0062
ENCODING 98
SWIDTH 576 0
DWIDTH 8 0
BBX 7 11 1 0
BITMAP
80
80
80
90
EC
C6
86
82
C6
C4
BC
ENDCHAR
STARTCHAR 0063
ENCODING 99
SWIDTH 432 0
DWIDTH 6 0
BBX 5 8 1 0
BITMAP
30
78
80
80
80
80
C0
78
ENDCHAR
STARTCHAR 0064
ENCODING 100
SWIDTH 576 0
DWIDTH 8 0
BBX 6 11 1 0
BITMAP
04
04
04
34
4C
84
84
84
84
C4
7C
ENDCHAR
STARTCHAR 0065
ENCODING 101
SWIDTH 504 0
DWIDTH 7 0
BBX 6 8 1 0
BITMAP
30
48
84
84
FC
80
C0
7C
ENDCHAR
STARTCHAR 0066
ENCODING 102
SWIDTH 288 0
DWIDTH 4 0
BBX 5 11 0 0
BITMAP
18
20
20
20
F8
20
20
20
20
20
20
ENDCHAR
STARTCHAR 0067
ENCODING 103
SWIDTH 576 0
DWIDTH 8 0
BBX 6 11 1 -3
BITMAP
30
4C
84
84
84
84
C4
7C
04
04
FC
ENDCHAR
STARTCHAR 0068
ENCODING 104
SWIDTH 576 0
DWIDTH 8 0
BBX 6 11 1 0
BITMAP
80
80
80
98
EC
C4
84
84
84
84
84
ENDCHAR
STARTCHAR 0069
ENCODING 105
SWIDTH 216 0
DWIDTH 3 0
BBX 2 10 1 0
BITMAP
C0
00
00
80
80
80
80
80
80
80
ENDCHAR
STARTCHAR 006A
ENCODING 106
SWIDTH 216 0
DWIDTH 3 0
BBX 4 13 -1 -3
BITMAP
30
00
00
20
20
20
20
20
20
20
20
20
E0
ENDCHAR
STARTCHAR 006B
ENCODING 107
SWIDTH 504 0
DWIDTH 7 0
BBX 6 11 1 0
BITMAP
80
80
80
80
8C
90
A0
F0
90
88
8C
ENDCHAR
STARTCHAR 006C
ENCODING 108
SWIDTH 216 0
DWIDTH 3 0
BBX 1 11 1 0
BITMAP
80
80
80
80
80
80
80
80
80
80
80
ENDCHAR
STARTCHAR 006D
ENCODING 109
SWIDTH 864 0
DWIDTH 12 0
BBX 11 8 1 0
BITMAP
1080
EF60
C420
8420
8420
8420
8420
8420
ENDCHAR
STARTCHAR 006E
ENCODING 110
SWIDTH 576 0
DWIDTH 8 0
BBX 6 8 1 0
BITMAP
18
EC
C4
84
84
84
84
84
ENDCHAR
STARTCHAR 006F
ENCODING 111
SWIDTH 576 0
DWIDTH 8 0
BBX 7 8 1 0
BITMAP
30
6C
84
86
86
86
C4
78
ENDCHAR
STARTCHAR 0070
ENCODING 112
SWIDTH 576 0
DWIDTH 8 0
BBX 7 11 1 -3
BITMAP
10
EC
C6
86
82
C6
C4
BC
80
80
80
ENDCHAR
STARTCHAR 0071
ENCODING 113
SWIDTH 576 0
DWIDTH 8 0
BBX 6 11 1 -3
BITMAP
30
4C
84
84
84
84
C4
7C
04
04
04
ENDCHAR
STARTCHAR 0072
ENCODING 114
SWIDTH 360 0
DWIDTH 5 0
BBX 5 8 1 0
BITMAP
18
B0
C0
80
80
80
80
80
ENDCHAR
STARTCHAR 0073
ENCODING 115
SWIDTH 432 0
DWIDTH 6 0
BBX 5 8 1 0
BITMAP
30
D8
80
C0
30
08
08
F0
ENDCHAR
STARTCHAR 0074
ENCODING 116
SWIDTH 360 0
DWIDTH 5 0
BBX 5 9 0 0
BITMAP
20
60
F8
60
60
60
60
60
38
ENDCHAR
STARTCHAR 0075
ENCODING 117
SWIDTH 576 0
DWIDTH 8 0
BBX 6 7 1 0
BITMAP
84
84
84
84
84
C4
7C
ENDCHAR
STARTCHAR 0076
ENCODING 118
SWIDTH 504 0
DWIDTH 7 0
BBX 7 7 0 0
BITMAP
C6
44
44
6C
28
28
10
ENDCHAR
STARTCHAR 0077
ENCODING 119
SWIDTH 720 0
DWIDTH 10 0
BBX 11 7 0 0
BITMAP
C460
4A40
4A40
4AC0
3180
3180
3180
ENDCHAR
STARTCHAR 0078
ENCODING 120
SWIDTH 504 0
DWIDTH 7 0
BBX 6 7 1 0
BITMAP
88
58
70
30
50
C8
8C
ENDCHAR
STARTCHAR 0079
ENCODING 121
SWIDTH 504 0
DWIDTH 7 0
BBX 7 10 0 -3
BITMAP
C6
44
44
2C
28
28
10
10
30
E0
ENDCHAR
STARTCHAR 007A
ENCODING 122
SWIDTH 432 0
DWIDTH 6 0
BBX 5 7 1 0
BITMAP
F8
10
20
60
40
80
F8
ENDCHAR
STARTCHAR 007B
ENCODING 123
SWIDTH 360 0
DWIDTH 5 0
BBX 5 12 0 -2
BITMAP
18
30
20
20
20
60
E0
20
20
20
20
18
ENDCHAR
STARTCHAR 007C
ENCODING 124
SWIDTH 504 0
DWIDTH 7 0
BBX 1 14 3 -3
BITMAP
80
80
80
80
80
80
80
80
80
80
80
80
80
80
ENDCHAR
STARTCHAR 007D
ENCODING 125
SWIDTH 360 0
DWIDTH 5 0
BBX 5 12 0 -2
BITMAP
C0
20
20
20
20
30
18
20
20
20
20
E0
ENDCHAR
STARTCHAR 007E
ENCODING 126
SWIDTH 504 0
DWIDTH 7 0
BBX 6 2 1 4
BITMAP
E0
9C
ENDCHAR
STARTCHAR 00A0
ENCODING 160
SWIDTH 216 0
DWIDTH 3 0
BBX 0 0 0 0
BITMAP
ENDCHAR
STARTCHAR 00A1
ENCODING 161
SWIDTH 216 0
DWIDTH 3 0
BBX 2 11 1 -3
BITMAP
80
C0
00
80
80
80
80
80
80
C0
C0
ENDCHAR
STARTCHAR 00A2
ENCODING 162
SWIDTH 504 0
DWIDTH 7 0
BBX 6 10 1 0
BITMAP
10
3C
40
C0
C0
C0
C0
64
38
10
ENDCHAR
STARTCHAR 00A3
ENCODING 163
SWIDTH 504 0
DWIDTH 7 0
BBX 7 10 0 0
BITMAP
1E
20
20
20
20
FC
20
20
60
FE
ENDCHAR
STARTCHAR 00A4
ENCODING 164
SWIDTH 504 0
DWIDTH 7 0
BBX 6 6 1 2
BITMAP
B4
48
84
84
48
B4
ENDCHAR
STARTCHAR 00A5
ENCODING 165
SWIDTH 504 0
DWIDTH 7 0
BBX 7 10 0 0
BITMAP
C2
42
64
24
18
7E
18
7E
18
18
ENDCHAR
STARTCHAR 00A6
ENCODING 166
SWIDTH 504 0
DWIDTH 7 0
BBX 1 14 3 -3
BITMAP
80
80
80
80
80
80
00
00
00
80
80
80
80
80
ENDCHAR
STARTCHAR 00A7
ENCODING 167
SWIDTH 504 0
DWIDTH 7 0
BBX 5 11 1 0
BITMAP
30
C8
80
60
98
88
C8
30
08
08
F0
ENDCHAR
STARTCHAR 00A8
ENCODING 168
SWIDTH 576 0
DWIDTH 8 0
BBX 4 1 2 9
BITMAP
90
ENDCHAR
STARTCHAR 00A9
ENCODING 169
SWIDTH 792 0
DWIDTH 11 0
BBX 10 10 1 0
BITMAP
3E00
4180
9E80
9040
A040
A040
B040
9E80
4180
3E00
ENDCHAR
STARTCHAR 00AA
ENCODING 170
SWIDTH 288 0
DWIDTH 4 0
BBX 4 5 0 5
BITMAP
70
10
70
90
60
ENDCHAR
STARTCHAR 00AB
ENCODING 171
SWIDTH 504 0
DWIDTH 7 0
BBX 5 5 1 2
BITMAP
48
90
B0
D8
68
ENDCHAR
STARTCHAR 00AC
ENCODING 172
SWIDTH 504 0
DWIDTH 7 0
BBX 6 3 1 2
BITMAP
FC
04
04
ENDCHAR
STARTCHAR 00AD
ENCODING 173
SWIDTH 288 0
DWIDTH 4 0
BBX 3 1 1 3
BITMAP
E0
ENDCHAR
STARTCHAR 00AE
ENCODING 174
SWIDTH 792 0
DWIDTH 11 0
BBX 10 10 1 0
BITMAP
3E00
4180
9C80
9240
9240
9C40
9440
9280
4180
3E00
ENDCHAR
STARTCHAR 00AF
ENCODING 175
SWIDTH 432 0
DWIDTH 6 0
BBX 6 1 0 11
BITMAP
FC
ENDCHAR
STARTCHAR 00B0
ENCODING 176
SWIDTH 360 0
DWIDTH 5 0
BBX 4 4 1 6
BITMAP
F0
90
90
F0
ENDCHAR
STARTCHAR 00B1
ENCODING 177
SWIDTH 504 0
DWIDTH 7 0
BBX 6 8 1 0
BITMAP
20
20
20
FC
20
20
00
FC
ENDCHAR
STARTCHAR 00B2
ENCODING 178
SWIDTH 288 0
DWIDTH 4 0
BBX 4 6 0 6
BITMAP
70
10
10
20
40
F0
ENDCHAR
STARTCHAR 00B3
ENCODING 179
SWIDTH 288 0
DWIDTH 4 0
BBX 4 6 0 6
BITMAP
70
10
10
70
10
F0
ENDCHAR
STARTCHAR 00B4
ENCODING 180
SWIDTH 216 0
DWIDTH 3 0
BBX 2 2 1 8
BITMAP
40
C0
ENDCHAR
STARTCHAR 00B5
ENCODING 181
SWIDTH 576 0
DWIDTH 8 0
BBX 6 10 1 -3
BITMAP
84
84
84
84
84
C4
FC
80
80
80
ENDCHAR
STARTCHAR 00B6
ENCODING 182
SWIDTH 648 0
DWIDTH 9 0
BBX 7 13 1 -2
BITMAP
3E
F2
F2
F2
F2
F2
F2
12
12
12
12
12
02
ENDCHAR
STARTCHAR 00B7
ENCODING 183
SWIDTH 216 0
DWIDTH 3 0
BBX 2 2 1 4
BITMAP
C0
C0
ENDCHAR
STARTCHAR 00B8
ENCODING 184
SWIDTH 216 0
DWIDTH 3 0
BBX 2 3 1 -3
BITMAP
80
40
C0
ENDCHAR
STARTCHAR 00B9
ENCODING 185
SWIDTH 288 0
DWIDTH 4 0
BBX 2 6 1 6
BITMAP
40
C0
40
40
40
40
ENDCHAR
STARTCHAR 00BA
ENCODING 186
SWIDTH 360 0
DWIDTH 5 0
BBX 5 5 0 5
BITMAP
70
88
88
48
30
ENDCHAR
STARTCHAR 00BB
ENCODING 187
SWIDTH 504 0
DWIDTH 7 0
BBX 5 5 1 2
BITMAP
90
48
68
58
B0
ENDCHAR
STARTCHAR 00BC
ENCODING 188
SWIDTH 720 0
DWIDTH 10 0
BBX 9 10 1 0
BITMAP
4100
C200
4400
4400
4900
5B00
1300
2500
2780
4100
ENDCHAR
STARTCHAR 00BD
ENCODING 189
SWIDTH 720 0
DWIDTH 10 0
BBX 10 10 0 0
BITMAP
2100
E100
2200
2400
27C0
2840
1840
1080
2100
23C0
ENDCHAR
STARTCHAR 00BE
ENCODING 190
SWIDTH 720 0
DWIDTH 10 0
BBX 11 10 0 0
BITMAP
F080
1080
3100
1200
1240
F4C0
0D40
0A40
13E0
1040
ENDCHAR
STARTCHAR 00BF
ENCODING 191
SWIDTH 432 0
DWIDTH 6 0
BBX 6 11 0 -3
BITMAP
10
10
00
10
10
30
40
C0
C0
4C
38
ENDCHAR
STARTCHAR 00C0
ENCODING 192
SWIDTH 576 0
DWIDTH 8 0
BBX 9 13 0 0
BITMAP
1000
0800
0000
0800
1C00
1400
1400
2200
2200
7F00
4100
4100
8180
ENDCHAR
STARTCHAR 00C1
ENCODING 193
SWIDTH 576 0
DWIDTH 8 0
BBX 9 13 0 0
BITMAP
0400
0800
0000
0800
1C00
1400
1400
2200
2200
7F00
4100
4100
8180
ENDCHAR
STARTCHAR 00C2
ENCODING 194
SWIDTH 576 0
DWIDTH 8 0
BBX 9 13 0 0
BITMAP
1800
3400
0000
0800
1C00
1400
1400
2200
2200
7F00
4100
4100
8180
ENDCHAR
STARTCHAR 00C3
ENCODING 195
SWIDTH 576 0
DWIDTH 8 0
BBX 9 13 0 0
BITMAP
1200
2E00
0000
0800
1C00
1400
1400
2200
2200
7F00
4100
4100
8180
ENDCHAR
STARTCHAR 00C4
ENCODING 196
SWIDTH 576 0
DWIDTH 8 0
BBX 9 13 0 0
BITMAP
1400
1400
0000
0800
1C00
1400
1400
2200
2200
7F00
4100
4100
8180
ENDCHAR
STARTCHAR 00C5
ENCODING 197
SWIDTH 576 0
DWIDTH 8 0
BBX 9 12 0 0
BITMAP
1C00
1400
0800
1C00
1400
1400
2200
2200
7F00
4100
4100
8180
ENDCHAR
STARTCHAR 00C6
ENCODING 198
SWIDTH 864 0
DWIDTH 12 0
BBX 11 10 0 0
BITMAP
0FE0
0A00
0A00
1200
13E0
2200
3E00
4200
4200
C3E0
ENDCHAR
STARTCHAR 00C7
ENCODING 199
SWIDTH 576 0
DWIDTH 8 0
BBX 7 13 1 -3
BITMAP
3E
60
C0
80
80
80
80
C0
60
3E
10
08
18
ENDCHAR
STARTCHAR 00C8
ENCODING 200
SWIDTH 504 0
DWIDTH 7 0
BBX 6 13 1 0
BITMAP
20
10
00
FC
C0
C0
C0
FC
C0
C0
C0
C0
FC
ENDCHAR
STARTCHAR 00C9
ENCODING 201
SWIDTH 504 0
DWIDTH 7 0
BBX 6 13 1 0
BITMAP
18
10
00
FC
C0
C0
C0
FC
C0
C0
C0
C0
FC
ENDCHAR
STARTCHAR 00CA
ENCODING 202
SWIDTH 504 0
DWIDTH 7 0
BBX 6 13 1 0
BITMAP
30
68
00
FC
C0
C0
C0
FC
C0
C0
C0
C0
FC
ENDCHAR
STARTCHAR 00CB
ENCODING 203
SWIDTH 504 0
DWIDTH 7 0
BBX 6 13 1 0
BITMAP
08
48
00
FC
C0
C0
C0
FC
C0
C0
C0
C0
FC
ENDCHAR
STARTCHAR 00CC
ENCODING 204
SWIDTH 288 0
DWIDTH 4 0
BBX 3 13 1 0
BITMAP
80
40
00
E0
40
40
40
40
40
40
40
40
E0
ENDCHAR
STARTCHAR 00CD
ENCODING 205
SWIDTH 288 0
DWIDTH 4 0
BBX 3 13 1 0
BITMAP
20
40
00
E0
40
40
40
40
40
40
40
40
E0
ENDCHAR
STARTCHAR 00CE
ENCODING 206
SWIDTH 288 0
DWIDTH 4 0
BBX 4 13 0 0
BITMAP
60
D0
00
70
20
20
20
20
20
20
20
20
70
ENDCHAR
STARTCHAR 00CF
ENCODING 207
SWIDTH 288 0
DWIDTH 4 0
BBX 3 13 1 0
BITMAP
20
A0
00
E0
40
40
40
40
40
40
40
40
E0
ENDCHAR
STARTCHAR 00D0
ENCODING 208
SWIDTH 720 0
DWIDTH 10 0
BBX 9 10 0 0
BITMAP
7E00
6300
6180
6080
6080
F880
6080
6180
6300
7E00
ENDCHAR
STARTCHAR 00D1
ENCODING 209
SWIDTH 720 0
DWIDTH 10 0
BBX 8 13 1 0
BITMAP
12
2C
00
C1
E1
A1
91
D9
C9
CD
C7
C3
C3
ENDCHAR
STARTCHAR 00D2
ENCODING 210
SWIDTH 720 0
DWIDTH 10 0
BBX 9 13 1 0
BITMAP
1000
0800
0000
3E00
6300
C180
8080
8080
8080
8080
C180
4300
3E00
ENDCHAR
STARTCHAR 00D3
ENCODING 211
SWIDTH 720 0
DWIDTH 10 0
BBX 9 13 1 0
BITMAP
0400
0800
0000
3E00
6300
C180
8080
8080
8080
8080
C180
4300
3E00
ENDCHAR
STARTCHAR 00D4
ENCODING 212
SWIDTH 720 0
DWIDTH 10 0
BBX 9 13 1 0
BITMAP
1800
1400
0000
3E00
6300
C180
8080
8080
8080
8080
C180
4300
3E00
ENDCHAR
STARTCHAR 00D5
ENCODING 213
SWIDTH 720 0
DWIDTH 10 0
BBX 9 13 1 0
BITMAP
1200
2E00
0000
3E00
6300
C180
8080
8080
8080
8080
C180
4300
3E00
ENDCHAR
STARTCHAR 00D6
ENCODING 214
SWIDTH 720 0
DWIDTH 10 0
BBX 9 13 1 0
BITMAP
1400
1400
0000
3E00
6300
C180
8080
8080
8080
8080
C180
4300
3E00
ENDCHAR
STARTCHAR 00D7
ENCODING 215
SWIDTH 504 0
DWIDTH 7 0
BBX 6 6 1 2
BITMAP
84
48
30
30
48
84
ENDCHAR
STARTCHAR 00D8
ENCODING 216
SWIDTH 720 0
DWIDTH 10 0
BBX 9 10 1 0
BITMAP
3F00
6300
C380
8480
8880
9880
9080
E180
6300
7E00
ENDCHAR
STARTCHAR 00D9
ENCODING 217
SWIDTH 720 0
DWIDTH 10 0
BBX 8 13 1 0
BITMAP
10
08
00
C1
C1
C1
C1
C1
C1
C1
C1
42
3C
ENDCHAR
STARTCHAR 00DA
ENCODING 218
SWIDTH 720 0
DWIDTH 10 0
BBX 8 13 1 0
BITMAP
0C
08
00
C1
C1
C1
C1
C1
C1
C1
C1
42
3C
ENDCHAR
STARTCHAR 00DB
ENCODING 219
SWIDTH 720 0
DWIDTH 10 0
BBX 8 13 1 0
BITMAP
18
24
00
C1
C1
C1
C1
C1
C1
C1
C1
42
3C
ENDCHAR
STARTCHAR 00DC
ENCODING 220
SWIDTH 720 0
DWIDTH 10 0
BBX 8 13 1 0
BITMAP
24
24
00
C1
C1
C1
C1
C1
C1
C1
C1
42
3C
ENDCHAR
STARTCHAR 00DD
ENCODING 221
SWIDTH 504 0
DWIDTH 7 0
BBX 8 13 0 0
BITMAP
0C
08
00
C3
42
66
24
38
18
18
18
18
18
ENDCHAR
STARTCHAR 00DE
ENCODING 222
SWIDTH 576 0
DWIDTH 8 0
BBX 7 10 1 0
BITMAP
C0
C0
FC
C4
C6
C6
CC
F8
C0
C0
ENDCHAR
STARTCHAR 00DF
ENCODING 223
SWIDTH 576 0
DWIDTH 8 0
BBX 7 11 1 0
BITMAP
30
4C
84
84
98
90
8C
86
82
82
9E
ENDCHAR
STARTCHAR 00E0
ENCODING 224
SWIDTH 504 0
DWIDTH 7 0
BBX 6 11 1 0
BITMAP
60
20
10
30
48
0C
0C
FC
8C
8C
F4
ENDCHAR
STARTCHAR 00E1
ENCODING 225
SWIDTH 504 0
DWIDTH 7 0
BBX 6 11 1 0
BITMAP
18
10
20
30
48
0C
0C
FC
8C
8C
F4
ENDCHAR
STARTCHAR 00E2
ENCODING 226
SWIDTH 504 0
DWIDTH 7 0
BBX 6 11 1 0
BITMAP
30
70
48
30
48
0C
0C
FC
8C
8C
F4
ENDCHAR
STARTCHAR 00E3
ENCODING 227
SWIDTH 504 0
DWIDTH 7 0
BBX 6 10 1 0
BITMAP
78
80
30
48
0C
0C
FC
8C
8C
F4
ENDCHAR
STARTCHAR 00E4
ENCODING 228
SWIDTH 504 0
DWIDTH 7 0
BBX 6 10 1 0
BITMAP
48
00
30
48
0C
0C
FC
8C
8C
F4
ENDCHAR
STARTCHAR 00E5
ENCODING 229
SWIDTH 504 0
DWIDTH 7 0
BBX 6 11 1 0
BITMAP
70
50
20
30
48
0C
0C
FC
8C
8C
F4
ENDCHAR
STARTCHAR 00E6
ENCODING 230
SWIDTH 864 0
DWIDTH 12 0
BBX 10 8 1 0
BITMAP
3100
DEC0
0C40
0C40
FFC0
8C00
8C00
F3C0
ENDCHAR
STARTCHAR 00E7
ENCODING 231
SWIDTH 432 0
DWIDTH 6 0
BBX 5 11 1 -3
BITMAP
30
78
80
80
80
80
C0
78
20
10
30
ENDCHAR
STARTCHAR 00E8
ENCODING 232
SWIDTH 504 0
DWIDTH 7 0
BBX 6 11 1 0
BITMAP
60
20
10
30
48
84
84
FC
80
C0
7C
ENDCHAR
STARTCHAR 00E9
ENCODING 233
SWIDTH 504 0
DWIDTH 7 0
BBX 6 11 1 0
BITMAP
18
10
20
30
48
84
84
FC
80
C0
7C
ENDCHAR
STARTCHAR 00EA
ENCODING 234
SWIDTH 504 0
DWIDTH 7 0
BBX 6 11 1 0
BITMAP
30
70
48
30
48
84
84
FC
80
C0
7C
ENDCHAR
STARTCHAR 00EB
ENCODING 235
SWIDTH 504 0
DWIDTH 7 0
BBX 6 10 1 0
BITMAP
48
00
30
48
84
84
FC
80
C0
7C
ENDCHAR
STARTCHAR 00EC
ENCODING 236
SWIDTH 216 0
DWIDTH 3 0
BBX 3 11 0 0
BITMAP
C0
40
20
00
40
40
40
40
40
40
40
ENDCHAR
STARTCHAR 00ED
ENCODING 237
SWIDTH 216 0
DWIDTH 3 0
BBX 3 11 1 0
BITMAP
60
40
80
00
80
80
80
80
80
80
80
ENDCHAR
STARTCHAR 00EE
ENCODING 238
SWIDTH 216 0
DWIDTH 3 0
BBX 5 11 -1 0
BITMAP
20
70
88
00
20
20
20
20
20
20
20
ENDCHAR
STARTCHAR 00EF
ENCODING 239
SWIDTH 216 0
DWIDTH 3 0
BBX 4 10 0 0
BITMAP
B0
00
00
40
40
40
40
40
40
40
ENDCHAR
STARTCHAR 00F0
ENCODING 240
SWIDTH 576 0
DWIDTH 8 0
BBX 7 10 1 1
BITMAP
38
38
0C
34
CC
86
86
86
C4
78
ENDCHAR
STARTCHAR 00F1
ENCODING 241
SWIDTH 576 0
DWIDTH 8 0
BBX 6 10 1 0
BITMAP
74
08
18
EC
C4
84
84
84
84
84
ENDCHAR
STARTCHAR 00F2
ENCODING 242
SWIDTH 576 0
DWIDTH 8 0
BBX 7 11 1 0
BITMAP
60
30
10
30
6C
84
86
86
86
C4
78
ENDCHAR
STARTCHAR 00F3
ENCODING 243
SWIDTH 576 0
DWIDTH 8 0
BBX 7 11 1 0
BITMAP
08
10
20
30
6C
84
86
86
86
C4
78
ENDCHAR
STARTCHAR 00F4
ENCODING 244
SWIDTH 576 0
DWIDTH 8 0
BBX 7 11 1 0
BITMAP
30
38
44
30
6C
84
86
86
86
C4
78
ENDCHAR
STARTCHAR 00F5
ENCODING 245
SWIDTH 576 0
DWIDTH 8 0
BBX 7 10 1 0
BITMAP
74
08
30
6C
84
86
86
86
C4
78
ENDCHAR
STARTCHAR 00F6
ENCODING 246
SWIDTH 576 0
DWIDTH 8 0
BBX 7 10 1 0
BITMAP
68
00
30
6C
84
86
86
86
C4
78
ENDCHAR
STARTCHAR 00F7
ENCODING 247
SWIDTH 504 0
DWIDTH 7 0
BBX 6 6 1 2
BITMAP
30
00
00
FC
00
30
ENDCHAR
STARTCHAR 00F8
ENCODING 248
SWIDTH 576 0
DWIDTH 8 0
BBX 7 8 1 0
BITMAP
34
6C
8C
96
B6
A6
C4
F8
ENDCHAR
STARTCHAR 00F9
ENCODING 249
SWIDTH 576 0
DWIDTH 8 0
BBX 6 11 1 0
BITMAP
60
30
10
00
84
84
84
84
84
C4
7C
ENDCHAR
STARTCHAR 00FA
ENCODING 250
SWIDTH 576 0
DWIDTH 8 0
BBX 6 11 1 0
BITMAP
08
18
00
00
84
84
84
84
84
C4
7C
ENDCHAR
STARTCHAR 00FB
ENCODING 251
SWIDTH 576 0
DWIDTH 8 0
BBX 6 11 1 0
BITMAP
10
38
44
00
84
84
84
84
84
C4
7C
ENDCHAR
STARTCHAR 00FC
ENCODING 252
SWIDTH 576 0
DWIDTH 8 0
BBX 6 10 1 0
BITMAP
68
00
00
84
84
84
84
84
C4
7C
ENDCHAR
STARTCHAR 00FD
ENCODING 253
SWIDTH 504 0
DWIDTH 7 0
BBX 7 14 0 -3
BITMAP
0C
18
10
00
C6
44
44
2C
28
28
10
10
30
E0
ENDCHAR
STARTCHAR 00FE
ENCODING 254
SWIDTH 576 0
DWIDTH 8 0
BBX 7 14 1 -3
BITMAP
80
80
80
90
EC
C6
86
82
C6
C4
BC
80
80
80
ENDCHAR
STARTCHAR 00FF
ENCODING 255
SWIDTH 504 0
DWIDTH 7 0
BBX 7 13 0 -3
BITMAP
28
00
00
C6
44
44
2C
28
28
10
10
30
E0
ENDCHAR
STARTCHAR 0100
ENCODING 256
SWIDTH 576 0
DWIDTH 8 0
BBX 9 12 0 0
BITMAP
3C00
0000
0800
1C00
1400
1400
2200
2200
7F00
4100
4100
8180
ENDCHAR
STARTCHAR 0101
ENCODING 257
SWIDTH 504 0
DWIDTH 7 0
BBX 6 9 1 0
BITMAP
78
30
48
0C
0C
FC
8C
8C
F4
ENDCHAR
STARTCHAR 0102
ENCODING 258
SWIDTH 576 0
DWIDTH 8 0
BBX 9 13 0 0
BITMAP
2200
1C00
0000
0800
1C00
1400
1400
2200
2200
7F00
4100
4100
8180
ENDCHAR
STARTCHAR 0103
ENCODING 259
SWIDTH 504 0
DWIDTH 7 0
BBX 6 10 1 0
BITMAP
48
30
30
48
0C
0C
FC
8C
8C
F4
ENDCHAR
STARTCHAR 0104
ENCODING 260
SWIDTH 576 0
DWIDTH 8 0
BBX 9 13 0 -3
BITMAP
0800
1C00
1400
1400
2200
2200
7F00
4100
4100
8180
0100
0100
0180
ENDCHAR
STARTCHAR 0105
ENCODING 261
SWIDTH 504 0
DWIDTH 7 0
BBX 6 11 1 -3
BITMAP
30
48
0C
0C
FC
8C
8C
F4
08
08
0C
ENDCHAR
STARTCHAR 0106
ENCODING 262
SWIDTH 576 0
DWIDTH 8 0
BBX 7 13 1 0
BITMAP
04
08
00
3E
60
C0
80
80
80
80
C0
60
3E
ENDCHAR
STARTCHAR 0107
ENCODING 263
SWIDTH 432 0
DWIDTH 6 0
BBX 5 11 1 0
BITMAP
18
10
20
30
78
80
80
80
80
C0
78
ENDCHAR
STARTCHAR 0108
ENCODING 264
SWIDTH 576 0
DWIDTH 8 0
BBX 7 13 1 0
BITMAP
18
34
00
3E
60
C0
80
80
80
80
C0
60
3E
ENDCHAR
STARTCHAR 0109
ENCODING 265
SWIDTH 432 0
DWIDTH 6 0
BBX 5 11 1 0
BITMAP
30
70
48
30
78
80
80
80
80
C0
78
ENDCHAR
STARTCHAR 010A
ENCODING 266
SWIDTH 576 0
DWIDTH 8 0
BBX 7 13 1 0
BITMAP
08
08
00
3E
60
C0
80
80
80
80
C0
60
3E
ENDCHAR
STARTCHAR 010B
ENCODING 267
SWIDTH 432 0
DWIDTH 6 0
BBX 5 10 1 0
BITMAP
30
00
30
78
80
80
80
80
C0
78
ENDCHAR
STARTCHAR 010C
ENCODING 268
SWIDTH 576 0
DWIDTH 8 0
BBX 7 13 1 0
BITMAP
34
18
00
3E
60
C0
80
80
80
80
C0
60
3E
ENDCHAR
STARTCHAR 010D
ENCODING 269
SWIDTH 432 0
DWIDTH 6 0
BBX 5 11 1 0
BITMAP
48
70
30
30
78
80
80
80
80
C0
78
ENDCHAR
STARTCHAR 010E
ENCODING 270
SWIDTH 720 0
DWIDTH 10 0
BBX 8 13 1 0
BITMAP
24
18
00
FC
C6
C3
C1
C1
C1
C1
C3
C6
FC
ENDCHAR
STARTCHAR 010F
ENCODING 271
SWIDTH 576 0
DWIDTH 8 0
BBX 9 11 1 0
BITMAP
0580
0500
0500
3400
4C00
8400
8400
8400
8400
C400
7C00
ENDCHAR
STARTCHAR 0110
ENCODING 272
SWIDTH 720 0
DWIDTH 10 0
BBX 9 10 0 0
BITMAP
7E00
6300
6180
6080
6080
F880
6080
6180
6300
7E00
ENDCHAR
STARTCHAR 0111
ENCODING 273
SWIDTH 576 0
DWIDTH 8 0
BBX 7 11 1 0
BITMAP
04
04
3E
24
7C
84
84
84
84
C4
7C
ENDCHAR
STARTCHAR 0112
ENCODING 274
SWIDTH 504 0
DWIDTH 7 0
BBX 6 12 1 0
BITMAP
78
00
FC
C0
C0
C0
FC
C0
C0
C0
C0
FC
ENDCHAR
STARTCHAR 0113
ENCODING 275
SWIDTH 504 0
DWIDTH 7 0
BBX 6 9 1 0
BITMAP
78
30
48
84
84
FC
80
C0
7C
ENDCHAR
STARTCHAR 0114
ENCODING 276
SWIDTH 504 0
DWIDTH 7 0
BBX 6 13 1 0
BITMAP
40
38
00
FC
C0
C0
C0
FC
C0
C0
C0
C0
FC
ENDCHAR
STARTCHAR 0115
ENCODING 277
SWIDTH 504 0
DWIDTH 7 0
BBX 6 10 1 0
BITMAP
48
30
30
48
84
84
FC
80
C0
7C
ENDCHAR
STARTCHAR 0116
ENCODING 278
SWIDTH 504 0
DWIDTH 7 0
BBX 6 13 1 0
BITMAP
10
10
00
FC
C0
C0
C0
FC
C0
C0
C0
C0
FC
ENDCHAR
STARTCHAR 0117
ENCODING 279
SWIDTH 504 0
DWIDTH 7 0
BBX 6 10 1 0
BITMAP
30
00
30
48
84
84
FC
80
C0
7C
ENDCHAR
STARTCHAR 0118
ENCODING 280
SWIDTH 504 0
DWIDTH 7 0
BBX 6 13 1 -3
BITMAP
FC
C0
C0
C0
FC
C0
C0
C0
C0
FC
08
08
0C
ENDCHAR
STARTCHAR 0119
ENCODING 281
SWIDTH 504 0
DWIDTH 7 0
BBX 6 11 1 -3
BITMAP
30
48
84
84
FC
80
C0
7C
08
10
0C
ENDCHAR
STARTCHAR 011A
ENCODING 282
SWIDTH 504 0
DWIDTH 7 0
BBX 6 13 1 0
BITMAP
68
30
00
FC
C0
C0
C0
FC
C0
C0
C0
C0
FC
ENDCHAR
STARTCHAR 011B
ENCODING 283
SWIDTH 504 0
DWIDTH 7 0
BBX 6 11 1 0
BITMAP
48
70
30
30
48
84
84
FC
80
C0
7C
ENDCHAR
STARTCHAR 011C
ENCODING 284
SWIDTH 720 0
DWIDTH 10 0
BBX 8 13 1 0
BITMAP
0C
16
00
3F
61
C0
80
80
87
81
C1
61
3F
ENDCHAR
STARTCHAR 011D
ENCODING 285
SWIDTH 576 0
DWIDTH 8 0
BBX 6 14 1 -3
BITMAP
30
38
48
30
4C
84
84
84
84
C4
7C
04
04
FC
ENDCHAR
STARTCHAR 011E
ENCODING 286
SWIDTH 720 0
DWIDTH 10 0
BBX 8 13 1 0
BITMAP
22
1C
00
3F
61
C0
80
80
87
81
C1
61
3F
ENDCHAR
STARTCHAR 011F
ENCODING 287
SWIDTH 576 0
DWIDTH 8 0
BBX 6 13 1 -3
BITMAP
48
30
30
4C
84
84
84
84
C4
7C
04
04
FC
ENDCHAR
STARTCHAR 0120
ENCODING 288
SWIDTH 720 0
DWIDTH 10 0
BBX 8 13 1 0
BITMAP
08
08
00
3F
61
C0
80
80
87
81
C1
61
3F
ENDCHAR
STARTCHAR 0121
ENCODING 289
SWIDTH 576 0
DWIDTH 8 0
BBX 6 13 1 -3
BITMAP
30
00
30
4C
84
84
84
84
C4
7C
04
04
FC
ENDCHAR
STARTCHAR 0122
ENCODING 290
SWIDTH 720 0
DWIDTH 10 0
BBX 8 13 1 -3
BITMAP
3F
61
C0
80
80
87
81
C1
61
3F
00
08
08
ENDCHAR
STARTCHAR 0123
ENCODING 291
SWIDTH 576 0
DWIDTH 8 0
BBX 6 14 1 -3
BITMAP
10
10
20
30
4C
84
84
84
84
C4
7C
04
04
FC
ENDCHAR
STARTCHAR 0124
ENCODING 292
SWIDTH 720 0
DWIDTH 10 0
BBX 8 13 1 0
BITMAP
18
24
00
C1
C1
C1
C1
FF
C1
C1
C1
C1
C1
ENDCHAR
STARTCHAR 0125
ENCODING 293
SWIDTH 576 0
DWIDTH 8 0
BBX 7 14 0 0
BITMAP
60
A0
10
40
40
40
4C
76
62
42
42
42
42
42
ENDCHAR
STARTCHAR 0126
ENCODING 294
SWIDTH 720 0
DWIDTH 10 0
BBX 10 10 0 0
BITMAP
6080
6080
FFC0
6080
7F80
6080
6080
6080
6080
6080
ENDCHAR
STARTCHAR 0127
ENCODING 295
SWIDTH 576 0
DWIDTH 8 0
BBX 7 11 0 0
BITMAP
40
40
F8
40
5E
62
42
42
42
42
42
ENDCHAR
STARTCHAR 0128
ENCODING 296
SWIDTH 288 0
DWIDTH 4 0
BBX 5 13 0 0
BITMAP
48
B8
00
70
20
20
20
20
20
20
20
20
70
ENDCHAR
STARTCHAR 0129
ENCODING 297
SWIDTH 216 0
DWIDTH 3 0
BBX 5 10 -1 0
BITMAP
68
90
00
20
20
20
20
20
20
20
ENDCHAR
STARTCHAR 012A
ENCODING 298
SWIDTH 288 0
DWIDTH 4 0
BBX 4 12 0 0
BITMAP
F0
00
70
20
20
20
20
20
20
20
20
70
ENDCHAR
STARTCHAR 012B
ENCODING 299
SWIDTH 216 0
DWIDTH 3 0
BBX 4 9 0 0
BITMAP
F0
00
40
40
40
40
40
40
40
ENDCHAR
STARTCHAR 012C
ENCODING 300
SWIDTH 288 0
DWIDTH 4 0
BBX 4 13 0 0
BITMAP
80
70
00
70
20
20
20
20
20
20
20
20
70
ENDCHAR
STARTCHAR 012D
ENCODING 301
SWIDTH 216 0
DWIDTH 3 0
BBX 4 10 0 0
BITMAP
90
60
00
40
40
40
40
40
40
40
ENDCHAR
STARTCHAR 012E
ENCODING 302
SWIDTH 288 0
DWIDTH 4 0
BBX 3 13 1 -3
BITMAP
E0
40
40
40
40
40
40
40
40
E0
40
40
60
ENDCHAR
STARTCHAR 012F
ENCODING 303
SWIDTH 216 0
DWIDTH 3 0
BBX 3 13 0 -3
BITMAP
60
00
00
40
40
40
40
40
40
40
40
80
60
ENDCHAR
STARTCHAR 0130
ENCODING 304
SWIDTH 288 0
DWIDTH 4 0
BBX 3 13 1 0
BITMAP
40
40
00
E0
40
40
40
40
40
40
40
40
E0
ENDCHAR
STARTCHAR 0131
ENCODING 305
SWIDTH 216 0
DWIDTH 3 0
BBX 1 7 1 0
BITMAP
80
80
80
80
80
80
80
ENDCHAR
STARTCHAR 0132
ENCODING 306
SWIDTH 576 0
DWIDTH 8 0
BBX 6 13 1 -3
BITMAP
E4
44
44
44
44
44
44
44
44
E4
04
0C
18
ENDCHAR
STARTCHAR 0133
ENCODING 307
SWIDTH 504 0
DWIDTH 7 0
BBX 5 13 1 -3
BITMAP
C8
00
00
88
88
88
88
88
88
88
08
08
38
ENDCHAR
STARTCHAR 0134
ENCODING 308
SWIDTH 216 0
DWIDTH 3 0
BBX 5 16 -1 -3
BITMAP
30
48
00
30
30
30
30
30
30
30
30
30
30
20
60
C0
ENDCHAR
STARTCHAR 0135
ENCODING 309
SWIDTH 216 0
DWIDTH 3 0
BBX 5 14 -1 -3
BITMAP
20
70
88
00
20
20
20
20
20
20
20
20
20
E0
ENDCHAR
STARTCHAR 0136
ENCODING 310
SWIDTH 576 0
DWIDTH 8 0
BBX 7 13 1 -3
BITMAP
C2
C4
C8
D0
F0
D0
C8
CC
C6
C2
00
10
10
ENDCHAR
STARTCHAR 0137
ENCODING 311
SWIDTH 504 0
DWIDTH 7 0
BBX 6 14 1 -3
BITMAP
80
80
80
80
8C
90
A0
F0
90
88
8C
00
20
20
ENDCHAR
STARTCHAR 0138
ENCODING 312
SWIDTH 504 0
DWIDTH 7 0
BBX 6 7 1 0
BITMAP
8C
90
B0
F0
90
88
8C
ENDCHAR
STARTCHAR 0139
ENCODING 313
SWIDTH 504 0
DWIDTH 7 0
BBX 6 13 1 0
BITMAP
60
40
00
C0
C0
C0
C0
C0
C0
C0
C0
C0
FC
ENDCHAR
STARTCHAR 013A
ENCODING 314
SWIDTH 216 0
DWIDTH 3 0
BBX 3 14 1 0
BITMAP
60
40
00
80
80
80
80
80
80
80
80
80
80
80
ENDCHAR
STARTCHAR 013B
ENCODING 315
SWIDTH 504 0
DWIDTH 7 0
BBX 6 13 1 -3
BITMAP
C0
C0
C0
C0
C0
C0
C0
C0
C0
FC
00
10
20
ENDCHAR
STARTCHAR 013C
ENCODING 316
SWIDTH 216 0
DWIDTH 3 0
BBX 1 14 1 -3
BITMAP
80
80
80
80
80
80
80
80
80
80
80
00
80
80
ENDCHAR
STARTCHAR 013D
ENCODING 317
SWIDTH 504 0
DWIDTH 7 0
BBX 6 10 1 0
BITMAP
C4
C8
C0
C0
C0
C0
C0
C0
C0
FC
ENDCHAR
STARTCHAR 013E
ENCODING 318
SWIDTH 216 0
DWIDTH 3 0
BBX 4 11 1 0
BITMAP
B0
A0
A0
80
80
80
80
80
80
80
80
ENDCHAR
STARTCHAR 013F
ENCODING 319
SWIDTH 504 0
DWIDTH 7 0
BBX 6 10 1 0
BITMAP
C0
C0
C0
C0
C8
C8
C0
C0
C0
FC
ENDCHAR
STARTCHAR 0140
ENCODING 320
SWIDTH 216 0
DWIDTH 3 0
BBX 3 11 1 0
BITMAP
80
80
80
80
80
A0
80
80
80
80
80
ENDCHAR
STARTCHAR 0141
ENCODING 321
SWIDTH 504 0
DWIDTH 7 0
BBX 7 10 0 0
BITMAP
60
60
60
60
78
60
E0
60
60
7E
ENDCHAR
STARTCHAR 0142
ENCODING 322
SWIDTH 216 0
DWIDTH 3 0
BBX 3 11 0 0
BITMAP
40
40
40
40
40
60
C0
40
40
40
40
ENDCHAR
STARTCHAR 0143
ENCODING 323
SWIDTH 720 0
DWIDTH 10 0
BBX 8 13 1 0
BITMAP
04
08
00
C1
E1
A1
91
D9
C9
CD
C7
C3
C3
ENDCHAR
STARTCHAR 0144
ENCODING 324
SWIDTH 576 0
DWIDTH 8 0
BBX 6 11 1 0
BITMAP
08
18
00
18
EC
C4
84
84
84
84
84
ENDCHAR
STARTCHAR 0145
ENCODING 325
SWIDTH 720 0
DWIDTH 10 0
BBX 8 13 1 -3
BITMAP
C1
E1
A1
91
D9
C9
CD
C7
C3
C3
00
08
10
ENDCHAR
STARTCHAR 0146
ENCODING 326
SWIDTH 576 0
DWIDTH 8 0
BBX 6 11 1 -3
BITMAP
18
EC
C4
84
84
84
84
84
00
10
20
ENDCHAR
STARTCHAR 0147
ENCODING 327
SWIDTH 720 0
DWIDTH 10 0
BBX 8 13 1 0
BITMAP
34
18
00
C1
E1
A1
91
D9
C9
CD
C7
C3
C3
ENDCHAR
STARTCHAR 0148
ENCODING 328
SWIDTH 576 0
DWIDTH 8 0
BBX 6 11 1 0
BITMAP
44
38
10
18
EC
C4
84
84
84
84
84
ENDCHAR
STARTCHAR 0149
ENCODING 329
SWIDTH 648 0
DWIDTH 9 0
BBX 8 10 0 0
BITMAP
40
C0
86
3B
31
21
21
21
21
21
ENDCHAR
STARTCHAR 014A
ENCODING 330
SWIDTH 720 0
DWIDTH 10 0
BBX 8 13 1 -3
BITMAP
C1
E1
A1
91
99
C9
C5
C7
C3
C1
01
03
06
ENDCHAR
STARTCHAR 014B
ENCODING 331
SWIDTH 576 0
DWIDTH 8 0
BBX 6 11 1 -3
BITMAP
18
EC
C4
84
84
84
84
84
04
04
1C
ENDCHAR
STARTCHAR 014C
ENCODING 332
SWIDTH 720 0
DWIDTH 10 0
BBX 9 12 1 0
BITMAP
3E00
0000
3E00
6300
C180
8080
8080
8080
8080
C180
4300
3E00
ENDCHAR
STARTCHAR 014D
ENCODING 333
SWIDTH 576 0
DWIDTH 8 0
BBX 7 9 1 0
BITMAP
78
30
6C
84
86
86
86
C4
78
ENDCHAR
STARTCHAR 014E
ENCODING 334
SWIDTH 720 0
DWIDTH 10 0
BBX 9 13 1 0
BITMAP
2200
1C00
0000
3E00
6300
C180
8080
8080
8080
8080
C180
4300
3E00
ENDCHAR
STARTCHAR 014F
ENCODING 335
SWIDTH 576 0
DWIDTH 8 0
BBX 7 10 1 0
BITMAP
48
30
30
6C
84
86
86
86
C4
78
ENDCHAR
STARTCHAR 0150
ENCODING 336
SWIDTH 720 0
DWIDTH 10 0
BBX 9 13 1 0
BITMAP
1600
2400
0000
3E00
6300
C180
8080
8080
8080
8080
C180
4300
3E00
ENDCHAR
STARTCHAR 0151
ENCODING 337
SWIDTH 576 0
DWIDTH 8 0
BBX 7 11 1 0
BITMAP
2C
48
50
30
6C
84
86
86
86
C4
78
ENDCHAR
STARTCHAR 0152
ENCODING 338
SWIDTH 864 0
DWIDTH 12 0
BBX 11 10 1 0
BITMAP
3FE0
6200
C200
8200
83E0
8200
8200
C200
4200
3FE0
ENDCHAR
STARTCHAR 0153
ENCODING 339
SWIDTH 936 0
DWIDTH 13 0
BBX 11 8 1 0
BITMAP
3080
6F60
8620
8620
87E0
8600
C600
79E0
ENDCHAR
STARTCHAR 0154
ENCODING 340
SWIDTH 576 0
DWIDTH 8 0
BBX 7 13 1 0
BITMAP
08
10
00
F8
C4
C6
C6
C4
F8
C8
CC
C6
C2
ENDCHAR
STARTCHAR 0155
ENCODING 341
SWIDTH 360 0
DWIDTH 5 0
BBX 5 11 1 0
BITMAP
10
30
20
18
B0
C0
80
80
80
80
80
ENDCHAR
STARTCHAR 0156
ENCODING 342
SWIDTH 576 0
DWIDTH 8 0
BBX 7 13 1 -3
BITMAP
F8
C4
C6
C6
C4
F8
C8
CC
C6
C2
00
10
10
ENDCHAR
STARTCHAR 0157
ENCODING 343
SWIDTH 360 0
DWIDTH 5 0
BBX 5 11 1 -3
BITMAP
18
B0
C0
80
80
80
80
80
00
80
80
ENDCHAR
STARTCHAR 0158
ENCODING 344
SWIDTH 576 0
DWIDTH 8 0
BBX 7 13 1 0
BITMAP
68
30
00
F8
C4
C6
C6
C4
F8
C8
CC
C6
C2
ENDCHAR
STARTCHAR 0159
ENCODING 345
SWIDTH 360 0
DWIDTH 5 0
BBX 5 11 1 0
BITMAP
88
70
20
18
B0
C0
80
80
80
80
80
ENDCHAR
STARTCHAR 015A
ENCODING 346
SWIDTH 504 0
DWIDTH 7 0
BBX 6 13 1 0
BITMAP
18
10
00
7C
80
80
80
60
18
0C
04
0C
F8
ENDCHAR
STARTCHAR 015B
ENCODING 347
SWIDTH 432 0
DWIDTH 6 0
BBX 5 11 1 0
BITMAP
10
30
20
30
D8
80
C0
30
08
08
F0
ENDCHAR
STARTCHAR 015C
ENCODING 348
SWIDTH 504 0
DWIDTH 7 0
BBX 6 13 1 0
BITMAP
30
48
00
7C
80
80
80
60
18
0C
04
0C
F8
ENDCHAR
STARTCHAR 015D
ENCODING 349
SWIDTH 432 0
DWIDTH 6 0
BBX 5 11 1 0
BITMAP
20
70
88
30
D8
80
C0
30
08
08
F0
ENDCHAR
STARTCHAR 015E
ENCODING 350
SWIDTH 504 0
DWIDTH 7 0
BBX 6 13 1 -3
BITMAP
7C
80
80
80
60
18
0C
04
0C
F8
20
10
30
ENDCHAR
STARTCHAR 015F
ENCODING 351
SWIDTH 432 0
DWIDTH 6 0
BBX 5 11 1 -3
BITMAP
30
D8
80
C0
30
08
08
F0
20
30
70
ENDCHAR
STARTCHAR 0160
ENCODING 352
SWIDTH 504 0
DWIDTH 7 0
BBX 6 13 1 0
BITMAP
48
30
00
7C
80
80
80
60
18
0C
04
0C
F8
ENDCHAR
STARTCHAR 0161
ENCODING 353
SWIDTH 432 0
DWIDTH 6 0
BBX 5 11 1 0
BITMAP
88
70
20
30
D8
80
C0
30
08
08
F0
ENDCHAR
STARTCHAR 0162
ENCODING 354
SWIDTH 504 0
DWIDTH 7 0
BBX 8 13 0 -3
BITMAP
FF
10
10
10
10
10
10
10
10
10
10
08
38
ENDCHAR
STARTCHAR 0163
ENCODING 355
SWIDTH 360 0
DWIDTH 5 0
BBX 5 12 0 -3
BITMAP
20
60
F8
60
60
60
60
60
38
20
10
30
ENDCHAR
STARTCHAR 0164
ENCODING 356
SWIDTH 504 0
DWIDTH 7 0
BBX 8 13 0 0
BITMAP
24
18
00
FF
10
10
10
10
10
10
10
10
10
ENDCHAR
STARTCHAR 0165
ENCODING 357
SWIDTH 360 0
DWIDTH 5 0
BBX 7 11 0 0
BITMAP
06
04
24
60
F8
60
60
60
60
60
38
ENDCHAR
STARTCHAR 0166
ENCODING 358
SWIDTH 504 0
DWIDTH 7 0
BBX 8 10 0 0
BITMAP
FF
10
10
10
7E
10
10
10
10
10
ENDCHAR
STARTCHAR 0167
ENCODING 359
SWIDTH 360 0
DWIDTH 5 0
BBX 5 9 0 0
BITMAP
20
60
F8
60
F8
60
60
60
38
ENDCHAR
STARTCHAR 0168
ENCODING 360
SWIDTH 720 0
DWIDTH 10 0
BBX 8 13 1 0
BITMAP
32
2C
00
C1
C1
C1
C1
C1
C1
C1
C1
42
3C
ENDCHAR
STARTCHAR 0169
ENCODING 361
SWIDTH 576 0
DWIDTH 8 0
BBX 6 10 1 0
BITMAP
74
08
00
84
84
84
84
84
C4
7C
ENDCHAR
STARTCHAR 016A
ENCODING 362
SWIDTH 720 0
DWIDTH 10 0
BBX 8 12 1 0
BITMAP
3C
00
C1
C1
C1
C1
C1
C1
C1
C1
42
3C
ENDCHAR
STARTCHAR 016B
ENCODING 363
SWIDTH 576 0
DWIDTH 8 0
BBX 6 9 1 0
BITMAP
78
00
84
84
84
84
84
C4
7C
ENDCHAR
STARTCHAR 016C
ENCODING 364
SWIDTH 720 0
DWIDTH 10 0
BBX 8 13 1 0
BITMAP
24
3C
00
C1
C1
C1
C1
C1
C1
C1
C1
42
3C
ENDCHAR
STARTCHAR 016D
ENCODING 365
SWIDTH 576 0
DWIDTH 8 0
BBX 6 10 1 0
BITMAP
48
30
00
84
84
84
84
84
C4
7C
ENDCHAR
STARTCHAR 016E
ENCODING 366
SWIDTH 720 0
DWIDTH 10 0
BBX 8 14 1 0
BITMAP
18
24
18
00
C1
C1
C1
C1
C1
C1
C1
C1
42
3C
ENDCHAR
STARTCHAR 016F
ENCODING 367
SWIDTH 576 0
DWIDTH 8 0
BBX 6 11 1 0
BITMAP
38
28
10
00
84
84
84
84
84
C4
7C
ENDCHAR
STARTCHAR 0170
ENCODING 368
SWIDTH 720 0
DWIDTH 10 0
BBX 8 13 1 0
BITMAP
34
28
00
C1
C1
C1
C1
C1
C1
C1
C1
42
3C
ENDCHAR
STARTCHAR 0171
ENCODING 369
SWIDTH 576 0
DWIDTH 8 0
BBX 6 11 1 0
BITMAP
2C
68
50
00
84
84
84
84
84
C4
7C
ENDCHAR
STARTCHAR 0172
ENCODING 370
SWIDTH 720 0
DWIDTH 10 0
BBX 8 13 1 -3
BITMAP
C1
C1
C1
C1
C1
C1
C1
C1
42
3E
04
08
06
ENDCHAR
STARTCHAR 0173
ENCODING 371
SWIDTH 576 0
DWIDTH 8 0
BBX 7 10 1 -3
BITMAP
84
84
84
84
84
C4
7C
04
08
0E
ENDCHAR
STARTCHAR 0174
ENCODING 372
SWIDTH 864 0
DWIDTH 12 0
BBX 13 13 0 0
BITMAP
0600
0500
0000
C218
4610
4510
4510
6D30
29A0
28A0
28A0
30C0
1040
ENDCHAR
STARTCHAR 0175
ENCODING 373
SWIDTH 720 0
DWIDTH 10 0
BBX 11 11 0 0
BITMAP
0400
0A00
1100
0000
C460
4A40
4A40
4AC0
3180
3180
3180
ENDCHAR
STARTCHAR 0176
ENCODING 374
SWIDTH 504 0
DWIDTH 7 0
BBX 8 13 0 0
BITMAP
18
24
00
C3
42
66
24
38
18
18
18
18
18
ENDCHAR
STARTCHAR 0177
ENCODING 375
SWIDTH 504 0
DWIDTH 7 0
BBX 7 14 0 -3
BITMAP
10
28
44
00
C6
44
44
2C
28
28
10
10
30
E0
ENDCHAR
STARTCHAR 0178
ENCODING 376
SWIDTH 504 0
DWIDTH 7 0
BBX 8 13 0 0
BITMAP
24
24
00
C3
42
66
24
38
18
18
18
18
18
ENDCHAR
STARTCHAR 0179
ENCODING 377
SWIDTH 504 0
DWIDTH 7 0
BBX 6 13 1 0
BITMAP
18
10
00
FC
04
08
18
10
20
60
40
80
FC
ENDCHAR
STARTCHAR 017A
ENCODING 378
SWIDTH 432 0
DWIDTH 6 0
BBX 5 11 1 0
BITMAP
10
20
00
00
F8
10
20
60
40
80
F8
ENDCHAR
STARTCHAR 017B
ENCODING 379
SWIDTH 504 0
DWIDTH 7 0
BBX 6 13 1 0
BITMAP
10
30
00
FC
04
08
18
10
20
60
40
80
FC
ENDCHAR
STARTCHAR 017C
ENCODING 380
SWIDTH 432 0
DWIDTH 6 0
BBX 5 10 1 0
BITMAP
20
00
00
F8
10
20
60
40
80
F8
ENDCHAR
STARTCHAR 017D
ENCODING 381
SWIDTH 504 0
DWIDTH 7 0
BBX 6 13 1 0
BITMAP
48
30
00
FC
04
08
18
10
20
60
40
80
FC
ENDCHAR
STARTCHAR 017E
ENCODING 382
SWIDTH 432 0
DWIDTH 6 0
BBX 5 11 1 0
BITMAP
88
70
20
00
F8
10
20
60
40
80
F8
ENDCHAR
STARTCHAR 017F
ENCODING 383
SWIDTH 288 0
DWIDTH 4 0
BBX 4 11 1 0
BITMAP
30
D0
80
80
80
80
80
80
80
80
80
ENDCHAR
STARTCHAR 0180
ENCODING 384
SWIDTH 576 0
DWIDTH 8 0
BBX 8 11 0 0
BITMAP
40
40
F8
48
76
63
43
41
63
62
5E
ENDCHAR
STARTCHAR 0181
ENCODING 385
SWIDTH 720 0
DWIDTH 10 0
BBX 9 10 0 0
BITMAP
7F00
B180
B080
3080
3F00
3180
3080
3080
3180
3F00
ENDCHAR
STARTCHAR 0182
ENCODING 386
SWIDTH 576 0
DWIDTH 8 0
BBX 7 10 1 0
BITMAP
FC
C0
C0
C0
F8
CC
C6
C2
C6
FC
ENDCHAR
STARTCHAR 0183
ENCODING 387
SWIDTH 576 0
DWIDTH 8 0
BBX 7 11 1 0
BITMAP
FC
80
80
90
EC
C6
86
82
C6
C4
BC
ENDCHAR
STARTCHAR 0184
ENCODING 388
SWIDTH 576 0
DWIDTH 8 0
BBX 7 10 1 0
BITMAP
C0
C0
C0
C0
F8
CE
C2
C2
46
7C
ENDCHAR
STARTCHAR 0185
ENCODING 389
SWIDTH 576 0
DWIDTH 8 0
BBX 7 11 1 0
BITMAP
80
80
80
90
EC
C4
86
86
86
44
7C
ENDCHAR
STARTCHAR 0186
ENCODING 390
SWIDTH 576 0
DWIDTH 8 0
BBX 7 10 1 0
BITMAP
F8
0C
04
06
02
02
06
04
0C
F8
ENDCHAR
STARTCHAR 0187
ENCODING 391
SWIDTH 576 0
DWIDTH 8 0
BBX 9 12 1 0
BITMAP
0180
0200
3E00
6000
C000
8000
8000
8000
8000
C000
6000
3E00
ENDCHAR
STARTCHAR 0188
ENCODING 392
SWIDTH 432 0
DWIDTH 6 0
BBX 7 11 1 0
BITMAP
04
0A
08
38
78
80
80
80
80
C0
78
ENDCHAR
STARTCHAR 0189
ENCODING 393
SWIDTH 720 0
DWIDTH 10 0
BBX 9 10 0 0
BITMAP
7E00
6300
6180
6080
6080
F880
6080
6180
6300
7E00
ENDCHAR
STARTCHAR 018A
ENCODING 394
SWIDTH 792 0
DWIDTH 11 0
BBX 10 10 0 0
BITMAP
7F00
B180
B0C0
3040
3040
3040
3040
30C0
3180
3F00
ENDCHAR
STARTCHAR 018B
ENCODING 395
SWIDTH 576 0
DWIDTH 8 0
BBX 6 10 1 0
BITMAP
FC
04
04
04
3C
C4
84
84
C4
7C
ENDCHAR
STARTCHAR 018C
ENCODING 396
SWIDTH 576 0
DWIDTH 8 0
BBX 6 11 1 0
BITMAP
7C
04
04
34
4C
84
84
84
84
C4
7C
ENDCHAR
STARTCHAR 018D
ENCODING 397
SWIDTH 576 0
DWIDTH 8 0
BBX 7 11 1 -3
BITMAP
10
6C
86
82
86
C4
68
18
0C
0C
78
ENDCHAR
STARTCHAR 018E
ENCODING 398
SWIDTH 504 0
DWIDTH 7 0
BBX 5 10 1 0
BITMAP
F8
08
08
08
F8
08
08
08
08
F8
ENDCHAR
STARTCHAR 018F
ENCODING 399
SWIDTH 720 0
DWIDTH 10 0
BBX 8 10 1 0
BITMAP
FC
82
01
01
01
FF
81
81
42
3C
ENDCHAR
STARTCHAR 0190
ENCODING 400
SWIDTH 576 0
DWIDTH 8 0
BBX 7 10 1 0
BITMAP
7C
C4
C0
C0
7C
60
80
80
C2
7E
ENDCHAR
STARTCHAR 0191
ENCODING 401
SWIDTH 576 0
DWIDTH 8 0
BBX 8 13 0 -3
BITMAP
1F
10
10
10
1F
10
10
10
10
10
10
90
E0
ENDCHAR
STARTCHAR 0192
ENCODING 402
SWIDTH 360 0
DWIDTH 5 0
BBX 6 14 0 -3
BITMAP
0C
10
10
30
7C
30
30
30
30
30
30
30
B0
E0
ENDCHAR
STARTCHAR 0193
ENCODING 403
SWIDTH 720 0
DWIDTH 10 0
BBX 9 12 1 0
BITMAP
0180
0100
3F00
6100
C000
8000
8000
8700
8100
C100
6100
3F00
ENDCHAR
STARTCHAR 0194
ENCODING 404
SWIDTH 504 0
DWIDTH 7 0
BBX 8 13 0 -3
BITMAP
83
42
42
66
24
24
38
18
18
18
38
2C
18
ENDCHAR
STARTCHAR 0195
ENCODING 405
SWIDTH 864 0
DWIDTH 12 0
BBX 11 11 1 0
BITMAP
8000
8000
8000
9000
EC20
C420
8420
8420
8420
8460
83C0
ENDCHAR
STARTCHAR 0196
ENCODING 406
SWIDTH 288 0
DWIDTH 4 0
BBX 4 10 1 0
BITMAP
80
80
80
80
80
80
80
80
C0
70
ENDCHAR
STARTCHAR 0197
ENCODING 407
SWIDTH 288 0
DWIDTH 4 0
BBX 4 10 0 0
BITMAP
70
20
20
20
F0
20
20
20
20
70
ENDCHAR
STARTCHAR 0198
ENCODING 408
SWIDTH 576 0
DWIDTH 8 0
BBX 7 10 1 0
BITMAP
C6
C4
C8
D0
F0
D0
C8
CC
C6
C2
ENDCHAR
STARTCHAR 0199
ENCODING 409
SWIDTH 504 0
DWIDTH 7 0
BBX 6 11 1 0
BITMAP
60
C0
80
80
8C
90
A0
F0
90
88
8C
ENDCHAR
STARTCHAR 019A
ENCODING 410
SWIDTH 216 0
DWIDTH 3 0
BBX 3 11 0 0
BITMAP
40
40
40
40
40
E0
40
40
40
40
40
ENDCHAR
STARTCHAR 019B
ENCODING 411
SWIDTH 504 0
DWIDTH 7 0
BBX 8 11 0 0
BITMAP
40
38
70
10
18
28
28
64
44
44
83
ENDCHAR
STARTCHAR 019C
ENCODING 412
SWIDTH 1008 0
DWIDTH 14 0
BBX 12 10 1 0
BITMAP
C610
C610
C610
C610
C610
C610
C610
C610
C630
7BD0
ENDCHAR
STARTCHAR 019D
ENCODING 413
SWIDTH 720 0
DWIDTH 10 0
BBX 9 13 0 -3
BITMAP
6080
7080
5080
4880
6C80
6480
6680
6380
6180
6180
6000
4000
C000
ENDCHAR
STARTCHAR 019E
ENCODING 414
SWIDTH 576 0
DWIDTH 8 0
BBX 6 11 1 -3
BITMAP
10
EC
C4
84
84
84
84
84
04
04
04
ENDCHAR
STARTCHAR 019F
ENCODING 415
SWIDTH 720 0
DWIDTH 10 0
BBX 9 10 1 0
BITMAP
3E00
6300
C180
8080
FF80
8080
8080
C180
4300
3E00
ENDCHAR
STARTCHAR 01A0
ENCODING 416
SWIDTH 720 0
DWIDTH 10 0
BBX 10 11 1 0
BITMAP
0040
3E40
6380
C180
8080
8080
8080
8080
C180
4300
3E00
ENDCHAR
STARTCHAR 01A1
ENCODING 417
SWIDTH 576 0
DWIDTH 8 0
BBX 8 9 1 0
BITMAP
01
33
6E
84
86
86
86
C4
78
ENDCHAR
STARTCHAR 01A2
ENCODING 418
SWIDTH 1008 0
DWIDTH 14 0
BBX 13 10 1 0
BITMAP
3EF0
6310
C118
8118
8198
8198
8118
C118
4318
3E18
ENDCHAR
STARTCHAR 01A3
ENCODING 419
SWIDTH 792 0
DWIDTH 11 0
BBX 10 11 1 -3
BITMAP
3100
4E80
84C0
84C0
84C0
84C0
CCC0
78C0
00C0
00C0
00C0
ENDCHAR
STARTCHAR 01A4
ENCODING 420
SWIDTH 648 0
DWIDTH 9 0
BBX 9 10 0 0
BITMAP
7E00
B100
B180
3180
3100
3F00
3000
3000
3000
3000
ENDCHAR
STARTCHAR 01A5
ENCODING 421
SWIDTH 576 0
DWIDTH 8 0
BBX 7 14 1 -3
BITMAP
60
C0
80
90
EC
C6
86
82
C6
C4
BC
80
80
80
ENDCHAR
STARTCHAR 01A6
ENCODING 422
SWIDTH 576 0
DWIDTH 8 0
BBX 7 11 1 -1
BITMAP
C0
F0
FC
C6
C6
C4
FC
C8
CC
C4
06
ENDCHAR
STARTCHAR 01A7
ENCODING 423
SWIDTH 504 0
DWIDTH 7 0
BBX 6 10 1 0
BITMAP
F8
0C
04
0C
38
60
80
80
80
7C
ENDCHAR
STARTCHAR 01A8
ENCODING 424
SWIDTH 432 0
DWIDTH 6 0
BBX 5 8 1 0
BITMAP
60
D8
08
38
E0
80
80
F8
ENDCHAR
STARTCHAR 01A9
ENCODING 425
SWIDTH 504 0
DWIDTH 7 0
BBX 6 10 1 0
BITMAP
FC
C0
40
20
30
30
20
40
80
FC
ENDCHAR
STARTCHAR 01AA
ENCODING 426
SWIDTH 288 0
DWIDTH 4 0
BBX 6 14 0 -3
BITMAP
40
A0
E0
20
20
20
20
20
20
20
20
20
20
1C
ENDCHAR
STARTCHAR 01AB
ENCODING 427
SWIDTH 360 0
DWIDTH 5 0
BBX 5 12 0 -3
BITMAP
20
60
F8
60
60
60
60
60
38
08
08
38
ENDCHAR
STARTCHAR 01AC
ENCODING 428
SWIDTH 576 0
DWIDTH 8 0
BBX 8 10 0 0
BITMAP
7F
88
88
08
08
08
08
08
08
08
ENDCHAR
STARTCHAR 01AD
ENCODING 429
SWIDTH 360 0
DWIDTH 5 0
BBX 5 11 0 0
BITMAP
30
60
60
60
F8
60
60
60
60
60
38
ENDCHAR
STARTCHAR 01AE
ENCODING 430
SWIDTH 504 0
DWIDTH 7 0
BBX 8 13 0 -3
BITMAP
FF
10
10
10
10
10
10
10
10
10
10
18
1C
ENDCHAR
STARTCHAR 01AF
ENCODING 431
SWIDTH 720 0
DWIDTH 10 0
BBX 10 11 1 0
BITMAP
0040
C140
C1C0
C100
C100
C100
C100
C100
C100
4200
3E00
ENDCHAR
STARTCHAR 01B0
ENCODING 432
SWIDTH 648 0
DWIDTH 9 0
BBX 9 9 1 0
BITMAP
0180
0180
8700
8400
8400
8400
8400
C400
7C00
ENDCHAR
STARTCHAR 01B1
ENCODING 433
SWIDTH 720 0
DWIDTH 10 0
BBX 9 10 1 0
BITMAP
F780
2200
4100
C180
8080
8080
8080
C180
4300
3E00
ENDCHAR
STARTCHAR 01B2
ENCODING 434
SWIDTH 720 0
DWIDTH 10 0
BBX 8 10 1 0
BITMAP
C6
C1
C1
C1
C1
C1
C1
C1
42
3C
ENDCHAR
STARTCHAR 01B3
ENCODING 435
SWIDTH 576 0
DWIDTH 8 0
BBX 8 10 0 0
BITMAP
C3
46
64
24
38
18
18
18
18
18
ENDCHAR
STARTCHAR 01B4
ENCODING 436
SWIDTH 504 0
DWIDTH 7 0
BBX 7 11 0 -3
BITMAP
02
C6
44
44
2C
28
28
10
10
30
E0
ENDCHAR
STARTCHAR 01B5
ENCODING 437
SWIDTH 504 0
DWIDTH 7 0
BBX 6 10 1 0
BITMAP
FC
04
08
18
FC
20
60
40
80
FC
ENDCHAR
STARTCHAR 01B6
ENCODING 438
SWIDTH 432 0
DWIDTH 6 0
BBX 5 7 1 0
BITMAP
F8
10
20
F8
40
80
F8
ENDCHAR
STARTCHAR 01B7
ENCODING 439
SWIDTH 576 0
DWIDTH 8 0
BBX 7 10 0 0
BITMAP
7E
04
08
10
38
0E
02
02
86
FC
ENDCHAR
STARTCHAR 01B8
ENCODING 440
SWIDTH 576 0
DWIDTH 8 0
BBX 7 10 1 0
BITMAP
FC
40
20
10
78
C0
80
80
C0
7E
ENDCHAR
STARTCHAR 01B9
ENCODING 441
SWIDTH 432 0
DWIDTH 6 0
BBX 7 10 0 -3
BITMAP
7E
20
10
08
38
40
40
C0
40
7E
ENDCHAR
STARTCHAR 01BA
ENCODING 442
SWIDTH 432 0
DWIDTH 6 0
BBX 6 10 0 -3
BITMAP
FC
18
30
3C
04
04
04
78
C0
78
ENDCHAR
STARTCHAR 01BB
ENCODING 443
SWIDTH 504 0
DWIDTH 7 0
BBX 6 11 1 0
BITMAP
30
D8
08
08
08
FC
30
20
40
80
FC
ENDCHAR
STARTCHAR 01BC
ENCODING 444
SWIDTH 576 0
DWIDTH 8 0
BBX 7 10 0 0
BITMAP
7E
20
20
20
3C
06
02
02
86
FC
ENDCHAR
STARTCHAR 01BD
ENCODING 445
SWIDTH 432 0
DWIDTH 6 0
BBX 6 7 0 0
BITMAP
7C
20
38
0C
04
04
F8
ENDCHAR
STARTCHAR 01BE
ENCODING 446
SWIDTH 432 0
DWIDTH 6 0
BBX 6 9 0 0
BITMAP
20
20
78
20
20
18
0C
04
F8
ENDCHAR
STARTCHAR 01BF
ENCODING 447
SWIDTH 576 0
DWIDTH 8 0
BBX 6 11 1 -3
BITMAP
10
EC
C4
84
84
84
98
F0
80
80
80
ENDCHAR
STARTCHAR 01C0
ENCODING 448
SWIDTH 288 0
DWIDTH 4 0
BBX 1 11 2 0
BITMAP
80
80
80
80
80
80
80
80
80
80
80
ENDCHAR
STARTCHAR 01C1
ENCODING 449
SWIDTH 504 0
DWIDTH 7 0
BBX 4 11 2 0
BITMAP
90
90
90
90
90
90
90
90
90
90
90
ENDCHAR
STARTCHAR 01C2
ENCODING 450
SWIDTH 504 0
DWIDTH 7 0
BBX 5 11 1 0
BITMAP
20
20
20
20
F8
20
F8
20
20
20
20
ENDCHAR
STARTCHAR 01C3
ENCODING 451
SWIDTH 216 0
DWIDTH 3 0
BBX 2 10 1 0
BITMAP
C0
C0
80
80
80
80
80
00
80
C0
ENDCHAR
STARTCHAR 01C4
ENCODING 452
SWIDTH 1224 0
DWIDTH 17 0
BBX 16 13 1 0
BITMAP
0012
000C
0000
FC3F
C601
C302
C106
C104
C108
C118
C310
C620
FC3F
ENDCHAR
STARTCHAR 01C5
ENCODING 453
SWIDTH 1152 0
DWIDTH 16 0
BBX 15 11 1 0
BITMAP
0022
FC14
C608
C300
C13E
C104
C10C
C108
C310
C620
FC3E
ENDCHAR
STARTCHAR 01C6
ENCODING 454
SWIDTH 1080 0
DWIDTH 15 0
BBX 14 11 1 0
BITMAP
04C8
0470
0420
3400
4CF8
8418
8410
8420
8460
C440
7CFC
ENDCHAR
STARTCHAR 01C7
ENCODING 455
SWIDTH 792 0
DWIDTH 11 0
BBX 9 13 1 -3
BITMAP
C080
C080
C080
C080
C080
C080
C080
C080
C080
FC80
0080
0500
0600
ENDCHAR
STARTCHAR 01C8
ENCODING 456
SWIDTH 720 0
DWIDTH 10 0
BBX 9 13 1 -3
BITMAP
C180
C000
C000
C180
C180
C180
C180
C180
C180
FD80
0180
0180
0300
ENDCHAR
STARTCHAR 01C9
ENCODING 457
SWIDTH 504 0
DWIDTH 7 0
BBX 5 14 1 -3
BITMAP
80
88
80
80
88
88
88
88
88
88
88
08
08
38
ENDCHAR
STARTCHAR 01CA
ENCODING 458
SWIDTH 1008 0
DWIDTH 14 0
BBX 12 13 1 -3
BITMAP
C110
E110
A110
9110
D910
C910
CD10
C710
C310
C310
0010
00B0
0040
ENDCHAR
STARTCHAR 01CB
ENCODING 459
SWIDTH 1008 0
DWIDTH 14 0
BBX 12 13 1 -3
BITMAP
C110
E100
A100
9110
D910
C910
CD10
C710
C310
C310
0010
0010
0070
ENDCHAR
STARTCHAR 01CC
ENCODING 460
SWIDTH 864 0
DWIDTH 12 0
BBX 10 13 1 -3
BITMAP
0040
0000
1800
EC40
C440
8440
8440
8440
8440
8440
0040
0040
01C0
ENDCHAR
STARTCHAR 01CD
ENCODING 461
SWIDTH 576 0
DWIDTH 8 0
BBX 9 13 0 0
BITMAP
3400
1800
0000
0800
1C00
1400
1400
2200
2200
7F00
4100
4100
8180
ENDCHAR
STARTCHAR 01CE
ENCODING 462
SWIDTH 504 0
DWIDTH 7 0
BBX 6 11 1 0
BITMAP
48
70
30
30
48
0C
0C
FC
8C
8C
F4
ENDCHAR
STARTCHAR 01CF
ENCODING 463
SWIDTH 288 0
DWIDTH 4 0
BBX 4 13 0 0
BITMAP
D0
60
00
70
20
20
20
20
20
20
20
20
70
ENDCHAR
STARTCHAR 01D0
ENCODING 464
SWIDTH 216 0
DWIDTH 3 0
BBX 5 11 -1 0
BITMAP
88
70
20
00
20
20
20
20
20
20
20
ENDCHAR
STARTCHAR 01D1
ENCODING 465
SWIDTH 720 0
DWIDTH 10 0
BBX 9 13 1 0
BITMAP
3400
1800
0000
3E00
6300
C180
8080
8080
8080
8080
C180
4300
3E00
ENDCHAR
STARTCHAR 01D2
ENCODING 466
SWIDTH 576 0
DWIDTH 8 0
BBX 7 11 1 0
BITMAP
4C
38
10
30
6C
84
86
86
86
C4
78
ENDCHAR
STARTCHAR 01D3
ENCODING 467
SWIDTH 720 0
DWIDTH 10 0
BBX 8 13 1 0
BITMAP
24
18
00
C1
C1
C1
C1
C1
C1
C1
C1
42
3C
ENDCHAR
STARTCHAR 01D4
ENCODING 468
SWIDTH 576 0
DWIDTH 8 0
BBX 6 11 1 0
BITMAP
44
38
10
00
84
84
84
84
84
C4
7C
ENDCHAR
STARTCHAR 01D5
ENCODING 469
SWIDTH 720 0
DWIDTH 10 0
BBX 8 14 1 0
BITMAP
3C
00
24
00
C1
C1
C1
C1
C1
C1
C1
C1
42
3C
ENDCHAR
STARTCHAR 01D6
ENCODING 470
SWIDTH 576 0
DWIDTH 8 0
BBX 6 12 1 0
BITMAP
78
00
48
08
00
84
84
84
84
84
C4
7C
ENDCHAR
STARTCHAR 01D7
ENCODING 471
SWIDTH 720 0
DWIDTH 10 0
BBX 8 15 1 0
BITMAP
04
08
00
24
00
C1
C1
C1
C1
C1
C1
C1
C1
42
3C
ENDCHAR
STARTCHAR 01D8
ENCODING 472
SWIDTH 576 0
DWIDTH 8 0
BBX 6 12 1 0
BITMAP
08
10
48
08
00
84
84
84
84
84
C4
7C
ENDCHAR
STARTCHAR 01D9
ENCODING 473
SWIDTH 720 0
DWIDTH 10 0
BBX 8 15 1 0
BITMAP
24
18
00
24
00
C1
C1
C1
C1
C1
C1
C1
C1
42
3C
ENDCHAR
STARTCHAR 01DA
ENCODING 474
SWIDTH 576 0
DWIDTH 8 0
BBX 6 12 1 0
BITMAP
68
30
48
08
00
84
84
84
84
84
C4
7C
ENDCHAR
STARTCHAR 01DB
ENCODING 475
SWIDTH 720 0
DWIDTH 10 0
BBX 8 15 1 0
BITMAP
30
10
00
24
00
C1
C1
C1
C1
C1
C1
C1
C1
42
3C
ENDCHAR
STARTCHAR 01DC
ENCODING 476
SWIDTH 576 0
DWIDTH 8 0
BBX 6 12 1 0
BITMAP
20
10
48
08
00
84
84
84
84
84
C4
7C
ENDCHAR
STARTCHAR 01DD
ENCODING 477
SWIDTH 504 0
DWIDTH 7 0
BBX 6 8 1 0
BITMAP
60
D8
0C
04
FC
84
8C
78
ENDCHAR
STARTCHAR 01DE
ENCODING 478
SWIDTH 576 0
DWIDTH 8 0
BBX 9 14 0 0
BITMAP
3C00
0000
3400
0000
0800
1C00
1400
1400
2200
2200
7F00
4100
4100
8180
ENDCHAR
STARTCHAR 01DF
ENCODING 479
SWIDTH 504 0
DWIDTH 7 0
BBX 6 12 1 0
BITMAP
78
00
48
48
30
48
0C
0C
FC
8C
8C
F4
ENDCHAR
STARTCHAR 01E0
ENCODING 480
SWIDTH 576 0
DWIDTH 8 0
BBX 9 14 0 0
BITMAP
3C00
0000
0800
0000
0800
1C00
1400
1400
2200
2200
7F00
4100
4100
8180
ENDCHAR
STARTCHAR 01E1
ENCODING 481
SWIDTH 504 0
DWIDTH 7 0
BBX 6 12 1 0
BITMAP
78
00
30
00
30
48
0C
0C
FC
8C
8C
F4
ENDCHAR
STARTCHAR 01E2
ENCODING 482
SWIDTH 864 0
DWIDTH 12 0
BBX 11 12 0 0
BITMAP
0780
0000
0FE0
0A00
0A00
1200
13E0
2200
3E00
4200
4200
C3E0
ENDCHAR
STARTCHAR 01E3
ENCODING 483
SWIDTH 864 0
DWIDTH 12 0
BBX 10 9 1 0
BITMAP
1E00
3100
DEC0
0C40
0C40
FFC0
8C00
8C00
F3C0
ENDCHAR
STARTCHAR 01E4
ENCODING 484
SWIDTH 720 0
DWIDTH 10 0
BBX 9 10 1 0
BITMAP
3F00
6100
C000
8000
8000
8700
8100
C780
6100
3F00
ENDCHAR
STARTCHAR 01E5
ENCODING 485
SWIDTH 576 0
DWIDTH 8 0
BBX 7 11 1 -3
BITMAP
30
4C
84
84
84
84
CC
34
1E
04
FC
ENDCHAR
STARTCHAR 01E6
ENCODING 486
SWIDTH 720 0
DWIDTH 10 0
BBX 8 13 1 0
BITMAP
16
0C
00
3F
61
C0
80
80
87
81
C1
61
3F
ENDCHAR
STARTCHAR 01E7
ENCODING 487
SWIDTH 576 0
DWIDTH 8 0
BBX 6 14 1 -3
BITMAP
48
38
30
30
4C
84
84
84
84
C4
7C
04
04
FC
ENDCHAR
STARTCHAR 01E8
ENCODING 488
SWIDTH 576 0
DWIDTH 8 0
BBX 7 13 1 0
BITMAP
2C
18
00
C2
C4
C8
D0
F0
D0
C8
CC
C6
C2
ENDCHAR
STARTCHAR 01E9
ENCODING 489
SWIDTH 504 0
DWIDTH 7 0
BBX 7 14 0 0
BITMAP
90
E0
00
40
40
40
40
46
48
50
78
48
44
46
ENDCHAR
STARTCHAR 01EA
ENCODING 490
SWIDTH 720 0
DWIDTH 10 0
BBX 9 13 1 -3
BITMAP
3E00
6300
C180
8080
8080
8080
8080
C180
4300
3E00
0800
1000
0C00
ENDCHAR
STARTCHAR 01EB
ENCODING 491
SWIDTH 576 0
DWIDTH 8 0
BBX 7 11 1 -3
BITMAP
30
6C
84
86
86
86
C4
78
10
20
30
ENDCHAR
STARTCHAR 01EC
ENCODING 492
SWIDTH 720 0
DWIDTH 10 0
BBX 9 15 1 -3
BITMAP
3E00
0000
3E00
6300
C180
8080
8080
8080
8080
C180
4300
3E00
0800
0800
0C00
ENDCHAR
STARTCHAR 01ED
ENCODING 493
SWIDTH 576 0
DWIDTH 8 0
BBX 7 12 1 -3
BITMAP
78
30
6C
84
86
86
86
C4
78
10
20
30
ENDCHAR
STARTCHAR 01EE
ENCODING 494
SWIDTH 576 0
DWIDTH 8 0
BBX 7 13 0 0
BITMAP
24
18
00
7E
04
08
10
38
0E
02
02
86
FC
ENDCHAR
STARTCHAR 01EF
ENCODING 495
SWIDTH 432 0
DWIDTH 6 0
BBX 6 14 0 -3
BITMAP
44
38
10
00
FC
08
10
20
38
04
04
04
04
F8
ENDCHAR
STARTCHAR 01F0
ENCODING 496
SWIDTH 216 0
DWIDTH 3 0
BBX 5 14 -1 -3
BITMAP
88
70
20
00
20
20
20
20
20
20
20
20
20
E0
ENDCHAR
STARTCHAR 01F1
ENCODING 497
SWIDTH 1224 0
DWIDTH 17 0
BBX 16 10 1 0
BITMAP
FC3F
C601
C302
C106
C104
C108
C118
C310
C620
FC3F
ENDCHAR
STARTCHAR 01F2
ENCODING 498
SWIDTH 1152 0
DWIDTH 16 0
BBX 15 10 1 0
BITMAP
FC00
C600
C300
C13E
C104
C10C
C108
C310
C620
FC3E
ENDCHAR
STARTCHAR 01F3
ENCODING 499
SWIDTH 1080 0
DWIDTH 15 0
BBX 14 11 1 0
BITMAP
0400
0400
0400
3400
4CF8
8418
8410
8420
8460
C440
7CFC
ENDCHAR
STARTCHAR 01F4
ENCODING 500
SWIDTH 720 0
DWIDTH 10 0
BBX 8 13 1 0
BITMAP
04
08
00
3F
61
C0
80
80
87
81
C1
61
3F
ENDCHAR
STARTCHAR 01F5
ENCODING 501
SWIDTH 576 0
DWIDTH 8 0
BBX 6 14 1 -3
BITMAP
08
10
20
30
4C
84
84
84
84
C4
7C
04
04
FC
ENDCHAR
STARTCHAR 01F6
ENCODING 502
SWIDTH 936 0
DWIDTH 13 0
BBX 11 10 1 0
BITMAP
C200
C200
C200
C220
FE20
C220
C220
C220
C260
C3C0
ENDCHAR
STARTCHAR 01F7
ENCODING 503
SWIDTH 648 0
DWIDTH 9 0
BBX 7 13 1 -3
BITMAP
BC
E2
C2
C2
C2
C2
C4
CC
D8
E0
C0
C0
C0
ENDCHAR
STARTCHAR 01F8
ENCODING 504
SWIDTH 720 0
DWIDTH 10 0
BBX 8 13 1 0
BITMAP
10
08
00
C1
E1
A1
91
D9
C9
CD
C7
C3
C3
ENDCHAR
STARTCHAR 01F9
ENCODING 505
SWIDTH 576 0
DWIDTH 8 0
BBX 6 11 1 0
BITMAP
60
30
10
18
EC
C4
84
84
84
84
84
ENDCHAR
STARTCHAR 01FA
ENCODING 506
SWIDTH 576 0
DWIDTH 8 0
BBX 9 13 0 0
BITMAP
0C00
0000
1C00
1400
1800
1400
1400
2600
2200
7E00
4100
4100
8180
ENDCHAR
STARTCHAR 01FB
ENCODING 507
SWIDTH 504 0
DWIDTH 7 0
BBX 6 13 1 0
BITMAP
18
00
70
50
30
30
48
0C
0C
FC
8C
8C
F4
ENDCHAR
STARTCHAR 01FC
ENCODING 508
SWIDTH 864 0
DWIDTH 12 0
BBX 11 13 0 0
BITMAP
0180
0300
0000
0FE0
0A00
0A00
1200
13E0
2200
3E00
4200
4200
C3E0
ENDCHAR
STARTCHAR 01FD
ENCODING 509
SWIDTH 864 0
DWIDTH 12 0
BBX 10 11 1 0
BITMAP
0200
0400
0800
3100
DEC0
0C40
0C40
FFC0
8C00
8C00
F3C0
ENDCHAR
STARTCHAR 01FE
ENCODING 510
SWIDTH 720 0
DWIDTH 10 0
BBX 9 13 1 0
BITMAP
0400
0800
0000
3F00
6300
C380
8480
8880
9880
9080
E180
6300
7E00
ENDCHAR
STARTCHAR 01FF
ENCODING 511
SWIDTH 576 0
DWIDTH 8 0
BBX 7 11 1 0
BITMAP
08
10
20
34
6C
8C
96
B6
A6
C4
F8
ENDCHAR
STARTCHAR 0200
ENCODING 512
SWIDTH 576 0
DWIDTH 8 0
BBX 9 13 0 0
BITMAP
2800
3400
0000
0800
1C00
1400
1400
2200
2200
7F00
4100
4100
8180
ENDCHAR
STARTCHAR 0201
ENCODING 513
SWIDTH 504 0
DWIDTH 7 0
BBX 6 11 1 0
BITMAP
B0
50
08
30
48
0C
0C
FC
8C
8C
F4
ENDCHAR
STARTCHAR 0202
ENCODING 514
SWIDTH 576 0
DWIDTH 8 0
BBX 9 13 0 0
BITMAP
1C00
2400
0000
0800
1C00
1400
1400
2200
2200
7F00
4100
4100
8180
ENDCHAR
STARTCHAR 0203
ENCODING 515
SWIDTH 504 0
DWIDTH 7 0
BBX 6 10 1 0
BITMAP
78
48
30
48
0C
0C
FC
8C
8C
F4
ENDCHAR
STARTCHAR 0204
ENCODING 516
SWIDTH 504 0
DWIDTH 7 0
BBX 6 13 1 0
BITMAP
D0
48
00
FC
C0
C0
C0
FC
C0
C0
C0
C0
FC
ENDCHAR
STARTCHAR 0205
ENCODING 517
SWIDTH 504 0
DWIDTH 7 0
BBX 6 11 1 0
BITMAP
B0
50
08
30
48
84
84
FC
80
C0
7C
ENDCHAR
STARTCHAR 0206
ENCODING 518
SWIDTH 504 0
DWIDTH 7 0
BBX 6 13 1 0
BITMAP
30
48
00
FC
C0
C0
C0
FC
C0
C0
C0
C0
FC
ENDCHAR
STARTCHAR 0207
ENCODING 519
SWIDTH 504 0
DWIDTH 7 0
BBX 6 10 1 0
BITMAP
78
48
30
48
84
84
FC
80
C0
7C
ENDCHAR
STARTCHAR 0208
ENCODING 520
SWIDTH 288 0
DWIDTH 4 0
BBX 4 13 0 0
BITMAP
A0
90
00
70
20
20
20
20
20
20
20
20
70
ENDCHAR
STARTCHAR 0209
ENCODING 521
SWIDTH 216 0
DWIDTH 3 0
BBX 5 11 -1 0
BITMAP
B0
D0
48
00
20
20
20
20
20
20
20
ENDCHAR
STARTCHAR 020A
ENCODING 522
SWIDTH 288 0
DWIDTH 4 0
BBX 4 13 0 0
BITMAP
70
90
00
70
20
20
20
20
20
20
20
20
70
ENDCHAR
STARTCHAR 020B
ENCODING 523
SWIDTH 216 0
DWIDTH 3 0
BBX 4 10 0 0
BITMAP
F0
10
00
40
40
40
40
40
40
40
ENDCHAR
STARTCHAR 020C
ENCODING 524
SWIDTH 720 0
DWIDTH 10 0
BBX 9 13 1 0
BITMAP
2800
1400
0000
3E00
6300
C180
8080
8080
8080
8080
C180
4300
3E00
ENDCHAR
STARTCHAR 020D
ENCODING 525
SWIDTH 576 0
DWIDTH 8 0
BBX 7 11 1 0
BITMAP
D0
50
28
30
6C
84
86
86
86
C4
78
ENDCHAR
STARTCHAR 020E
ENCODING 526
SWIDTH 720 0
DWIDTH 10 0
BBX 9 13 1 0
BITMAP
1C00
2400
0000
3E00
6300
C180
8080
8080
8080
8080
C180
4300
3E00
ENDCHAR
STARTCHAR 020F
ENCODING 527
SWIDTH 576 0
DWIDTH 8 0
BBX 7 10 1 0
BITMAP
78
40
30
6C
84
86
86
86
C4
78
ENDCHAR
STARTCHAR 0210
ENCODING 528
SWIDTH 576 0
DWIDTH 8 0
BBX 7 13 1 0
BITMAP
50
48
00
F8
C4
C6
C6
C4
F8
C8
CC
C6
C2
ENDCHAR
STARTCHAR 0211
ENCODING 529
SWIDTH 360 0
DWIDTH 5 0
BBX 6 11 0 0
BITMAP
D0
58
28
0C
58
60
40
40
40
40
40
ENDCHAR
STARTCHAR 0212
ENCODING 530
SWIDTH 576 0
DWIDTH 8 0
BBX 7 13 1 0
BITMAP
38
48
00
F8
C4
C6
C6
C4
F8
C8
CC
C6
C2
ENDCHAR
STARTCHAR 0213
ENCODING 531
SWIDTH 360 0
DWIDTH 5 0
BBX 5 10 1 0
BITMAP
70
80
18
B0
C0
80
80
80
80
80
ENDCHAR
STARTCHAR 0214
ENCODING 532
SWIDTH 720 0
DWIDTH 10 0
BBX 8 13 1 0
BITMAP
68
24
00
C1
C1
C1
C1
C1
C1
C1
C1
42
3C
ENDCHAR
STARTCHAR 0215
ENCODING 533
SWIDTH 576 0
DWIDTH 8 0
BBX 6 11 1 0
BITMAP
D0
58
28
00
84
84
84
84
84
C4
7C
ENDCHAR
STARTCHAR 0216
ENCODING 534
SWIDTH 720 0
DWIDTH 10 0
BBX 8 13 1 0
BITMAP
18
24
00
C1
C1
C1
C1
C1
C1
C1
C1
42
3C
ENDCHAR
STARTCHAR 0217
ENCODING 535
SWIDTH 576 0
DWIDTH 8 0
BBX 6 10 1 0
BITMAP
38
40
00
84
84
84
84
84
C4
7C
ENDCHAR
STARTCHAR 0218
ENCODING 536
SWIDTH 504 0
DWIDTH 7 0
BBX 6 13 1 -3
BITMAP
7C
80
80
80
60
18
0C
04
0C
F8
00
20
20
ENDCHAR
STARTCHAR 0219
ENCODING 537
SWIDTH 432 0
DWIDTH 6 0
BBX 5 11 1 -3
BITMAP
30
D8
80
C0
30
08
08
F0
00
20
20
ENDCHAR
STARTCHAR 021A
ENCODING 538
SWIDTH 504 0
DWIDTH 7 0
BBX 8 13 0 -3
BITMAP
FF
10
10
10
10
10
10
10
10
10
00
18
10
ENDCHAR
STARTCHAR 021B
ENCODING 539
SWIDTH 360 0
DWIDTH 5 0
BBX 5 12 0 -3
BITMAP
20
60
F8
60
60
60
60
60
38
00
10
20
ENDCHAR
STARTCHAR 021C
ENCODING 540
SWIDTH 504 0
DWIDTH 7 0
BBX 6 12 1 -3
BITMAP
F8
8C
04
0C
18
68
04
04
04
0C
38
E0
ENDCHAR
STARTCHAR 021D
ENCODING 541
SWIDTH 432 0
DWIDTH 6 0
BBX 6 11 0 -3
BITMAP
30
4C
04
04
18
2C
04
04
0C
18
E0
ENDCHAR
STARTCHAR 021E
ENCODING 542
SWIDTH 720 0
DWIDTH 10 0
BBX 8 13 1 0
BITMAP
24
18
00
C1
C1
C1
C1
FF
C1
C1
C1
C1
C1
ENDCHAR
STARTCHAR 021F
ENCODING 543
SWIDTH 576 0
DWIDTH 8 0
BBX 7 14 0 0
BITMAP
90
E0
00
40
40
40
4C
76
62
42
42
42
42
42
ENDCHAR
STARTCHAR 0220
ENCODING 544
SWIDTH 720 0
DWIDTH 10 0
BBX 8 13 1 -3
BITMAP
9E
E3
C1
C1
C1
C1
C1
C1
C1
C1
01
01
01
ENDCHAR
STARTCHAR 0221
ENCODING 545
SWIDTH 792 0
DWIDTH 11 0
BBX 11 12 1 -1
BITMAP
0400
0400
0400
3400
4C00
8400
8400
8400
85E0
C720
7BC0
0200
ENDCHAR
STARTCHAR 0222
ENCODING 546
SWIDTH 648 0
DWIDTH 9 0
BBX 8 10 1 0
BITMAP
C2
C2
C6
7C
7C
82
83
82
C2
7C
ENDCHAR
STARTCHAR 0223
ENCODING 547
SWIDTH 576 0
DWIDTH 8 0
BBX 7 11 1 0
BITMAP
84
84
84
C4
78
CC
84
86
86
C4
78
ENDCHAR
STARTCHAR 0224
ENCODING 548
SWIDTH 504 0
DWIDTH 7 0
BBX 6 13 1 -3
BITMAP
FC
04
08
18
10
20
60
40
80
FC
04
04
0C
ENDCHAR
STARTCHAR 0225
ENCODING 549
SWIDTH 432 0
DWIDTH 6 0
BBX 5 10 1 -3
BITMAP
F8
10
20
60
40
80
F8
08
08
10
ENDCHAR
STARTCHAR 0226
ENCODING 550
SWIDTH 576 0
DWIDTH 8 0
BBX 9 13 0 0
BITMAP
0800
0800
0000
0800
1C00
1400
1400
2200
2200
7F00
4100
4100
8180
ENDCHAR
STARTCHAR 0227
ENCODING 551
SWIDTH 504 0
DWIDTH 7 0
BBX 6 10 1 0
BITMAP
30
00
30
48
0C
0C
FC
8C
8C
F4
ENDCHAR
STARTCHAR 0228
ENCODING 552
SWIDTH 504 0
DWIDTH 7 0
BBX 6 13 1 -3
BITMAP
FC
C0
C0
C0
FC
C0
C0
C0
C0
FC
20
10
30
ENDCHAR
STARTCHAR 0229
ENCODING 553
SWIDTH 504 0
DWIDTH 7 0
BBX 6 11 1 -3
BITMAP
30
48
84
84
FC
80
C0
7C
20
18
30
ENDCHAR
STARTCHAR 022A
ENCODING 554
SWIDTH 720 0
DWIDTH 10 0
BBX 9 14 1 0
BITMAP
3C00
0000
3400
0000
3E00
6300
C180
8080
8080
8080
8080
C180
4300
3E00
ENDCHAR
STARTCHAR 022B
ENCODING 555
SWIDTH 576 0
DWIDTH 8 0
BBX 7 12 1 0
BITMAP
78
00
48
48
30
6C
84
86
86
86
C4
78
ENDCHAR
STARTCHAR 022C
ENCODING 556
SWIDTH 720 0
DWIDTH 10 0
BBX 9 14 1 0
BITMAP
3C00
0000
3C00
0000
3E00
6300
C180
8080
8080
8080
8080
C180
4300
3E00
ENDCHAR
STARTCHAR 022D
ENCODING 557
SWIDTH 576 0
DWIDTH 8 0
BBX 7 12 1 0
BITMAP
78
00
78
48
30
6C
84
86
86
86
C4
78
ENDCHAR
STARTCHAR 022E
ENCODING 558
SWIDTH 720 0
DWIDTH 10 0
BBX 9 13 1 0
BITMAP
0800
0800
0000
3E00
6300
C180
8080
8080
8080
8080
C180
4300
3E00
ENDCHAR
STARTCHAR 022F
ENCODING 559
SWIDTH 576 0
DWIDTH 8 0
BBX 7 10 1 0
BITMAP
10
00
30
6C
84
86
86
86
C4
78
ENDCHAR
STARTCHAR 0230
ENCODING 560
SWIDTH 720 0
DWIDTH 10 0
BBX 9 14 1 0
BITMAP
3C00
0000
0800
0000
3E00
6300
C180
8080
8080
8080
8080
C180
4300
3E00
ENDCHAR
STARTCHAR 0231
ENCODING 561
SWIDTH 576 0
DWIDTH 8 0
BBX 7 12 1 0
BITMAP
78
00
10
10
30
6C
84
86
86
86
C4
78
ENDCHAR
STARTCHAR 0232
ENCODING 562
SWIDTH 504 0
DWIDTH 7 0
BBX 8 12 0 0
BITMAP
3C
00
C3
42
66
24
38
18
18
18
18
18
ENDCHAR
STARTCHAR 0233
ENCODING 563
SWIDTH 504 0
DWIDTH 7 0
BBX 7 12 0 -3
BITMAP
7C
00
C6
44
44
2C
28
28
10
10
30
E0
ENDCHAR
STARTCHAR 0234
ENCODING 564
SWIDTH 360 0
DWIDTH 5 0
BBX 5 11 0 0
BITMAP
40
40
40
40
40
40
40
40
78
48
B8
ENDCHAR
STARTCHAR 0235
ENCODING 565
SWIDTH 720 0
DWIDTH 10 0
BBX 9 8 1 0
BITMAP
1800
EC00
C400
8400
8400
8780
8680
8B80
ENDCHAR
STARTCHAR 0236
ENCODING 566
SWIDTH 360 0
DWIDTH 5 0
BBX 5 9 0 0
BITMAP
20
60
F8
60
60
60
78
68
B8
ENDCHAR
STARTCHAR 0237
ENCODING 567
SWIDTH 216 0
DWIDTH 3 0
BBX 3 10 -1 -3
BITMAP
20
20
20
20
20
20
20
20
20
E0
ENDCHAR
STARTCHAR 0238
ENCODING 568
SWIDTH 936 0
DWIDTH 13 0
BBX 12 11 1 0
BITMAP
0400
0400
0400
3480
4F60
8620
8430
8430
8430
C620
79C0
ENDCHAR
STARTCHAR 0239
ENCODING 569
SWIDTH 936 0
DWIDTH 13 0
BBX 12 11 1 -3
BITMAP
3080
4B60
8620
8430
8430
8430
C620
7DE0
0400
0400
0400
ENDCHAR
STARTCHAR 023A
ENCODING 570
SWIDTH 576 0
DWIDTH 8 0
BBX 9 12 0 -1
BITMAP
0200
0A00
1C00
1400
1400
2A00
2A00
7F00
5100
5100
A180
2000
ENDCHAR
STARTCHAR 023B
ENCODING 571
SWIDTH 576 0
DWIDTH 8 0
BBX 7 12 1 -1
BITMAP
02
3E
64
C4
88
88
88
90
D0
70
3E
20
ENDCHAR
STARTCHAR 023C
ENCODING 572
SWIDTH 432 0
DWIDTH 6 0
BBX 6 14 1 -3
BITMAP
04
08
08
38
78
90
90
A0
A0
C0
78
40
80
80
ENDCHAR
STARTCHAR 023D
ENCODING 573
SWIDTH 504 0
DWIDTH 7 0
BBX 7 10 0 0
BITMAP
60
60
60
60
F8
60
60
60
60
7E
ENDCHAR
STARTCHAR 023E
ENCODING 574
SWIDTH 504 0
DWIDTH 7 0
BBX 8 12 0 -1
BITMAP
02
FF
14
14
18
18
10
10
10
30
30
40
ENDCHAR
STARTCHAR 023F
ENCODING 575
SWIDTH 432 0
DWIDTH 6 0
BBX 5 11 1 -3
BITMAP
30
D8
80
C0
30
08
08
F0
40
20
38
ENDCHAR
STARTCHAR 0240
ENCODING 576
SWIDTH 432 0
DWIDTH 6 0
BBX 5 10 1 -3
BITMAP
F8
10
20
60
40
80
C0
60
20
38
ENDCHAR
STARTCHAR 0241
ENCODING 577
SWIDTH 432 0
DWIDTH 6 0
BBX 6 10 0 0
BITMAP
F8
8C
0C
0C
08
30
20
20
20
20
ENDCHAR
STARTCHAR 0242
ENCODING 578
SWIDTH 432 0
DWIDTH 6 0
BBX 6 8 0 0
BITMAP
30
D8
0C
0C
08
18
20
20
ENDCHAR
STARTCHAR 0243
ENCODING 579
SWIDTH 648 0
DWIDTH 9 0
BBX 8 10 0 0
BITMAP
7E
63
61
63
7E
63
61
F9
63
7E
ENDCHAR
STARTCHAR 0244
ENCODING 580
SWIDTH 720 0
DWIDTH 10 0
BBX 10 10 0 0
BITMAP
6080
6080
6080
6080
FFC0
6080
6080
6080
2100
1E00
ENDCHAR
STARTCHAR 0245
ENCODING 581
SWIDTH 576 0
DWIDTH 8 0
BBX 8 10 0 0
BITMAP
08
18
14
34
24
22
42
43
41
81
ENDCHAR
STARTCHAR 0246
ENCODING 582
SWIDTH 504 0
DWIDTH 7 0
BBX 6 12 1 -1
BITMAP
08
FC
C8
C8
D0
FC
D0
D0
E0
E0
FC
20
ENDCHAR
STARTCHAR 0247
ENCODING 583
SWIDTH 504 0
DWIDTH 7 0
BBX 6 14 1 -3
BITMAP
04
08
08
38
58
94
94
FC
A0
E0
7C
40
80
80
ENDCHAR
STARTCHAR 0248
ENCODING 584
SWIDTH 216 0
DWIDTH 3 0
BBX 5 13 -1 -3
BITMAP
30
30
30
30
30
78
30
30
30
30
20
60
C0
ENDCHAR
STARTCHAR 0249
ENCODING 585
SWIDTH 216 0
DWIDTH 3 0
BBX 4 13 -1 -3
BITMAP
30
00
00
20
20
20
70
20
20
20
20
20
E0
ENDCHAR
STARTCHAR 024A
ENCODING 586
SWIDTH 720 0
DWIDTH 10 0
BBX 10 13 1 -3
BITMAP
3D00
4300
C100
8100
8100
8100
8100
C100
4300
3D00
0100
0100
01C0
ENDCHAR
STARTCHAR 024B
ENCODING 587
SWIDTH 576 0
DWIDTH 8 0
BBX 8 11 1 -3
BITMAP
30
4C
84
84
84
84
C4
7C
04
04
07
ENDCHAR
STARTCHAR 024C
ENCODING 588
SWIDTH 576 0
DWIDTH 8 0
BBX 8 10 0 0
BITMAP
7C
62
63
63
62
FC
64
66
63
61
ENDCHAR
STARTCHAR 024D
ENCODING 589
SWIDTH 360 0
DWIDTH 5 0
BBX 6 8 0 0
BITMAP
0C
58
60
40
F0
40
40
40
ENDCHAR
STARTCHAR 024E
ENCODING 590
SWIDTH 504 0
DWIDTH 7 0
BBX 8 10 0 0
BITMAP
C3
42
FF
24
38
18
18
18
18
18
ENDCHAR
STARTCHAR 024F
ENCODING 591
SWIDTH 504 0
DWIDTH 7 0
BBX 7 10 0 -3
BITMAP
C6
44
FE
2C
28
28
10
10
30
E0
ENDCHAR
STARTCHAR 0250
ENCODING 592
SWIDTH 504 0
DWIDTH 7 0
BBX 6 8 1 0
BITMAP
18
EC
C4
84
F8
80
C0
78
ENDCHAR
STARTCHAR 0251
ENCODING 593
SWIDTH 576 0
DWIDTH 8 0
BBX 7 8 1 0
BITMAP
30
4C
84
84
84
84
C4
7E
ENDCHAR
STARTCHAR 0252
ENCODING 594
SWIDTH 576 0
DWIDTH 8 0
BBX 8 8 0 0
BITMAP
C8
76
63
43
41
63
62
5E
ENDCHAR
STARTCHAR 0253
ENCODING 595
SWIDTH 576 0
DWIDTH 8 0
BBX 7 11 1 0
BITMAP
60
C0
80
90
EC
C6
86
82
C6
C4
BC
ENDCHAR
STARTCHAR 0254
ENCODING 596
SWIDTH 432 0
DWIDTH 6 0
BBX 5 8 1 0
BITMAP
40
B0
18
08
08
18
10
F0
ENDCHAR
STARTCHAR 0255
ENCODING 597
SWIDTH 504 0
DWIDTH 7 0
BBX 6 9 1 -1
BITMAP
10
68
80
80
90
EC
C4
F8
80
ENDCHAR
STARTCHAR 0256
ENCODING 598
SWIDTH 576 0
DWIDTH 8 0
BBX 8 14 1 -3
BITMAP
04
04
04
34
4C
84
84
84
84
C4
7C
04
04
07
ENDCHAR
STARTCHAR 0257
ENCODING 599
SWIDTH 576 0
DWIDTH 8 0
BBX 8 11 1 0
BITMAP
03
06
04
34
4C
84
84
84
84
C4
7C
ENDCHAR
STARTCHAR 0258
ENCODING 600
SWIDTH 504 0
DWIDTH 7 0
BBX 6 8 1 0
BITMAP
30
D8
84
84
FC
04
0C
F8
ENDCHAR
STARTCHAR 0259
ENCODING 601
SWIDTH 504 0
DWIDTH 7 0
BBX 6 8 1 0
BITMAP
60
D8
0C
04
FC
84
8C
78
ENDCHAR
STARTCHAR 025A
ENCODING 602
SWIDTH 720 0
DWIDTH 10 0
BBX 10 8 1 0
BITMAP
6000
D800
0C00
0F00
F5C0
8480
8C00
7800
ENDCHAR
STARTCHAR 025B
ENCODING 603
SWIDTH 432 0
DWIDTH 6 0
BBX 5 8 1 0
BITMAP
30
C8
80
C0
F0
80
80
F8
ENDCHAR
STARTCHAR 025C
ENCODING 604
SWIDTH 432 0
DWIDTH 6 0
BBX 6 8 0 0
BITMAP
30
4C
04
0C
38
04
04
F8
ENDCHAR
STARTCHAR 025D
ENCODING 605
SWIDTH 648 0
DWIDTH 9 0
BBX 10 8 0 0
BITMAP
3000
4C00
0700
0DC0
3800
0400
0400
F800
ENDCHAR
STARTCHAR 025E
ENCODING 606
SWIDTH 576 0
DWIDTH 8 0
BBX 7 8 1 0
BITMAP
18
6C
84
84
9C
86
C6
7C
ENDCHAR
STARTCHAR 025F
ENCODING 607
SWIDTH 216 0
DWIDTH 3 0
BBX 4 10 -1 -3
BITMAP
20
20
20
70
20
20
20
20
20
E0
ENDCHAR
STARTCHAR 0260
ENCODING 608
SWIDTH 576 0
DWIDTH 8 0
BBX 8 14 1 -3
BITMAP
03
06
04
34
4C
84
84
84
84
C4
7C
04
04
FC
ENDCHAR
STARTCHAR 0261
ENCODING 609
SWIDTH 576 0
DWIDTH 8 0
BBX 6 11 1 -3
BITMAP
30
4C
84
84
84
84
C4
7C
04
04
FC
ENDCHAR
STARTCHAR 0262
ENCODING 610
SWIDTH 504 0
DWIDTH 7 0
BBX 6 8 1 0
BITMAP
18
6C
80
80
9C
84
C4
7C
ENDCHAR
STARTCHAR 0263
ENCODING 611
SWIDTH 504 0
DWIDTH 7 0
BBX 7 10 0 -3
BITMAP
C6
44
6C
28
28
10
18
28
28
38
ENDCHAR
STARTCHAR 0264
ENCODING 612
SWIDTH 504 0
DWIDTH 7 0
BBX 7 8 0 0
BITMAP
82
44
6C
28
10
28
28
38
ENDCHAR
STARTCHAR 0265
ENCODING 613
SWIDTH 576 0
DWIDTH 8 0
BBX 6 10 1 -3
BITMAP
84
84
84
84
84
C4
7C
04
04
04
ENDCHAR
STARTCHAR 0266
ENCODING 614
SWIDTH 576 0
DWIDTH 8 0
BBX 6 11 1 0
BITMAP
60
C0
80
98
EC
C4
84
84
84
84
84
ENDCHAR
STARTCHAR 0267
ENCODING 615
SWIDTH 576 0
DWIDTH 8 0
BBX 6 14 1 -3
BITMAP
60
C0
80
98
EC
C4
84
84
84
84
84
04
04
0C
ENDCHAR
STARTCHAR 0268
ENCODING 616
SWIDTH 216 0
DWIDTH 3 0
BBX 3 10 0 0
BITMAP
60
00
00
40
40
40
E0
40
40
40
ENDCHAR
STARTCHAR 0269
ENCODING 617
SWIDTH 288 0
DWIDTH 4 0
BBX 3 7 1 0
BITMAP
80
80
80
80
80
80
60
ENDCHAR
STARTCHAR 026A
ENCODING 618
SWIDTH 288 0
DWIDTH 4 0
BBX 4 7 0 0
BITMAP
60
20
20
20
20
20
F0
ENDCHAR
STARTCHAR 026B
ENCODING 619
SWIDTH 360 0
DWIDTH 5 0
BBX 5 11 0 0
BITMAP
20
20
20
20
20
E8
B0
20
20
20
20
ENDCHAR
STARTCHAR 026C
ENCODING 620
SWIDTH 288 0
DWIDTH 4 0
BBX 5 11 0 0
BITMAP
20
20
20
20
E0
A0
F8
20
20
20
20
ENDCHAR
STARTCHAR 026D
ENCODING 621
SWIDTH 216 0
DWIDTH 3 0
BBX 3 14 1 -3
BITMAP
80
80
80
80
80
80
80
80
80
80
80
80
80
E0
ENDCHAR
STARTCHAR 026E
ENCODING 622
SWIDTH 648 0
DWIDTH 9 0
BBX 8 14 1 -3
BITMAP
80
80
80
80
FE
84
88
98
9C
82
83
03
02
7E
ENDCHAR
STARTCHAR 026F
ENCODING 623
SWIDTH 864 0
DWIDTH 12 0
BBX 11 7 1 0
BITMAP
8420
8420
8420
8420
8460
CC60
7FA0
ENDCHAR
STARTCHAR 0270
ENCODING 624
SWIDTH 864 0
DWIDTH 12 0
BBX 11 10 1 -3
BITMAP
8420
8420
8420
8420
8460
CC60
7FA0
0020
0020
0020
ENDCHAR
STARTCHAR 0271
ENCODING 625
SWIDTH 864 0
DWIDTH 12 0
BBX 11 11 1 -3
BITMAP
1080
EF60
C420
8420
8420
8420
8420
8420
0020
0020
00E0
ENDCHAR
STARTCHAR 0272
ENCODING 626
SWIDTH 576 0
DWIDTH 8 0
BBX 7 11 0 -3
BITMAP
0C
76
62
42
42
42
42
42
40
40
C0
ENDCHAR
STARTCHAR 0273
ENCODING 627
SWIDTH 576 0
DWIDTH 8 0
BBX 8 11 1 -3
BITMAP
18
EC
C4
84
84
84
84
84
04
04
03
ENDCHAR
STARTCHAR 0274
ENCODING 628
SWIDTH 576 0
DWIDTH 8 0
BBX 7 7 1 0
BITMAP
C6
A6
B6
96
9E
8A
86
ENDCHAR
STARTCHAR 0275
ENCODING 629
SWIDTH 576 0
DWIDTH 8 0
BBX 7 8 1 0
BITMAP
30
6C
84
86
FE
86
C4
78
ENDCHAR
STARTCHAR 0276
ENCODING 630
SWIDTH 864 0
DWIDTH 12 0
BBX 10 8 1 0
BITMAP
3000
6FC0
8600
8600
87C0
8600
C600
7FC0
ENDCHAR
STARTCHAR 0277
ENCODING 631
SWIDTH 720 0
DWIDTH 10 0
BBX 9 8 1 0
BITMAP
1C00
7700
C180
8880
8880
8880
8980
7700
ENDCHAR
STARTCHAR 0278
ENCODING 632
SWIDTH 720 0
DWIDTH 10 0
BBX 8 14 1 -3
BITMAP
18
18
18
18
7E
99
99
99
99
DB
7E
18
18
18
ENDCHAR
STARTCHAR 0279
ENCODING 633
SWIDTH 360 0
DWIDTH 5 0
BBX 5 7 0 0
BITMAP
18
18
18
18
18
18
E8
ENDCHAR
STARTCHAR 027A
ENCODING 634
SWIDTH 360 0
DWIDTH 5 0
BBX 5 11 0 0
BITMAP
18
18
18
18
18
18
18
18
18
18
E8
ENDCHAR
STARTCHAR 027B
ENCODING 635
SWIDTH 360 0
DWIDTH 5 0
BBX 6 10 0 -3
BITMAP
18
18
18
18
18
18
F8
18
18
0C
ENDCHAR
STARTCHAR 027C
ENCODING 636
SWIDTH 360 0
DWIDTH 5 0
BBX 5 11 1 -3
BITMAP
18
B0
C0
80
80
80
80
80
80
80
80
ENDCHAR
STARTCHAR 027D
ENCODING 637
SWIDTH 360 0
DWIDTH 5 0
BBX 5 11 1 -3
BITMAP
18
B0
C0
80
80
80
80
80
80
80
E0
ENDCHAR
STARTCHAR 027E
ENCODING 638
SWIDTH 288 0
DWIDTH 4 0
BBX 3 8 1 0
BITMAP
20
C0
80
80
80
80
80
80
ENDCHAR
STARTCHAR 027F
ENCODING 639
SWIDTH 288 0
DWIDTH 4 0
BBX 4 11 0 -3
BITMAP
40
A0
30
30
30
30
30
30
30
30
30
ENDCHAR
STARTCHAR 0280
ENCODING 640
SWIDTH 504 0
DWIDTH 7 0
BBX 6 7 1 0
BITMAP
FC
84
84
F8
98
8C
84
ENDCHAR
STARTCHAR 0281
ENCODING 641
SWIDTH 504 0
DWIDTH 7 0
BBX 6 7 1 0
BITMAP
84
88
98
FC
84
84
F8
ENDCHAR
STARTCHAR 0282
ENCODING 642
SWIDTH 432 0
DWIDTH 6 0
BBX 5 11 1 -3
BITMAP
30
D8
80
C0
30
08
08
F0
80
80
60
ENDCHAR
STARTCHAR 0283
ENCODING 643
SWIDTH 216 0
DWIDTH 3 0
BBX 4 14 0 -3
BITMAP
30
60
40
40
40
40
40
40
40
40
40
40
40
C0
ENDCHAR
STARTCHAR 0284
ENCODING 644
SWIDTH 216 0
DWIDTH 3 0
BBX 4 14 0 -3
BITMAP
30
60
40
40
40
40
40
E0
40
40
40
40
40
C0
ENDCHAR
STARTCHAR 0285
ENCODING 645
SWIDTH 216 0
DWIDTH 3 0
BBX 4 11 0 -3
BITMAP
80
40
40
40
40
40
40
40
40
40
70
ENDCHAR
STARTCHAR 0286
ENCODING 646
SWIDTH 216 0
DWIDTH 3 0
BBX 6 14 -2 -3
BITMAP
0C
18
10
10
10
10
10
10
10
10
10
78
D0
70
ENDCHAR
STARTCHAR 0287
ENCODING 647
SWIDTH 360 0
DWIDTH 5 0
BBX 5 9 0 -2
BITMAP
40
B0
10
10
10
10
10
F8
10
ENDCHAR
STARTCHAR 0288
ENCODING 648
SWIDTH 360 0
DWIDTH 5 0
BBX 5 12 0 -3
BITMAP
20
60
F8
60
60
60
60
60
60
60
60
38
ENDCHAR
STARTCHAR 0289
ENCODING 649
SWIDTH 576 0
DWIDTH 8 0
BBX 8 7 0 0
BITMAP
42
42
FF
42
42
62
3E
ENDCHAR
STARTCHAR 028A
ENCODING 650
SWIDTH 576 0
DWIDTH 8 0
BBX 8 7 0 0
BITMAP
F7
62
43
43
43
62
3C
ENDCHAR
STARTCHAR 028B
ENCODING 651
SWIDTH 576 0
DWIDTH 8 0
BBX 6 8 1 0
BITMAP
08
94
84
84
84
84
C4
78
ENDCHAR
STARTCHAR 028C
ENCODING 652
SWIDTH 504 0
DWIDTH 7 0
BBX 7 7 0 0
BITMAP
38
28
28
6C
44
44
82
ENDCHAR
STARTCHAR 028D
ENCODING 653
SWIDTH 720 0
DWIDTH 10 0
BBX 11 7 0 0
BITMAP
3180
3180
7BC0
4A40
4A40
4A40
C460
ENDCHAR
STARTCHAR 028E
ENCODING 654
SWIDTH 504 0
DWIDTH 7 0
BBX 7 11 0 0
BITMAP
06
08
10
10
30
28
28
6C
44
44
82
ENDCHAR
STARTCHAR 028F
ENCODING 655
SWIDTH 432 0
DWIDTH 6 0
BBX 6 7 0 0
BITMAP
C4
68
28
30
10
10
10
ENDCHAR
STARTCHAR 0290
ENCODING 656
SWIDTH 432 0
DWIDTH 6 0
BBX 7 10 1 -3
BITMAP
F8
10
20
60
40
80
F8
08
08
0E
ENDCHAR
STARTCHAR 0291
ENCODING 657
SWIDTH 504 0
DWIDTH 7 0
BBX 6 8 1 -1
BITMAP
F8
10
20
60
5C
B4
FC
60
ENDCHAR
STARTCHAR 0292
ENCODING 658
SWIDTH 432 0
DWIDTH 6 0
BBX 6 10 0 -3
BITMAP
FC
08
10
20
38
04
04
04
04
F8
ENDCHAR
STARTCHAR 0293
ENCODING 659
SWIDTH 432 0
DWIDTH 6 0
BBX 7 10 0 -3
BITMAP
FC
08
10
20
38
04
04
FC
8C
FA
ENDCHAR
STARTCHAR 0294
ENCODING 660
SWIDTH 360 0
DWIDTH 5 0
BBX 6 11 0 0
BITMAP
30
D8
0C
0C
08
18
20
20
20
20
20
ENDCHAR
STARTCHAR 0295
ENCODING 661
SWIDTH 360 0
DWIDTH 5 0
BBX 6 11 0 0
BITMAP
30
6C
C0
C0
40
60
10
10
10
10
10
ENDCHAR
STARTCHAR 0296
ENCODING 662
SWIDTH 360 0
DWIDTH 5 0
BBX 6 11 0 0
BITMAP
20
20
20
20
20
30
18
08
0C
08
F8
ENDCHAR
STARTCHAR 0297
ENCODING 663
SWIDTH 432 0
DWIDTH 6 0
BBX 5 11 1 -3
BITMAP
30
78
C0
80
80
80
80
80
80
C0
78
ENDCHAR
STARTCHAR 0298
ENCODING 664
SWIDTH 720 0
DWIDTH 10 0
BBX 9 10 1 0
BITMAP
3E00
6300
C180
8080
8880
8880
8080
C180
4300
3E00
ENDCHAR
STARTCHAR 0299
ENCODING 665
SWIDTH 576 0
DWIDTH 8 0
BBX 6 7 1 0
BITMAP
FC
84
8C
FC
84
84
FC
ENDCHAR
STARTCHAR 029A
ENCODING 666
SWIDTH 576 0
DWIDTH 8 0
BBX 7 8 1 0
BITMAP
30
CC
84
C6
F6
84
84
F8
ENDCHAR
STARTCHAR 029B
ENCODING 667
SWIDTH 504 0
DWIDTH 7 0
BBX 7 11 1 0
BITMAP
02
04
04
1C
6C
80
80
9C
84
C4
7C
ENDCHAR
STARTCHAR 029C
ENCODING 668
SWIDTH 576 0
DWIDTH 8 0
BBX 7 7 1 0
BITMAP
86
86
86
FE
86
86
86
ENDCHAR
STARTCHAR 029D
ENCODING 669
SWIDTH 216 0
DWIDTH 3 0
BBX 4 13 -1 -3
BITMAP
30
00
00
20
20
20
20
20
20
20
F0
A0
E0
ENDCHAR
STARTCHAR 029E
ENCODING 670
SWIDTH 504 0
DWIDTH 7 0
BBX 5 10 1 -3
BITMAP
88
48
68
38
28
48
88
08
08
08
ENDCHAR
STARTCHAR 029F
ENCODING 671
SWIDTH 432 0
DWIDTH 6 0
BBX 5 7 1 0
BITMAP
80
80
80
80
80
80
F8
ENDCHAR
STARTCHAR 02A0
ENCODING 672
SWIDTH 576 0
DWIDTH 8 0
BBX 8 14 1 -3
BITMAP
03
06
04
34
4C
84
84
84
84
C4
7C
04
04
04
ENDCHAR
STARTCHAR 02A1
ENCODING 673
SWIDTH 360 0
DWIDTH 5 0
BBX 6 11 0 0
BITMAP
30
D8
0C
0C
08
18
20
20
78
20
20
ENDCHAR
STARTCHAR 02A2
ENCODING 674
SWIDTH 360 0
DWIDTH 5 0
BBX 6 11 0 0
BITMAP
30
6C
C0
C0
40
60
10
10
78
10
10
ENDCHAR
STARTCHAR 02A3
ENCODING 675
SWIDTH 936 0
DWIDTH 13 0
BBX 12 11 1 0
BITMAP
0400
0400
0400
3400
4FF0
8420
8440
84C0
8480
C500
7FF0
ENDCHAR
STARTCHAR 02A4
ENCODING 676
SWIDTH 936 0
DWIDTH 13 0
BBX 12 14 1 -3
BITMAP
0400
0400
0400
3400
4FF0
8420
8440
8480
85E0
C430
7C10
0010
0030
03E0
ENDCHAR
STARTCHAR 02A5
ENCODING 677
SWIDTH 1008 0
DWIDTH 14 0
BBX 13 12 1 -1
BITMAP
0400
0400
0400
3400
4FF0
8420
8440
84C0
84B8
C548
7FF8
0080
ENDCHAR
STARTCHAR 02A6
ENCODING 678
SWIDTH 720 0
DWIDTH 10 0
BBX 10 9 0 0
BITMAP
2000
6300
FEC0
6400
6600
6180
6040
6040
3F80
ENDCHAR
STARTCHAR 02A7
ENCODING 679
SWIDTH 504 0
DWIDTH 7 0
BBX 7 14 0 -3
BITMAP
02
04
24
64
FC
64
64
64
64
64
3C
04
04
1C
ENDCHAR
STARTCHAR 02A8
ENCODING 680
SWIDTH 792 0
DWIDTH 11 0
BBX 11 9 0 0
BITMAP
2000
60C0
FBE0
6200
6600
6640
63E0
6620
3DE0
ENDCHAR
STARTCHAR 02A9
ENCODING 681
SWIDTH 792 0
DWIDTH 11 0
BBX 11 14 0 -3
BITMAP
1800
2000
2000
2180
FE60
2420
2420
2420
2420
2420
2420
0020
0020
00E0
ENDCHAR
STARTCHAR 02AA
ENCODING 682
SWIDTH 648 0
DWIDTH 9 0
BBX 8 11 1 0
BITMAP
80
80
80
8C
B2
A0
98
8E
83
C3
FE
ENDCHAR
STARTCHAR 02AB
ENCODING 683
SWIDTH 576 0
DWIDTH 8 0
BBX 7 11 1 0
BITMAP
80
80
80
80
FE
84
88
98
90
A0
FE
ENDCHAR
STARTCHAR 02AC
ENCODING 684
SWIDTH 504 0
DWIDTH 7 0
BBX 7 10 0 0
BITMAP
92
B2
6C
6C
44
92
92
6C
6C
6C
ENDCHAR
STARTCHAR 02AD
ENCODING 685
SWIDTH 576 0
DWIDTH 8 0
BBX 6 10 1 0
BITMAP
FC
84
84
00
00
00
00
FC
84
84
ENDCHAR
STARTCHAR 02AE
ENCODING 686
SWIDTH 576 0
DWIDTH 8 0
BBX 8 11 0 -3
BITMAP
80
43
43
43
43
43
63
3F
03
03
03
ENDCHAR
STARTCHAR 02AF
ENCODING 687
SWIDTH 576 0
DWIDTH 8 0
BBX 9 11 0 -3
BITMAP
8000
4300
4300
4300
4300
4300
6300
3F00
0300
0300
0180
ENDCHAR
STARTCHAR 02B0
ENCODING 688
SWIDTH 360 0
DWIDTH 5 0
BBX 4 6 1 4
BITMAP
80
A0
D0
90
90
90
ENDCHAR
STARTCHAR 02B1
ENCODING 689
SWIDTH 360 0
DWIDTH 5 0
BBX 4 6 1 4
BITMAP
80
A0
D0
90
90
90
ENDCHAR
STARTCHAR 02B2
ENCODING 690
SWIDTH 144 0
DWIDTH 2 0
BBX 3 8 -1 2
BITMAP
20
00
20
20
20
20
20
C0
ENDCHAR
STARTCHAR 02B3
ENCODING 691
SWIDTH 216 0
DWIDTH 3 0
BBX 3 5 1 4
BITMAP
20
C0
80
80
80
ENDCHAR
STARTCHAR 02B4
ENCODING 692
SWIDTH 216 0
DWIDTH 3 0
BBX 3 4 0 4
BITMAP
20
20
20
E0
ENDCHAR
STARTCHAR 02B5
ENCODING 693
SWIDTH 216 0
DWIDTH 3 0
BBX 4 6 0 2
BITMAP
20
20
20
E0
20
30
ENDCHAR
STARTCHAR 02B6
ENCODING 694
SWIDTH 360 0
DWIDTH 5 0
BBX 4 4 1 4
BITMAP
A0
E0
90
E0
ENDCHAR
STARTCHAR 02B7
ENCODING 695
SWIDTH 504 0
DWIDTH 7 0
BBX 7 4 0 4
BITMAP
B2
AC
6C
64
ENDCHAR
STARTCHAR 02B8
ENCODING 696
SWIDTH 288 0
DWIDTH 4 0
BBX 4 6 0 2
BITMAP
90
50
60
20
20
C0
ENDCHAR
STARTCHAR 02B9
ENCODING 697
SWIDTH 144 0
DWIDTH 2 0
BBX 2 3 0 7
BITMAP
40
40
80
ENDCHAR
STARTCHAR 02BA
ENCODING 698
SWIDTH 288 0
DWIDTH 4 0
BBX 5 3 0 7
BITMAP
58
50
90
ENDCHAR
STARTCHAR 02BB
ENCODING 699
SWIDTH 144 0
DWIDTH 2 0
BBX 2 3 0 7
BITMAP
40
40
C0
ENDCHAR
STARTCHAR 02BC
ENCODING 700
SWIDTH 144 0
DWIDTH 2 0
BBX 2 3 0 7
BITMAP
40
40
80
ENDCHAR
STARTCHAR 02BD
ENCODING 701
SWIDTH 144 0
DWIDTH 2 0
BBX 2 3 0 7
BITMAP
C0
40
40
ENDCHAR
STARTCHAR 02BE
ENCODING 702
SWIDTH 144 0
DWIDTH 2 0
BBX 2 3 0 8
BITMAP
C0
40
C0
ENDCHAR
STARTCHAR 02BF
ENCODING 703
SWIDTH 144 0
DWIDTH 2 0
BBX 2 3 0 8
BITMAP
40
80
40
ENDCHAR
STARTCHAR 02C0
ENCODING 704
SWIDTH 288 0
DWIDTH 4 0
BBX 3 5 1 6
BITMAP
C0
20
20
C0
80
ENDCHAR
STARTCHAR 02C1
ENCODING 705
SWIDTH 288 0
DWIDTH 4 0
BBX 3 5 0 6
BITMAP
60
80
80
60
20
ENDCHAR
STARTCHAR 02C2
ENCODING 706
SWIDTH 216 0
DWIDTH 3 0
BBX 3 3 1 7
BITMAP
20
C0
C0
ENDCHAR
STARTCHAR 02C3
ENCODING 707
SWIDTH 216 0
DWIDTH 3 0
BBX 3 3 0 7
BITMAP
80
60
60
ENDCHAR
STARTCHAR 02C4
ENCODING 708
SWIDTH 216 0
DWIDTH 3 0
BBX 3 2 0 9
BITMAP
60
A0
ENDCHAR
STARTCHAR 02C5
ENCODING 709
SWIDTH 216 0
DWIDTH 3 0
BBX 3 3 0 8
BITMAP
80
A0
60
ENDCHAR
STARTCHAR 02C6
ENCODING 710
SWIDTH 360 0
DWIDTH 5 0
BBX 4 3 1 8
BITMAP
60
E0
90
ENDCHAR
STARTCHAR 02C7
ENCODING 711
SWIDTH 360 0
DWIDTH 5 0
BBX 4 3 1 8
BITMAP
90
E0
60
ENDCHAR
STARTCHAR 02C8
ENCODING 712
SWIDTH 144 0
DWIDTH 2 0
BBX 1 4 1 7
BITMAP
80
80
80
80
ENDCHAR
STARTCHAR 02C9
ENCODING 713
SWIDTH 360 0
DWIDTH 5 0
BBX 4 1 1 8
BITMAP
F0
ENDCHAR
STARTCHAR 02CA
ENCODING 714
SWIDTH 216 0
DWIDTH 3 0
BBX 2 2 1 8
BITMAP
40
C0
ENDCHAR
STARTCHAR 02CB
ENCODING 715
SWIDTH 216 0
DWIDTH 3 0
BBX 2 3 1 8
BITMAP
80
C0
40
ENDCHAR
STARTCHAR 02CC
ENCODING 716
SWIDTH 144 0
DWIDTH 2 0
BBX 1 4 1 -3
BITMAP
80
80
80
80
ENDCHAR
STARTCHAR 02CD
ENCODING 717
SWIDTH 360 0
DWIDTH 5 0
BBX 4 1 1 -2
BITMAP
F0
ENDCHAR
STARTCHAR 02CE
ENCODING 718
SWIDTH 216 0
DWIDTH 3 0
BBX 2 2 1 -3
BITMAP
C0
40
ENDCHAR
STARTCHAR 02CF
ENCODING 719
SWIDTH 216 0
DWIDTH 3 0
BBX 2 2 1 -3
BITMAP
C0
80
ENDCHAR
STARTCHAR 02D0
ENCODING 720
SWIDTH 288 0
DWIDTH 4 0
BBX 2 7 1 0
BITMAP
C0
00
00
00
00
40
C0
ENDCHAR
STARTCHAR 02D1
ENCODING 721
SWIDTH 288 0
DWIDTH 4 0
BBX 2 1 1 6
BITMAP
C0
ENDCHAR
STARTCHAR 02D2
ENCODING 722
SWIDTH 144 0
DWIDTH 2 0
BBX 1 2 1 4
BITMAP
80
80
ENDCHAR
STARTCHAR 02D3
ENCODING 723
SWIDTH 144 0
DWIDTH 2 0
BBX 1 3 1 3
BITMAP
80
80
80
ENDCHAR
STARTCHAR 02D4
ENCODING 724
SWIDTH 216 0
DWIDTH 3 0
BBX 3 2 0 3
BITMAP
40
E0
ENDCHAR
STARTCHAR 02D5
ENCODING 725
SWIDTH 216 0
DWIDTH 3 0
BBX 2 2 1 3
BITMAP
C0
80
ENDCHAR
STARTCHAR 02D6
ENCODING 726
SWIDTH 216 0
DWIDTH 3 0
BBX 3 3 0 3
BITMAP
40
E0
40
ENDCHAR
STARTCHAR 02D7
ENCODING 727
SWIDTH 288 0
DWIDTH 4 0
BBX 4 1 0 4
BITMAP
F0
ENDCHAR
STARTCHAR 02D8
ENCODING 728
SWIDTH 360 0
DWIDTH 5 0
BBX 4 2 1 8
BITMAP
B0
40
ENDCHAR
STARTCHAR 02D9
ENCODING 729
SWIDTH 144 0
DWIDTH 2 0
BBX 1 1 1 9
BITMAP
80
ENDCHAR
STARTCHAR 02DA
ENCODING 730
SWIDTH 288 0
DWIDTH 4 0
BBX 3 3 1 8
BITMAP
E0
A0
40
ENDCHAR
STARTCHAR 02DB
ENCODING 731
SWIDTH 216 0
DWIDTH 3 0
BBX 2 3 1 -3
BITMAP
80
80
C0
ENDCHAR
STARTCHAR 02DC
ENCODING 732
SWIDTH 432 0
DWIDTH 6 0
BBX 4 2 1 8
BITMAP
F0
10
ENDCHAR
STARTCHAR 02DD
ENCODING 733
SWIDTH 432 0
DWIDTH 6 0
BBX 5 3 1 8
BITMAP
58
90
20
ENDCHAR
STARTCHAR 02DE
ENCODING 734
SWIDTH 216 0
DWIDTH 3 0
BBX 5 3 -2 2
BITMAP
E0
38
18
ENDCHAR
STARTCHAR 02DF
ENCODING 735
SWIDTH 216 0
DWIDTH 3 0
BBX 2 2 1 9
BITMAP
C0
C0
ENDCHAR
STARTCHAR 02E0
ENCODING 736
SWIDTH 288 0
DWIDTH 4 0
BBX 4 6 0 2
BITMAP
90
50
60
20
60
60
ENDCHAR
STARTCHAR 02E1
ENCODING 737
SWIDTH 144 0
DWIDTH 2 0
BBX 1 6 1 4
BITMAP
80
80
80
80
80
80
ENDCHAR
STARTCHAR 02E2
ENCODING 738
SWIDTH 288 0
DWIDTH 4 0
BBX 4 5 0 4
BITMAP
20
C0
60
10
F0
ENDCHAR
STARTCHAR 02E3
ENCODING 739
SWIDTH 288 0
DWIDTH 4 0
BBX 4 4 0 4
BITMAP
50
20
60
90
ENDCHAR
STARTCHAR 02E4
ENCODING 740
SWIDTH 216 0
DWIDTH 3 0
BBX 4 6 0 4
BITMAP
F0
80
40
20
20
20
ENDCHAR
STARTCHAR 02E5
ENCODING 741
SWIDTH 360 0
DWIDTH 5 0
BBX 4 10 1 0
BITMAP
F0
10
10
10
10
10
10
10
10
10
ENDCHAR
STARTCHAR 02E6
ENCODING 742
SWIDTH 360 0
DWIDTH 5 0
BBX 4 10 1 0
BITMAP
10
10
10
F0
10
10
10
10
10
10
ENDCHAR
STARTCHAR 02E7
ENCODING 743
SWIDTH 360 0
DWIDTH 5 0
BBX 3 10 2 0
BITMAP
20
20
20
20
20
E0
20
20
20
20
ENDCHAR
STARTCHAR 02E8
ENCODING 744
SWIDTH 360 0
DWIDTH 5 0
BBX 4 10 1 0
BITMAP
10
10
10
10
10
10
10
F0
10
10
ENDCHAR
STARTCHAR 02E9
ENCODING 745
SWIDTH 360 0
DWIDTH 5 0
BBX 4 10 1 0
BITMAP
10
10
10
10
10
10
10
10
10
F0
ENDCHAR
STARTCHAR 02EA
ENCODING 746
SWIDTH 360 0
DWIDTH 5 0
BBX 4 5 1 2
BITMAP
80
80
80
80
F0
ENDCHAR
STARTCHAR 02EB
ENCODING 747
SWIDTH 360 0
DWIDTH 5 0
BBX 4 5 1 2
BITMAP
80
80
F0
80
80
ENDCHAR
STARTCHAR 02EC
ENCODING 748
SWIDTH 360 0
DWIDTH 5 0
BBX 4 2 1 -3
BITMAP
F0
60
ENDCHAR
STARTCHAR 02ED
ENCODING 749
SWIDTH 432 0
DWIDTH 6 0
BBX 5 3 1 8
BITMAP
F8
00
F8
ENDCHAR
STARTCHAR 02EE
ENCODING 750
SWIDTH 288 0
DWIDTH 4 0
BBX 5 3 0 7
BITMAP
58
50
90
ENDCHAR
STARTCHAR 02EF
ENCODING 751
SWIDTH 360 0
DWIDTH 5 0
BBX 4 3 1 -3
BITMAP
90
A0
60
ENDCHAR
STARTCHAR 02F0
ENCODING 752
SWIDTH 360 0
DWIDTH 5 0
BBX 4 3 1 -3
BITMAP
40
60
90
ENDCHAR
STARTCHAR 02F1
ENCODING 753
SWIDTH 288 0
DWIDTH 4 0
BBX 3 3 1 -3
BITMAP
60
80
60
ENDCHAR
STARTCHAR 02F2
ENCODING 754
SWIDTH 288 0
DWIDTH 4 0
BBX 3 3 1 -3
BITMAP
80
60
C0
ENDCHAR
STARTCHAR 02F3
ENCODING 755
SWIDTH 288 0
DWIDTH 4 0
BBX 3 3 1 -4
BITMAP
E0
A0
C0
ENDCHAR
STARTCHAR 02F4
ENCODING 756
SWIDTH 216 0
DWIDTH 3 0
BBX 2 2 1 4
BITMAP
80
40
ENDCHAR
STARTCHAR 02F5
ENCODING 757
SWIDTH 432 0
DWIDTH 6 0
BBX 4 2 1 4
BITMAP
B0
50
ENDCHAR
STARTCHAR 02F6
ENCODING 758
SWIDTH 432 0
DWIDTH 6 0
BBX 4 2 1 4
BITMAP
D0
A0
ENDCHAR
STARTCHAR 02F7
ENCODING 759
SWIDTH 432 0
DWIDTH 6 0
BBX 5 2 1 -3
BITMAP
E8
10
ENDCHAR
STARTCHAR 02F8
ENCODING 760
SWIDTH 216 0
DWIDTH 3 0
BBX 2 8 1 3
BITMAP
80
C0
00
00
00
00
80
C0
ENDCHAR
STARTCHAR 02F9
ENCODING 761
SWIDTH 216 0
DWIDTH 3 0
BBX 2 2 1 6
BITMAP
C0
80
ENDCHAR
STARTCHAR 02FA
ENCODING 762
SWIDTH 216 0
DWIDTH 3 0
BBX 2 2 1 6
BITMAP
C0
40
ENDCHAR
STARTCHAR 02FB
ENCODING 763
SWIDTH 216 0
DWIDTH 3 0
BBX 2 3 1 0
BITMAP
80
80
C0
ENDCHAR
STARTCHAR 02FC
ENCODING 764
SWIDTH 216 0
DWIDTH 3 0
BBX 2 3 1 0
BITMAP
40
40
C0
ENDCHAR
STARTCHAR 02FD
ENCODING 765
SWIDTH 504 0
DWIDTH 7 0
BBX 6 2 1 -3
BITMAP
84
FC
ENDCHAR
STARTCHAR 02FE
ENCODING 766
SWIDTH 504 0
DWIDTH 7 0
BBX 6 2 1 -3
BITMAP
80
FC
ENDCHAR
STARTCHAR 02FF
ENCODING 767
SWIDTH 504 0
DWIDTH 7 0
BBX 6 4 1 -3
BITMAP
20
C0
FC
60
ENDCHAR
STARTCHAR 0300
ENCODING 768
SWIDTH 0 0
DWIDTH 0 0
BBX 3 3 -7 8
BITMAP
C0
40
20
ENDCHAR
STARTCHAR 0301
ENCODING 769
SWIDTH 0 0
DWIDTH 0 0
BBX 3 3 -5 8
BITMAP
20
40
80
ENDCHAR
STARTCHAR 0302
ENCODING 770
SWIDTH 0 0
DWIDTH 0 0
BBX 4 3 -2 8
BITMAP
60
70
90
ENDCHAR
STARTCHAR 0303
ENCODING 771
SWIDTH 0 0
DWIDTH 0 0
BBX 5 2 -7 8
BITMAP
68
90
ENDCHAR
STARTCHAR 0304
ENCODING 772
SWIDTH 0 0
DWIDTH 0 0
BBX 4 1 -2 8
BITMAP
F0
ENDCHAR
STARTCHAR 0305
ENCODING 773
SWIDTH 0 0
DWIDTH 0 0
BBX 6 1 -3 11
BITMAP
FC
ENDCHAR
STARTCHAR 0306
ENCODING 774
SWIDTH 0 0
DWIDTH 0 0
BBX 4 2 -2 8
BITMAP
90
60
ENDCHAR
STARTCHAR 0307
ENCODING 775
SWIDTH 0 0
DWIDTH 0 0
BBX 2 1 -1 9
BITMAP
C0
ENDCHAR
STARTCHAR 0308
ENCODING 776
SWIDTH 0 0
DWIDTH 0 0
BBX 4 1 -2 9
BITMAP
90
ENDCHAR
STARTCHAR 0309
ENCODING 777
SWIDTH 0 0
DWIDTH 0 0
BBX 2 3 -5 8
BITMAP
C0
40
80
ENDCHAR
STARTCHAR 030A
ENCODING 778
SWIDTH 0 0
DWIDTH 0 0
BBX 4 3 -2 8
BITMAP
E0
90
60
ENDCHAR
STARTCHAR 030B
ENCODING 779
SWIDTH 0 0
DWIDTH 0 0
BBX 5 3 -2 8
BITMAP
68
50
80
ENDCHAR
STARTCHAR 030C
ENCODING 780
SWIDTH 0 0
DWIDTH 0 0
BBX 4 3 -2 8
BITMAP
90
60
60
ENDCHAR
STARTCHAR 030D
ENCODING 781
SWIDTH 0 0
DWIDTH 0 0
BBX 2 3 -1 8
BITMAP
C0
C0
C0
ENDCHAR
STARTCHAR 030E
ENCODING 782
SWIDTH 0 0
DWIDTH 0 0
BBX 4 3 -2 8
BITMAP
90
90
90
ENDCHAR
STARTCHAR 030F
ENCODING 783
SWIDTH 0 0
DWIDTH 0 0
BBX 5 3 -7 8
BITMAP
B0
50
08
ENDCHAR
STARTCHAR 0310
ENCODING 784
SWIDTH 0 0
DWIDTH 0 0
BBX 4 4 -2 8
BITMAP
60
60
90
60
ENDCHAR
STARTCHAR 0311
ENCODING 785
SWIDTH 0 0
DWIDTH 0 0
BBX 4 2 -2 8
BITMAP
F0
90
ENDCHAR
STARTCHAR 0312
ENCODING 786
SWIDTH 0 0
DWIDTH 0 0
BBX 2 3 -1 7
BITMAP
40
40
80
ENDCHAR
STARTCHAR 0313
ENCODING 787
SWIDTH 0 0
DWIDTH 0 0
BBX 2 3 -1 7
BITMAP
40
C0
80
ENDCHAR
STARTCHAR 0314
ENCODING 788
SWIDTH 0 0
DWIDTH 0 0
BBX 2 3 -1 7
BITMAP
80
C0
40
ENDCHAR
STARTCHAR 0315
ENCODING 789
SWIDTH 0 0
DWIDTH 0 0
BBX 2 3 -1 7
BITMAP
40
C0
80
ENDCHAR
STARTCHAR 0316
ENCODING 790
SWIDTH 0 0
DWIDTH 0 0
BBX 2 2 -1 -3
BITMAP
C0
40
ENDCHAR
STARTCHAR 0317
ENCODING 791
SWIDTH 0 0
DWIDTH 0 0
BBX 2 2 -1 -3
BITMAP
C0
80
ENDCHAR
STARTCHAR 0318
ENCODING 792
SWIDTH 0 0
DWIDTH 0 0
BBX 2 3 -1 -3
BITMAP
40
C0
40
ENDCHAR
STARTCHAR 0319
ENCODING 793
SWIDTH 0 0
DWIDTH 0 0
BBX 2 3 -1 -3
BITMAP
80
C0
80
ENDCHAR
STARTCHAR 031A
ENCODING 794
SWIDTH 0 0
DWIDTH 0 0
BBX 3 3 -1 10
BITMAP
E0
20
20
ENDCHAR
STARTCHAR 031B
ENCODING 795
SWIDTH 0 0
DWIDTH 0 0
BBX 2 3 -1 8
BITMAP
40
40
C0
ENDCHAR
STARTCHAR 031C
ENCODING 796
SWIDTH 0 0
DWIDTH 0 0
BBX 2 3 -1 -3
BITMAP
40
80
C0
ENDCHAR
STARTCHAR 031D
ENCODING 797
SWIDTH 0 0
DWIDTH 0 0
BBX 2 2 -1 -3
BITMAP
80
C0
ENDCHAR
STARTCHAR 031E
ENCODING 798
SWIDTH 0 0
DWIDTH 0 0
BBX 2 1 -1 -3
BITMAP
C0
ENDCHAR
STARTCHAR 031F
ENCODING 799
SWIDTH 0 0
DWIDTH 0 0
BBX 2 2 -1 -2
BITMAP
C0
80
ENDCHAR
STARTCHAR 0320
ENCODING 800
SWIDTH 0 0
DWIDTH 0 0
BBX 4 1 -2 -2
BITMAP
F0
ENDCHAR
STARTCHAR 0321
ENCODING 801
SWIDTH 0 0
DWIDTH 0 0
BBX 2 4 -2 -3
BITMAP
40
40
40
C0
ENDCHAR
STARTCHAR 0322
ENCODING 802
SWIDTH 0 0
DWIDTH 0 0
BBX 2 4 0 -3
BITMAP
80
80
80
C0
ENDCHAR
STARTCHAR 0323
ENCODING 803
SWIDTH 0 0
DWIDTH 0 0
BBX 2 1 -5 -2
BITMAP
C0
ENDCHAR
STARTCHAR 0324
ENCODING 804
SWIDTH 0 0
DWIDTH 0 0
BBX 4 1 -2 -2
BITMAP
90
ENDCHAR
STARTCHAR 0325
ENCODING 805
SWIDTH 0 0
DWIDTH 0 0
BBX 4 3 -2 -3
BITMAP
60
90
60
ENDCHAR
STARTCHAR 0326
ENCODING 806
SWIDTH 0 0
DWIDTH 0 0
BBX 2 2 -1 -3
BITMAP
40
80
ENDCHAR
STARTCHAR 0327
ENCODING 807
SWIDTH 0 0
DWIDTH 0 0
BBX 2 3 -1 -3
BITMAP
80
40
C0
ENDCHAR
STARTCHAR 0328
ENCODING 808
SWIDTH 0 0
DWIDTH 0 0
BBX 2 3 -1 -3
BITMAP
80
80
C0
ENDCHAR
STARTCHAR 0329
ENCODING 809
SWIDTH 0 0
DWIDTH 0 0
BBX 2 2 -1 -3
BITMAP
C0
C0
ENDCHAR
STARTCHAR 032A
ENCODING 810
SWIDTH 0 0
DWIDTH 0 0
BBX 4 2 -2 -3
BITMAP
F0
90
ENDCHAR
STARTCHAR 032B
ENCODING 811
SWIDTH 0 0
DWIDTH 0 0
BBX 6 1 -3 -2
BITMAP
FC
ENDCHAR
STARTCHAR 032C
ENCODING 812
SWIDTH 0 0
DWIDTH 0 0
BBX 4 2 -2 -3
BITMAP
F0
60
ENDCHAR
STARTCHAR 032D
ENCODING 813
SWIDTH 0 0
DWIDTH 0 0
BBX 4 2 -2 -3
BITMAP
60
90
ENDCHAR
STARTCHAR 032E
ENCODING 814
SWIDTH 0 0
DWIDTH 0 0
BBX 4 2 -2 -3
BITMAP
90
60
ENDCHAR
STARTCHAR 032F
ENCODING 815
SWIDTH 0 0
DWIDTH 0 0
BBX 4 2 -2 -3
BITMAP
F0
90
ENDCHAR
STARTCHAR 0330
ENCODING 816
SWIDTH 0 0
DWIDTH 0 0
BBX 5 2 -3 -3
BITMAP
78
80
ENDCHAR
STARTCHAR 0331
ENCODING 817
SWIDTH 0 0
DWIDTH 0 0
BBX 4 1 -2 -2
BITMAP
F0
ENDCHAR
STARTCHAR 0332
ENCODING 818
SWIDTH 0 0
DWIDTH 0 0
BBX 6 1 -3 -2
BITMAP
FC
ENDCHAR
STARTCHAR 0333
ENCODING 819
SWIDTH 0 0
DWIDTH 0 0
BBX 6 3 -3 -3
BITMAP
FC
00
FC
ENDCHAR
STARTCHAR 0334
ENCODING 820
SWIDTH 0 0
DWIDTH 0 0
BBX 5 2 -2 3
BITMAP
C8
B0
ENDCHAR
STARTCHAR 0335
ENCODING 821
SWIDTH 0 0
DWIDTH 0 0
BBX 6 1 -3 4
BITMAP
FC
ENDCHAR
STARTCHAR 0336
ENCODING 822
SWIDTH 0 0
DWIDTH 0 0
BBX 10 1 -5 3
BITMAP
FFC0
ENDCHAR
STARTCHAR 0337
ENCODING 823
SWIDTH 0 0
DWIDTH 0 0
BBX 4 2 -2 4
BITMAP
30
C0
ENDCHAR
STARTCHAR 0338
ENCODING 824
SWIDTH 0 0
DWIDTH 0 0
BBX 6 12 -3 -1
BITMAP
04
08
08
08
10
10
20
20
20
40
40
80
ENDCHAR
STARTCHAR 0339
ENCODING 825
SWIDTH 0 0
DWIDTH 0 0
BBX 2 3 -1 -3
BITMAP
80
40
C0
ENDCHAR
STARTCHAR 033A
ENCODING 826
SWIDTH 0 0
DWIDTH 0 0
BBX 4 2 -2 -3
BITMAP
90
F0
ENDCHAR
STARTCHAR 033B
ENCODING 827
SWIDTH 0 0
DWIDTH 0 0
BBX 6 3 -3 -3
BITMAP
FC
84
FC
ENDCHAR
STARTCHAR 033C
ENCODING 828
SWIDTH 0 0
DWIDTH 0 0
BBX 4 1 -2 -2
BITMAP
F0
ENDCHAR
STARTCHAR 033D
ENCODING 829
SWIDTH 0 0
DWIDTH 0 0
BBX 2 2 -1 9
BITMAP
C0
C0
ENDCHAR
STARTCHAR 033E
ENCODING 830
SWIDTH 0 0
DWIDTH 0 0
BBX 2 4 -1 8
BITMAP
C0
80
40
C0
ENDCHAR
STARTCHAR 033F
ENCODING 831
SWIDTH 0 0
DWIDTH 0 0
BBX 6 2 -3 11
BITMAP
FC
FC
ENDCHAR
STARTCHAR 0340
ENCODING 832
SWIDTH 0 0
DWIDTH 0 0
BBX 3 3 -2 8
BITMAP
80
40
20
ENDCHAR
STARTCHAR 0341
ENCODING 833
SWIDTH 0 0
DWIDTH 0 0
BBX 3 3 -1 8
BITMAP
20
40
80
ENDCHAR
STARTCHAR 0342
ENCODING 834
SWIDTH 0 0
DWIDTH 0 0
BBX 5 2 -3 8
BITMAP
78
80
ENDCHAR
STARTCHAR 0343
ENCODING 835
SWIDTH 0 0
DWIDTH 0 0
BBX 2 2 -1 8
BITMAP
C0
40
ENDCHAR
STARTCHAR 0344
ENCODING 836
SWIDTH 0 0
DWIDTH 0 0
BBX 5 3 -2 8
BITMAP
20
B8
40
ENDCHAR
STARTCHAR 0345
ENCODING 837
SWIDTH 0 0
DWIDTH 0 0
BBX 1 2 0 -3
BITMAP
80
80
ENDCHAR
STARTCHAR 0346
ENCODING 838
SWIDTH 0 0
DWIDTH 0 0
BBX 6 3 -3 8
BITMAP
FC
84
84
ENDCHAR
STARTCHAR 0347
ENCODING 839
SWIDTH 0 0
DWIDTH 0 0
BBX 6 3 -3 -3
BITMAP
FC
00
FC
ENDCHAR
STARTCHAR 0348
ENCODING 840
SWIDTH 0 0
DWIDTH 0 0
BBX 4 2 -2 -3
BITMAP
90
90
ENDCHAR
STARTCHAR 0349
ENCODING 841
SWIDTH 0 0
DWIDTH 0 0
BBX 2 2 -1 -3
BITMAP
C0
40
ENDCHAR
STARTCHAR 034A
ENCODING 842
SWIDTH 0 0
DWIDTH 0 0
BBX 5 3 -3 8
BITMAP
10
78
A0
ENDCHAR
STARTCHAR 034B
ENCODING 843
SWIDTH 0 0
DWIDTH 0 0
BBX 4 5 -2 8
BITMAP
60
00
F0
00
60
ENDCHAR
STARTCHAR 034C
ENCODING 844
SWIDTH 0 0
DWIDTH 0 0
BBX 4 4 -2 8
BITMAP
D0
30
D0
20
ENDCHAR
STARTCHAR 034D
ENCODING 845
SWIDTH 0 0
DWIDTH 0 0
BBX 4 2 -2 -2
BITMAP
F0
A0
ENDCHAR
STARTCHAR 034E
ENCODING 846
SWIDTH 0 0
DWIDTH 0 0
BBX 2 2 -1 -2
BITMAP
C0
80
ENDCHAR
STARTCHAR 034F
ENCODING 847
SWIDTH 0 0
DWIDTH 0 0
BBX 10 10 -5 0
BITMAP
CCC0
8040
0000
0000
8040
8040
2000
0000
8040
CCC0
ENDCHAR
STARTCHAR 0350
ENCODING 848
SWIDTH 0 0
DWIDTH 0 0
BBX 2 3 -1 8
BITMAP
80
40
80
ENDCHAR
STARTCHAR 0351
ENCODING 849
SWIDTH 0 0
DWIDTH 0 0
BBX 2 3 -1 8
BITMAP
40
80
40
ENDCHAR
STARTCHAR 0352
ENCODING 850
SWIDTH 0 0
DWIDTH 0 0
BBX 4 3 -2 8
BITMAP
60
90
60
ENDCHAR
STARTCHAR 0353
ENCODING 851
SWIDTH 0 0
DWIDTH 0 0
BBX 2 2 -1 -2
BITMAP
C0
C0
ENDCHAR
STARTCHAR 0354
ENCODING 852
SWIDTH 0 0
DWIDTH 0 0
BBX 2 2 -1 -3
BITMAP
C0
C0
ENDCHAR
STARTCHAR 0355
ENCODING 853
SWIDTH 0 0
DWIDTH 0 0
BBX 2 2 -1 -3
BITMAP
C0
C0
ENDCHAR
STARTCHAR 0356
ENCODING 854
SWIDTH 0 0
DWIDTH 0 0
BBX 4 2 -2 -3
BITMAP
D0
B0
ENDCHAR
STARTCHAR 0357
ENCODING 855
SWIDTH 0 0
DWIDTH 0 0
BBX 2 3 -1 8
BITMAP
C0
40
80
ENDCHAR
STARTCHAR 0358
ENCODING 856
SWIDTH 0 0
DWIDTH 0 0
BBX 1 1 2 9
BITMAP
80
ENDCHAR
STARTCHAR 0359
ENCODING 857
SWIDTH 0 0
DWIDTH 0 0
BBX 2 2 -1 -3
BITMAP
C0
C0
ENDCHAR
STARTCHAR 035A
ENCODING 858
SWIDTH 0 0
DWIDTH 0 0
BBX 6 3 -3 -3
BITMAP
48
B4
FC
ENDCHAR
STARTCHAR 035B
ENCODING 859
SWIDTH 0 0
DWIDTH 0 0
BBX 2 3 -1 8
BITMAP
80
C0
40
ENDCHAR
STARTCHAR 035C
ENCODING 860
SWIDTH 0 0
DWIDTH 0 0
BBX 10 2 -5 -3
BITMAP
C0C0
3F00
ENDCHAR
STARTCHAR 035D
ENCODING 861
SWIDTH 0 0
DWIDTH 0 0
BBX 10 3 -5 8
BITMAP
8040
4080
3F00
ENDCHAR
STARTCHAR 035E
ENCODING 862
SWIDTH 0 0
DWIDTH 0 0
BBX 8 1 -4 9
BITMAP
FF
ENDCHAR
STARTCHAR 035F
ENCODING 863
SWIDTH 0 0
DWIDTH 0 0
BBX 8 1 -4 -2
BITMAP
FF
ENDCHAR
STARTCHAR 0360
ENCODING 864
SWIDTH 0 0
DWIDTH 0 0
BBX 10 2 -5 8
BITMAP
FC40
0380
ENDCHAR
STARTCHAR 0361
ENCODING 865
SWIDTH 0 0
DWIDTH 0 0
BBX 10 3 -5 9
BITMAP
1E00
6180
8040
ENDCHAR
STARTCHAR 0362
ENCODING 866
SWIDTH 0 0
DWIDTH 0 0
BBX 10 2 -5 -2
BITMAP
FFC0
0040
ENDCHAR
STARTCHAR 0363
ENCODING 867
SWIDTH 0 0
DWIDTH 0 0
BBX 2 3 -1 9
BITMAP
C0
40
C0
ENDCHAR
STARTCHAR 0364
ENCODING 868
SWIDTH 0 0
DWIDTH 0 0
BBX 3 3 -1 9
BITMAP
40
A0
C0
ENDCHAR
STARTCHAR 0365
ENCODING 869
SWIDTH 0 0
DWIDTH 0 0
BBX 1 2 0 11
BITMAP
80
80
ENDCHAR
STARTCHAR 0366
ENCODING 870
SWIDTH 0 0
DWIDTH 0 0
BBX 3 3 -1 9
BITMAP
C0
A0
E0
ENDCHAR
STARTCHAR 0367
ENCODING 871
SWIDTH 0 0
DWIDTH 0 0
BBX 3 3 -1 9
BITMAP
20
A0
E0
ENDCHAR
STARTCHAR 0368
ENCODING 872
SWIDTH 0 0
DWIDTH 0 0
BBX 2 3 -1 9
BITMAP
40
80
C0
ENDCHAR
STARTCHAR 0369
ENCODING 873
SWIDTH 0 0
DWIDTH 0 0
BBX 3 4 -1 9
BITMAP
20
E0
A0
E0
ENDCHAR
STARTCHAR 036A
ENCODING 874
SWIDTH 0 0
DWIDTH 0 0
BBX 3 3 -1 10
BITMAP
C0
A0
A0
ENDCHAR
STARTCHAR 036B
ENCODING 875
SWIDTH 0 0
DWIDTH 0 0
BBX 5 3 -2 9
BITMAP
50
E8
C8
ENDCHAR
STARTCHAR 036C
ENCODING 876
SWIDTH 0 0
DWIDTH 0 0
BBX 2 3 -1 9
BITMAP
C0
80
80
ENDCHAR
STARTCHAR 036D
ENCODING 877
SWIDTH 0 0
DWIDTH 0 0
BBX 2 3 -1 9
BITMAP
C0
80
80
ENDCHAR
STARTCHAR 036E
ENCODING 878
SWIDTH 0 0
DWIDTH 0 0
BBX 3 3 -1 9
BITMAP
20
C0
C0
ENDCHAR
STARTCHAR 036F
ENCODING 879
SWIDTH 0 0
DWIDTH 0 0
BBX 3 3 -1 9
BITMAP
20
C0
C0
ENDCHAR
STARTCHAR 0370
ENCODING 880
SWIDTH 432 0
DWIDTH 6 0
BBX 5 10 1 0
BITMAP
C0
C0
C0
C0
F8
C0
C0
C0
C0
C0
ENDCHAR
STARTCHAR 0371
ENCODING 881
SWIDTH 360 0
DWIDTH 5 0
BBX 4 7 1 0
BITMAP
80
80
80
F0
80
80
80
ENDCHAR
STARTCHAR 0372
ENCODING 882
SWIDTH 648 0
DWIDTH 9 0
BBX 7 10 1 0
BITMAP
FE
92
92
92
10
10
10
10
10
10
ENDCHAR
STARTCHAR 0373
ENCODING 883
SWIDTH 648 0
DWIDTH 9 0
BBX 7 11 1 0
BITMAP
FE
92
92
92
10
10
10
10
10
10
10
ENDCHAR
STARTCHAR 0374
ENCODING 884
SWIDTH 144 0
DWIDTH 2 0
BBX 2 3 1 8
BITMAP
C0
80
80
ENDCHAR
STARTCHAR 0375
ENCODING 885
SWIDTH 144 0
DWIDTH 2 0
BBX 2 2 0 -2
BITMAP
C0
80
ENDCHAR
STARTCHAR 0376
ENCODING 886
SWIDTH 720 0
DWIDTH 10 0
BBX 8 10 1 0
BITMAP
C1
C3
C7
C5
C9
D9
D1
A1
E1
C1
ENDCHAR
STARTCHAR 0377
ENCODING 887
SWIDTH 576 0
DWIDTH 8 0
BBX 7 7 1 0
BITMAP
86
8A
9A
92
A2
E2
C2
ENDCHAR
STARTCHAR 037A
ENCODING 890
SWIDTH 216 0
DWIDTH 3 0
BBX 2 2 1 -3
BITMAP
80
C0
ENDCHAR
STARTCHAR 037B
ENCODING 891
SWIDTH 432 0
DWIDTH 6 0
BBX 5 8 1 0
BITMAP
40
B0
18
08
08
18
10
F0
ENDCHAR
STARTCHAR 037C
ENCODING 892
SWIDTH 432 0
DWIDTH 6 0
BBX 5 8 1 0
BITMAP
30
78
80
90
90
80
C0
78
ENDCHAR
STARTCHAR 037D
ENCODING 893
SWIDTH 432 0
DWIDTH 6 0
BBX 5 8 1 0
BITMAP
40
B0
18
48
48
18
10
F0
ENDCHAR
STARTCHAR 037E
ENCODING 894
SWIDTH 216 0
DWIDTH 3 0
BBX 2 9 1 -2
BITMAP
80
C0
00
00
00
00
C0
80
80
ENDCHAR
STARTCHAR 037F
ENCODING 895
SWIDTH 216 0
DWIDTH 3 0
BBX 4 13 -1 -3
BITMAP
30
30
30
30
30
30
30
30
30
30
20
60
C0
ENDCHAR
STARTCHAR 0384
ENCODING 900
SWIDTH 216 0
DWIDTH 3 0
BBX 2 2 1 8
BITMAP
C0
80
ENDCHAR
STARTCHAR 0385
ENCODING 901
SWIDTH 648 0
DWIDTH 9 0
BBX 5 2 2 8
BITMAP
30
A8
ENDCHAR
STARTCHAR 0386
ENCODING 902
SWIDTH 648 0
DWIDTH 9 0
BBX 10 10 0 0
BITMAP
4400
CE00
0A00
1A00
1300
1100
3F00
2080
2080
40C0
ENDCHAR
STARTCHAR 0387
ENCODING 903
SWIDTH 216 0
DWIDTH 3 0
BBX 2 2 1 6
BITMAP
80
C0
ENDCHAR
STARTCHAR 0388
ENCODING 904
SWIDTH 720 0
DWIDTH 10 0
BBX 9 10 0 0
BITMAP
4F80
C800
0800
0800
0F80
0800
0800
0800
0800
0F80
ENDCHAR
STARTCHAR 0389
ENCODING 905
SWIDTH 864 0
DWIDTH 12 0
BBX 11 10 0 0
BITMAP
4820
C820
0820
0820
0FE0
0820
0820
0820
0820
0820
ENDCHAR
STARTCHAR 038A
ENCODING 906
SWIDTH 504 0
DWIDTH 7 0
BBX 7 10 0 0
BITMAP
5E
CC
0C
0C
0C
0C
0C
0C
0C
1E
ENDCHAR
STARTCHAR 038C
ENCODING 908
SWIDTH 864 0
DWIDTH 12 0
BBX 12 10 0 0
BITMAP
4780
D860
1020
1020
3030
3030
1020
1020
1860
0FC0
ENDCHAR
STARTCHAR 038E
ENCODING 910
SWIDTH 720 0
DWIDTH 10 0
BBX 11 10 0 0
BITMAP
5860
C840
0CC0
0480
0700
0300
0300
0300
0300
0300
ENDCHAR
STARTCHAR 038F
ENCODING 911
SWIDTH 792 0
DWIDTH 11 0
BBX 11 10 0 0
BITMAP
4F80
D840
1060
3020
2020
3020
3020
1040
08C0
3CE0
ENDCHAR
STARTCHAR 0390
ENCODING 912
SWIDTH 288 0
DWIDTH 4 0
BBX 5 11 0 0
BITMAP
20
A8
00
00
40
40
40
40
40
40
30
ENDCHAR
STARTCHAR 0391
ENCODING 913
SWIDTH 576 0
DWIDTH 8 0
BBX 9 10 0 0
BITMAP
0800
1C00
1400
1400
2200
2200
7F00
4100
4100
8180
ENDCHAR
STARTCHAR 0392
ENCODING 914
SWIDTH 648 0
DWIDTH 9 0
BBX 7 10 1 0
BITMAP
FC
C6
C2
C6
FC
C6
C2
C2
C6
FC
ENDCHAR
STARTCHAR 0393
ENCODING 915
SWIDTH 432 0
DWIDTH 6 0
BBX 6 10 1 0
BITMAP
FC
C0
C0
C0
C0
C0
C0
C0
C0
C0
ENDCHAR
STARTCHAR 0394
ENCODING 916
SWIDTH 576 0
DWIDTH 8 0
BBX 9 10 0 0
BITMAP
0800
1C00
1400
3400
2200
2200
4300
4100
C100
FF80
ENDCHAR
STARTCHAR 0395
ENCODING 917
SWIDTH 504 0
DWIDTH 7 0
BBX 6 10 1 0
BITMAP
FC
C0
C0
C0
FC
C0
C0
C0
C0
FC
ENDCHAR
STARTCHAR 0396
ENCODING 918
SWIDTH 504 0
DWIDTH 7 0
BBX 6 10 1 0
BITMAP
FC
04
08
18
10
20
60
40
80
FC
ENDCHAR
STARTCHAR 0397
ENCODING 919
SWIDTH 720 0
DWIDTH 10 0
BBX 8 10 1 0
BITMAP
C1
C1
C1
C1
FF
C1
C1
C1
C1
C1
ENDCHAR
STARTCHAR 0398
ENCODING 920
SWIDTH 720 0
DWIDTH 10 0
BBX 9 10 1 0
BITMAP
3E00
6300
C180
8080
BE80
BE80
8080
C180
4300
3E00
ENDCHAR
STARTCHAR 0399
ENCODING 921
SWIDTH 288 0
DWIDTH 4 0
BBX 3 10 1 0
BITMAP
E0
40
40
40
40
40
40
40
40
E0
ENDCHAR
STARTCHAR 039A
ENCODING 922
SWIDTH 576 0
DWIDTH 8 0
BBX 7 10 1 0
BITMAP
C2
C4
C8
D0
F0
D0
C8
CC
C6
C2
ENDCHAR
STARTCHAR 039B
ENCODING 923
SWIDTH 576 0
DWIDTH 8 0
BBX 8 10 0 0
BITMAP
08
18
14
34
24
22
42
43
41
81
ENDCHAR
STARTCHAR 039C
ENCODING 924
SWIDTH 864 0
DWIDTH 12 0
BBX 10 10 1 0
BITMAP
C0C0
A0C0
A1C0
A140
D140
D240
DA40
CA40
CC40
C440
ENDCHAR
STARTCHAR 039D
ENCODING 925
SWIDTH 720 0
DWIDTH 10 0
BBX 8 10 1 0
BITMAP
C1
E1
A1
91
D9
C9
CD
C7
C3
C3
ENDCHAR
STARTCHAR 039E
ENCODING 926
SWIDTH 576 0
DWIDTH 8 0
BBX 7 10 1 0
BITMAP
FE
00
00
00
7C
00
00
00
00
FE
ENDCHAR
STARTCHAR 039F
ENCODING 927
SWIDTH 720 0
DWIDTH 10 0
BBX 9 10 1 0
BITMAP
3E00
6300
C180
8080
8080
8080
8080
C180
4300
3E00
ENDCHAR
STARTCHAR 03A0
ENCODING 928
SWIDTH 720 0
DWIDTH 10 0
BBX 8 10 1 0
BITMAP
FF
C1
C1
C1
C1
C1
C1
C1
C1
C1
ENDCHAR
STARTCHAR 03A1
ENCODING 929
SWIDTH 576 0
DWIDTH 8 0
BBX 7 10 1 0
BITMAP
F8
C4
C6
C6
C4
F8
C0
C0
C0
C0
ENDCHAR
STARTCHAR 03A3
ENCODING 931
SWIDTH 504 0
DWIDTH 7 0
BBX 6 10 1 0
BITMAP
FC
C0
40
20
30
30
20
40
80
FC
ENDCHAR
STARTCHAR 03A4
ENCODING 932
SWIDTH 504 0
DWIDTH 7 0
BBX 8 10 0 0
BITMAP
FF
10
10
10
10
10
10
10
10
10
ENDCHAR
STARTCHAR 03A5
ENCODING 933
SWIDTH 504 0
DWIDTH 7 0
BBX 8 10 0 0
BITMAP
C3
42
66
24
38
18
18
18
18
18
ENDCHAR
STARTCHAR 03A6
ENCODING 934
SWIDTH 792 0
DWIDTH 11 0
BBX 10 10 1 0
BITMAP
0800
3F00
C880
88C0
8840
8840
88C0
6980
3E00
0800
ENDCHAR
STARTCHAR 03A7
ENCODING 935
SWIDTH 576 0
DWIDTH 8 0
BBX 8 10 0 0
BITMAP
43
62
24
3C
18
18
34
24
42
C3
ENDCHAR
STARTCHAR 03A8
ENCODING 936
SWIDTH 792 0
DWIDTH 11 0
BBX 9 10 1 0
BITMAP
C880
C880
C880
C880
C880
4980
7F00
0800
0800
0800
ENDCHAR
STARTCHAR 03A9
ENCODING 937
SWIDTH 648 0
DWIDTH 9 0
BBX 10 10 0 0
BITMAP
1E00
6180
4080
4080
C0C0
C080
4080
6180
2100
F3C0
ENDCHAR
STARTCHAR 03AA
ENCODING 938
SWIDTH 288 0
DWIDTH 4 0
BBX 3 13 1 0
BITMAP
20
A0
00
E0
40
40
40
40
40
40
40
40
E0
ENDCHAR
STARTCHAR 03AB
ENCODING 939
SWIDTH 504 0
DWIDTH 7 0
BBX 8 13 0 0
BITMAP
24
24
00
C3
42
66
24
38
18
18
18
18
18
ENDCHAR
STARTCHAR 03AC
ENCODING 940
SWIDTH 576 0
DWIDTH 8 0
BBX 7 11 1 0
BITMAP
18
10
10
30
4C
84
84
84
84
C4
7E
ENDCHAR
STARTCHAR 03AD
ENCODING 941
SWIDTH 432 0
DWIDTH 6 0
BBX 5 11 1 0
BITMAP
10
10
20
30
D8
80
C0
F0
80
80
F8
ENDCHAR
STARTCHAR 03AE
ENCODING 942
SWIDTH 576 0
DWIDTH 8 0
BBX 6 14 1 -3
BITMAP
10
30
20
10
EC
C4
84
84
84
84
84
04
04
04
ENDCHAR
STARTCHAR 03AF
ENCODING 943
SWIDTH 288 0
DWIDTH 4 0
BBX 3 11 1 0
BITMAP
60
40
00
00
80
80
80
80
80
80
60
ENDCHAR
STARTCHAR 03B0
ENCODING 944
SWIDTH 576 0
DWIDTH 8 0
BBX 6 11 1 0
BITMAP
18
54
00
00
84
84
84
84
84
CC
78
ENDCHAR
STARTCHAR 03B1
ENCODING 945
SWIDTH 576 0
DWIDTH 8 0
BBX 7 8 1 0
BITMAP
30
4C
84
84
84
84
C4
7E
ENDCHAR
STARTCHAR 03B2
ENCODING 946
SWIDTH 576 0
DWIDTH 8 0
BBX 7 14 1 -3
BITMAP
30
6C
C4
84
84
B8
84
86
82
84
FC
80
80
80
ENDCHAR
STARTCHAR 03B3
ENCODING 947
SWIDTH 504 0
DWIDTH 7 0
BBX 7 10 0 -3
BITMAP
C2
46
44
64
24
28
30
10
10
10
ENDCHAR
STARTCHAR 03B4
ENCODING 948
SWIDTH 576 0
DWIDTH 8 0
BBX 6 11 1 0
BITMAP
38
6C
40
60
30
CC
84
84
84
84
78
ENDCHAR
STARTCHAR 03B5
ENCODING 949
SWIDTH 432 0
DWIDTH 6 0
BBX 5 8 1 0
BITMAP
30
D8
80
C0
F0
80
80
F8
ENDCHAR
STARTCHAR 03B6
ENCODING 950
SWIDTH 432 0
DWIDTH 6 0
BBX 5 14 1 -3
BITMAP
F8
08
10
30
20
40
C0
80
80
C0
78
08
08
08
ENDCHAR
STARTCHAR 03B7
ENCODING 951
SWIDTH 576 0
DWIDTH 8 0
BBX 6 11 1 -3
BITMAP
10
EC
C4
84
84
84
84
84
04
04
04
ENDCHAR
STARTCHAR 03B8
ENCODING 952
SWIDTH 576 0
DWIDTH 8 0
BBX 6 11 1 0
BITMAP
30
48
84
84
84
FC
84
84
84
CC
78
ENDCHAR
STARTCHAR 03B9
ENCODING 953
SWIDTH 288 0
DWIDTH 4 0
BBX 3 7 1 0
BITMAP
80
80
80
80
80
80
60
ENDCHAR
STARTCHAR 03BA
ENCODING 954
SWIDTH 504 0
DWIDTH 7 0
BBX 6 7 1 0
BITMAP
8C
90
B0
F0
90
88
8C
ENDCHAR
STARTCHAR 03BB
ENCODING 955
SWIDTH 504 0
DWIDTH 7 0
BBX 7 11 0 0
BITMAP
C0
20
30
10
30
28
28
6C
44
44
C6
ENDCHAR
STARTCHAR 03BC
ENCODING 956
SWIDTH 576 0
DWIDTH 8 0
BBX 7 10 1 -3
BITMAP
84
84
84
84
84
C4
FE
80
80
80
ENDCHAR
STARTCHAR 03BD
ENCODING 957
SWIDTH 504 0
DWIDTH 7 0
BBX 7 7 0 0
BITMAP
C2
46
44
64
24
28
30
ENDCHAR
STARTCHAR 03BE
ENCODING 958
SWIDTH 432 0
DWIDTH 6 0
BBX 5 14 1 -3
BITMAP
F8
20
C0
80
C0
38
C0
80
80
C0
78
08
08
08
ENDCHAR
STARTCHAR 03BF
ENCODING 959
SWIDTH 576 0
DWIDTH 8 0
BBX 7 8 1 0
BITMAP
30
6C
84
86
86
86
C4
78
ENDCHAR
STARTCHAR 03C0
ENCODING 960
SWIDTH 648 0
DWIDTH 9 0
BBX 9 7 0 0
BITMAP
FF80
2200
2200
2200
2200
2200
2380
ENDCHAR
STARTCHAR 03C1
ENCODING 961
SWIDTH 576 0
DWIDTH 8 0
BBX 7 11 1 -3
BITMAP
30
6C
84
86
86
84
84
F8
80
80
80
ENDCHAR
STARTCHAR 03C2
ENCODING 962
SWIDTH 432 0
DWIDTH 6 0
BBX 5 11 1 -3
BITMAP
30
68
80
80
80
80
C0
78
08
08
08
ENDCHAR
STARTCHAR 03C3
ENCODING 963
SWIDTH 576 0
DWIDTH 8 0
BBX 7 7 1 0
BITMAP
7E
84
84
84
84
C4
78
ENDCHAR
STARTCHAR 03C4
ENCODING 964
SWIDTH 432 0
DWIDTH 6 0
BBX 6 7 0 0
BITMAP
FC
20
20
20
20
30
1C
ENDCHAR
STARTCHAR 03C5
ENCODING 965
SWIDTH 576 0
DWIDTH 8 0
BBX 6 7 1 0
BITMAP
84
84
84
84
84
CC
78
ENDCHAR
STARTCHAR 03C6
ENCODING 966
SWIDTH 720 0
DWIDTH 10 0
BBX 8 14 1 -3
BITMAP
18
18
18
18
7E
99
99
99
99
DB
7E
18
18
18
ENDCHAR
STARTCHAR 03C7
ENCODING 967
SWIDTH 576 0
DWIDTH 8 0
BBX 8 10 0 -3
BITMAP
E3
22
34
14
18
18
18
24
64
43
ENDCHAR
STARTCHAR 03C8
ENCODING 968
SWIDTH 720 0
DWIDTH 10 0
BBX 8 14 1 -3
BITMAP
08
08
08
08
89
89
89
89
89
CB
7E
08
08
08
ENDCHAR
STARTCHAR 03C9
ENCODING 969
SWIDTH 792 0
DWIDTH 11 0
BBX 9 7 1 0
BITMAP
4180
8080
8880
8880
8880
C880
7700
ENDCHAR
STARTCHAR 03CA
ENCODING 970
SWIDTH 288 0
DWIDTH 4 0
BBX 4 10 0 0
BITMAP
90
00
00
40
40
40
40
40
40
30
ENDCHAR
STARTCHAR 03CB
ENCODING 971
SWIDTH 576 0
DWIDTH 8 0
BBX 6 10 1 0
BITMAP
48
00
00
84
84
84
84
84
CC
78
ENDCHAR
STARTCHAR 03CC
ENCODING 972
SWIDTH 576 0
DWIDTH 8 0
BBX 7 11 1 0
BITMAP
18
10
10
30
6C
84
86
86
86
C4
78
ENDCHAR
STARTCHAR 03CD
ENCODING 973
SWIDTH 576 0
DWIDTH 8 0
BBX 6 11 1 0
BITMAP
18
10
00
00
84
84
84
84
84
CC
78
ENDCHAR
STARTCHAR 03CE
ENCODING 974
SWIDTH 792 0
DWIDTH 11 0
BBX 9 11 1 0
BITMAP
0400
0400
0800
0000
4180
8080
8880
8880
8880
C880
7700
ENDCHAR
STARTCHAR 03CF
ENCODING 975
SWIDTH 576 0
DWIDTH 8 0
BBX 7 13 1 -3
BITMAP
C2
C4
C8
D0
F0
D0
C8
CC
C6
C2
02
06
FC
ENDCHAR
STARTCHAR 03D0
ENCODING 976
SWIDTH 576 0
DWIDTH 8 0
BBX 7 11 1 0
BITMAP
18
24
44
FC
C0
BC
C2
82
C2
46
3C
ENDCHAR
STARTCHAR 03D1
ENCODING 977
SWIDTH 576 0
DWIDTH 8 0
BBX 8 11 0 0
BITMAP
18
24
22
22
1F
C3
63
62
42
66
3C
ENDCHAR
STARTCHAR 03D2
ENCODING 978
SWIDTH 576 0
DWIDTH 8 0
BBX 8 10 0 0
BITMAP
C3
42
66
24
38
18
18
18
18
18
ENDCHAR
STARTCHAR 03D3
ENCODING 979
SWIDTH 792 0
DWIDTH 11 0
BBX 11 10 0 0
BITMAP
5860
C840
0C80
0480
0700
0300
0200
0200
0200
0200
ENDCHAR
STARTCHAR 03D4
ENCODING 980
SWIDTH 576 0
DWIDTH 8 0
BBX 8 13 0 0
BITMAP
24
24
00
C3
42
66
24
38
18
18
18
18
18
ENDCHAR
STARTCHAR 03D5
ENCODING 981
SWIDTH 720 0
DWIDTH 10 0
BBX 8 14 1 -3
BITMAP
18
18
18
18
7E
99
99
99
99
DB
7E
18
18
18
ENDCHAR
STARTCHAR 03D6
ENCODING 982
SWIDTH 792 0
DWIDTH 11 0
BBX 12 7 0 0
BITMAP
FFF0
2040
6660
6660
6660
2640
3FC0
ENDCHAR
STARTCHAR 03D7
ENCODING 983
SWIDTH 504 0
DWIDTH 7 0
BBX 6 10 1 -3
BITMAP
8C
90
B0
F0
90
88
8C
04
8C
70
ENDCHAR
STARTCHAR 03D8
ENCODING 984
SWIDTH 720 0
DWIDTH 10 0
BBX 9 10 1 0
BITMAP
3E00
4300
C100
8180
8180
8180
4300
7E00
0800
0800
ENDCHAR
STARTCHAR 03D9
ENCODING 985
SWIDTH 576 0
DWIDTH 8 0
BBX 7 11 1 -3
BITMAP
30
6C
84
86
86
86
C4
78
10
10
10
ENDCHAR
STARTCHAR 03DA
ENCODING 986
SWIDTH 576 0
DWIDTH 8 0
BBX 7 10 1 0
BITMAP
3E
40
C0
80
80
C0
60
38
08
08
ENDCHAR
STARTCHAR 03DB
ENCODING 987
SWIDTH 432 0
DWIDTH 6 0
BBX 5 11 1 -3
BITMAP
30
68
80
80
80
80
C0
70
08
08
70
ENDCHAR
STARTCHAR 03DC
ENCODING 988
SWIDTH 504 0
DWIDTH 7 0
BBX 6 10 1 0
BITMAP
FC
C0
C0
C0
C0
F8
C8
C8
C0
C0
ENDCHAR
STARTCHAR 03DD
ENCODING 989
SWIDTH 504 0
DWIDTH 7 0
BBX 6 10 1 -3
BITMAP
FC
C0
C0
F8
F8
C8
C8
C0
C0
C0
ENDCHAR
STARTCHAR 03DE
ENCODING 990
SWIDTH 432 0
DWIDTH 6 0
BBX 7 10 0 0
BITMAP
C0
60
60
40
7C
04
0C
08
08
0E
ENDCHAR
STARTCHAR 03DF
ENCODING 991
SWIDTH 504 0
DWIDTH 7 0
BBX 6 14 1 -3
BITMAP
C0
60
60
40
40
C0
FC
CC
08
08
18
10
10
1C
ENDCHAR
STARTCHAR 03E0
ENCODING 992
SWIDTH 576 0
DWIDTH 8 0
BBX 7 10 0 0
BITMAP
F8
8C
1E
62
06
1A
02
02
02
06
ENDCHAR
STARTCHAR 03E1
ENCODING 993
SWIDTH 504 0
DWIDTH 7 0
BBX 7 14 -1 -3
BITMAP
80
E0
10
08
1C
36
02
0E
12
02
02
02
02
06
ENDCHAR
STARTCHAR 03F0
ENCODING 1008
SWIDTH 648 0
DWIDTH 9 0
BBX 8 8 1 0
BITMAP
80
C6
46
6C
74
74
66
43
ENDCHAR
STARTCHAR 03F1
ENCODING 1009
SWIDTH 576 0
DWIDTH 8 0
BBX 7 11 1 -3
BITMAP
30
6C
84
86
86
84
CC
B8
80
78
0C
ENDCHAR
STARTCHAR 03F2
ENCODING 1010
SWIDTH 432 0
DWIDTH 6 0
BBX 5 8 1 0
BITMAP
30
78
80
80
80
80
C0
78
ENDCHAR
STARTCHAR 03F3
ENCODING 1011
SWIDTH 216 0
DWIDTH 3 0
BBX 4 13 -1 -3
BITMAP
30
00
00
20
20
20
20
20
20
20
20
20
E0
ENDCHAR
STARTCHAR 03F4
ENCODING 1012
SWIDTH 720 0
DWIDTH 10 0
BBX 9 10 1 0
BITMAP
3E00
6300
C180
8080
FF80
8080
8080
C180
4300
3E00
ENDCHAR
STARTCHAR 03F5
ENCODING 1013
SWIDTH 432 0
DWIDTH 6 0
BBX 5 8 1 0
BITMAP
30
68
80
80
F8
80
C0
78
ENDCHAR
STARTCHAR 03F6
ENCODING 1014
SWIDTH 432 0
DWIDTH 6 0
BBX 6 8 0 0
BITMAP
20
58
04
04
7C
04
0C
F8
ENDCHAR
STARTCHAR 03F7
ENCODING 1015
SWIDTH 576 0
DWIDTH 8 0
BBX 7 10 1 0
BITMAP
C0
C0
FC
C4
C6
C6
CC
F8
C0
C0
ENDCHAR
STARTCHAR 03F8
ENCODING 1016
SWIDTH 576 0
DWIDTH 8 0
BBX 7 14 1 -3
BITMAP
80
80
80
90
EC
C6
86
82
C6
C4
BC
80
80
80
ENDCHAR
STARTCHAR 03F9
ENCODING 1017
SWIDTH 576 0
DWIDTH 8 0
BBX 7 10 1 0
BITMAP
3E
60
C0
80
80
80
80
C0
60
3E
ENDCHAR
STARTCHAR 03FA
ENCODING 1018
SWIDTH 864 0
DWIDTH 12 0
BBX 10 10 1 0
BITMAP
C0C0
A0C0
B140
9340
DA40
CC40
C440
C040
C040
C040
ENDCHAR
STARTCHAR 03FB
ENCODING 1019
SWIDTH 720 0
DWIDTH 10 0
BBX 8 10 1 -3
BITMAP
C3
A5
B5
99
81
81
81
80
80
80
ENDCHAR
STARTCHAR 03FC
ENCODING 1020
SWIDTH 576 0
DWIDTH 8 0
BBX 8 11 0 -3
BITMAP
18
36
42
43
43
42
42
7C
40
F8
40
ENDCHAR
STARTCHAR 03FD
ENCODING 1021
SWIDTH 576 0
DWIDTH 8 0
BBX 7 10 1 0
BITMAP
F8
0C
04
06
02
02
06
04
0C
F8
ENDCHAR
STARTCHAR 03FE
ENCODING 1022
SWIDTH 576 0
DWIDTH 8 0
BBX 7 10 1 0
BITMAP
3E
60
C0
80
88
88
80
C0
60
3E
ENDCHAR
STARTCHAR 03FF
ENCODING 1023
SWIDTH 576 0
DWIDTH 8 0
BBX 7 10 1 0
BITMAP
F8
0C
04
06
22
22
06
04
0C
F8
ENDCHAR
STARTCHAR 0400
ENCODING 1024
SWIDTH 504 0
DWIDTH 7 0
BBX 6 13 1 0
BITMAP
20
10
00
FC
C0
C0
C0
FC
C0
C0
C0
C0
FC
ENDCHAR
STARTCHAR 0401
ENCODING 1025
SWIDTH 504 0
DWIDTH 7 0
BBX 6 13 1 0
BITMAP
08
48
00
FC
C0
C0
C0
FC
C0
C0
C0
C0
FC
ENDCHAR
STARTCHAR 0402
ENCODING 1026
SWIDTH 720 0
DWIDTH 10 0
BBX 9 10 0 0
BITMAP
FE00
3000
3000
3000
3F00
3080
3080
3080
3080
3380
ENDCHAR
STARTCHAR 0403
ENCODING 1027
SWIDTH 504 0
DWIDTH 7 0
BBX 6 13 1 0
BITMAP
18
10
00
FC
C0
C0
C0
C0
C0
C0
C0
C0
C0
ENDCHAR
STARTCHAR 0404
ENCODING 1028
SWIDTH 576 0
DWIDTH 8 0
BBX 7 10 1 0
BITMAP
3E
60
C0
80
FC
80
80
C0
60
3E
ENDCHAR
STARTCHAR 0405
ENCODING 1029
SWIDTH 504 0
DWIDTH 7 0
BBX 6 10 1 0
BITMAP
7C
80
80
80
60
18
0C
04
0C
F8
ENDCHAR
STARTCHAR 0406
ENCODING 1030
SWIDTH 288 0
DWIDTH 4 0
BBX 3 10 1 0
BITMAP
E0
40
40
40
40
40
40
40
40
E0
ENDCHAR
STARTCHAR 0407
ENCODING 1031
SWIDTH 288 0
DWIDTH 4 0
BBX 3 13 1 0
BITMAP
20
A0
00
E0
40
40
40
40
40
40
40
40
E0
ENDCHAR
STARTCHAR 0408
ENCODING 1032
SWIDTH 216 0
DWIDTH 3 0
BBX 4 13 -1 -3
BITMAP
30
30
30
30
30
30
30
30
30
30
20
60
C0
ENDCHAR
STARTCHAR 0409
ENCODING 1033
SWIDTH 936 0
DWIDTH 13 0
BBX 12 10 0 0
BITMAP
1F00
1100
1100
1100
31C0
3130
2110
2110
2110
C1E0
ENDCHAR
STARTCHAR 040A
ENCODING 1034
SWIDTH 936 0
DWIDTH 13 0
BBX 12 10 1 0
BITMAP
C200
C200
C200
C200
FFC0
C260
C230
C230
C220
C3C0
ENDCHAR
STARTCHAR 040B
ENCODING 1035
SWIDTH 720 0
DWIDTH 10 0
BBX 9 10 0 0
BITMAP
FE00
3000
3000
3000
3F00
3080
3080
3080
3080
3080
ENDCHAR
STARTCHAR 040C
ENCODING 1036
SWIDTH 576 0
DWIDTH 8 0
BBX 7 13 1 0
BITMAP
08
10
00
C2
C4
C8
D0
E0
F0
D0
C8
C4
C2
ENDCHAR
STARTCHAR 040D
ENCODING 1037
SWIDTH 720 0
DWIDTH 10 0
BBX 8 13 1 0
BITMAP
10
08
00
C1
C3
C7
C5
C9
D9
D1
A1
E1
C1
ENDCHAR
STARTCHAR 040E
ENCODING 1038
SWIDTH 576 0
DWIDTH 8 0
BBX 8 13 0 0
BITMAP
22
3C
00
C1
41
63
22
36
14
1C
08
18
70
ENDCHAR
STARTCHAR 040F
ENCODING 1039
SWIDTH 720 0
DWIDTH 10 0
BBX 8 13 1 -3
BITMAP
C1
C1
C1
C1
C1
C1
C1
C1
C1
FF
18
18
18
ENDCHAR
STARTCHAR 0410
ENCODING 1040
SWIDTH 576 0
DWIDTH 8 0
BBX 9 10 0 0
BITMAP
0800
1C00
1400
1400
2200
2200
7F00
4100
4100
8180
ENDCHAR
STARTCHAR 0411
ENCODING 1041
SWIDTH 576 0
DWIDTH 8 0
BBX 7 10 1 0
BITMAP
FC
C0
C0
C0
F8
CC
C6
C2
C6
FC
ENDCHAR
STARTCHAR 0412
ENCODING 1042
SWIDTH 648 0
DWIDTH 9 0
BBX 7 10 1 0
BITMAP
FC
C6
C2
C6
FC
C6
C2
C2
C6
FC
ENDCHAR
STARTCHAR 0413
ENCODING 1043
SWIDTH 504 0
DWIDTH 7 0
BBX 6 10 1 0
BITMAP
FC
C0
C0
C0
C0
C0
C0
C0
C0
C0
ENDCHAR
STARTCHAR 0414
ENCODING 1044
SWIDTH 648 0
DWIDTH 9 0
BBX 9 13 0 -3
BITMAP
1F00
1900
1100
1100
1100
3100
2100
2100
4100
FF80
8080
8080
8080
ENDCHAR
STARTCHAR 0415
ENCODING 1045
SWIDTH 504 0
DWIDTH 7 0
BBX 6 10 1 0
BITMAP
FC
C0
C0
C0
FC
C0
C0
C0
C0
FC
ENDCHAR
STARTCHAR 0416
ENCODING 1046
SWIDTH 792 0
DWIDTH 11 0
BBX 11 10 0 0
BITMAP
C620
6660
26C0
1680
0F00
0F00
1680
26C0
6660
C620
ENDCHAR
STARTCHAR 0417
ENCODING 1047
SWIDTH 576 0
DWIDTH 8 0
BBX 6 10 1 0
BITMAP
F8
84
04
04
78
1C
04
04
04
F8
ENDCHAR
STARTCHAR 0418
ENCODING 1048
SWIDTH 720 0
DWIDTH 10 0
BBX 8 10 1 0
BITMAP
C1
C3
C7
C5
C9
D9
D1
A1
E1
C1
ENDCHAR
STARTCHAR 0419
ENCODING 1049
SWIDTH 720 0
DWIDTH 10 0
BBX 8 13 1 0
BITMAP
22
3C
00
C1
C3
C7
C5
C9
D9
D1
A1
E1
C1
ENDCHAR
STARTCHAR 041A
ENCODING 1050
SWIDTH 576 0
DWIDTH 8 0
BBX 7 10 1 0
BITMAP
C2
C4
C8
D0
E0
F0
D0
C8
C4
C2
ENDCHAR
STARTCHAR 041B
ENCODING 1051
SWIDTH 648 0
DWIDTH 9 0
BBX 8 10 0 0
BITMAP
1F
11
11
11
31
31
21
21
21
C1
ENDCHAR
STARTCHAR 041C
ENCODING 1052
SWIDTH 864 0
DWIDTH 12 0
BBX 10 10 1 0
BITMAP
C0C0
A0C0
A1C0
A140
D140
D240
DA40
CA40
CC40
C440
ENDCHAR
STARTCHAR 041D
ENCODING 1053
SWIDTH 720 0
DWIDTH 10 0
BBX 8 10 1 0
BITMAP
C1
C1
C1
C1
FF
C1
C1
C1
C1
C1
ENDCHAR
STARTCHAR 041E
ENCODING 1054
SWIDTH 720 0
DWIDTH 10 0
BBX 9 10 1 0
BITMAP
3E00
6300
C180
8080
8080
8080
8080
C180
4300
3E00
ENDCHAR
STARTCHAR 041F
ENCODING 1055
SWIDTH 720 0
DWIDTH 10 0
BBX 8 10 1 0
BITMAP
FF
C1
C1
C1
C1
C1
C1
C1
C1
C1
ENDCHAR
STARTCHAR 0420
ENCODING 1056
SWIDTH 576 0
DWIDTH 8 0
BBX 7 10 1 0
BITMAP
F8
C4
C6
C6
C4
F8
C0
C0
C0
C0
ENDCHAR
STARTCHAR 0421
ENCODING 1057
SWIDTH 576 0
DWIDTH 8 0
BBX 7 10 1 0
BITMAP
3E
60
C0
80
80
80
80
C0
60
3E
ENDCHAR
STARTCHAR 0422
ENCODING 1058
SWIDTH 504 0
DWIDTH 7 0
BBX 8 10 0 0
BITMAP
FF
10
10
10
10
10
10
10
10
10
ENDCHAR
STARTCHAR 0423
ENCODING 1059
SWIDTH 576 0
DWIDTH 8 0
BBX 8 10 0 0
BITMAP
C1
41
63
22
36
14
1C
08
18
70
ENDCHAR
STARTCHAR 0424
ENCODING 1060
SWIDTH 792 0
DWIDTH 11 0
BBX 9 10 1 0
BITMAP
0800
3E00
C980
8880
8880
8880
8880
6B00
1C00
0800
ENDCHAR
STARTCHAR 0425
ENCODING 1061
SWIDTH 576 0
DWIDTH 8 0
BBX 8 10 0 0
BITMAP
43
62
24
3C
18
18
34
24
42
C3
ENDCHAR
STARTCHAR 0426
ENCODING 1062
SWIDTH 720 0
DWIDTH 10 0
BBX 9 13 1 -3
BITMAP
C100
C100
C100
C100
C100
C100
C100
C100
C100
FF80
0080
0080
0080
ENDCHAR
STARTCHAR 0427
ENCODING 1063
SWIDTH 648 0
DWIDTH 9 0
BBX 7 10 1 0
BITMAP
82
82
82
82
82
7E
32
02
02
02
ENDCHAR
STARTCHAR 0428
ENCODING 1064
SWIDTH 1008 0
DWIDTH 14 0
BBX 12 10 1 0
BITMAP
C210
C210
C210
C210
C210
C210
C210
C210
C210
FFF0
ENDCHAR
STARTCHAR 0429
ENCODING 1065
SWIDTH 1008 0
DWIDTH 14 0
BBX 13 13 1 -3
BITMAP
C610
C610
C610
C610
C610
C610
C610
C610
C610
FFF8
0008
0008
0008
ENDCHAR
STARTCHAR 042A
ENCODING 1066
SWIDTH 648 0
DWIDTH 9 0
BBX 9 10 0 0
BITMAP
F000
3000
3000
3000
3E00
3300
3080
3080
3180
3F00
ENDCHAR
STARTCHAR 042B
ENCODING 1067
SWIDTH 792 0
DWIDTH 11 0
BBX 10 10 1 0
BITMAP
C0C0
C0C0
C0C0
C0C0
F8C0
CCC0
C6C0
C6C0
C4C0
FCC0
ENDCHAR
STARTCHAR 042C
ENCODING 1068
SWIDTH 576 0
DWIDTH 8 0
BBX 7 10 1 0
BITMAP
C0
C0
C0
C0
F8
C6
C2
C2
C6
FC
ENDCHAR
STARTCHAR 042D
ENCODING 1069
SWIDTH 576 0
DWIDTH 8 0
BBX 8 10 0 0
BITMAP
FC
06
02
03
3F
01
03
02
06
FC
ENDCHAR
STARTCHAR 042E
ENCODING 1070
SWIDTH 1008 0
DWIDTH 14 0
BBX 13 10 1 0
BITMAP
C3E0
C630
CC10
C818
F818
C818
C818
CC10
C430
C3E0
ENDCHAR
STARTCHAR 042F
ENCODING 1071
SWIDTH 576 0
DWIDTH 8 0
BBX 7 10 1 0
BITMAP
7E
C6
86
86
C6
3E
26
46
C6
86
ENDCHAR
STARTCHAR 0430
ENCODING 1072
SWIDTH 504 0
DWIDTH 7 0
BBX 6 8 1 0
BITMAP
30
48
0C
0C
FC
8C
8C
F4
ENDCHAR
STARTCHAR 0431
ENCODING 1073
SWIDTH 576 0
DWIDTH 8 0
BBX 7 10 1 1
BITMAP
3C
40
80
B8
C4
84
86
84
C4
78
ENDCHAR
STARTCHAR 0432
ENCODING 1074
SWIDTH 576 0
DWIDTH 8 0
BBX 6 7 1 0
BITMAP
FC
84
8C
FC
84
84
FC
ENDCHAR
STARTCHAR 0433
ENCODING 1075
SWIDTH 432 0
DWIDTH 6 0
BBX 5 7 1 0
BITMAP
F8
80
80
80
80
80
80
ENDCHAR
STARTCHAR 0434
ENCODING 1076
SWIDTH 576 0
DWIDTH 8 0
BBX 8 10 0 -3
BITMAP
1E
12
32
22
22
42
FF
81
81
81
ENDCHAR
STARTCHAR 0435
ENCODING 1077
SWIDTH 504 0
DWIDTH 7 0
BBX 6 8 1 0
BITMAP
30
48
84
84
FC
80
C0
7C
ENDCHAR
STARTCHAR 0436
ENCODING 1078
SWIDTH 720 0
DWIDTH 10 0
BBX 10 7 0 0
BITMAP
44C0
2500
1700
1E00
3500
6480
C440
ENDCHAR
STARTCHAR 0437
ENCODING 1079
SWIDTH 432 0
DWIDTH 6 0
BBX 6 8 0 0
BITMAP
30
4C
04
0C
38
04
04
F8
ENDCHAR
STARTCHAR 0438
ENCODING 1080
SWIDTH 576 0
DWIDTH 8 0
BBX 7 7 1 0
BITMAP
86
8A
9A
92
A2
E2
C2
ENDCHAR
STARTCHAR 0439
ENCODING 1081
SWIDTH 576 0
DWIDTH 8 0
BBX 7 11 1 0
BITMAP
44
64
18
00
86
8A
9A
92
A2
E2
C2
ENDCHAR
STARTCHAR 043A
ENCODING 1082
SWIDTH 504 0
DWIDTH 7 0
BBX 6 7 1 0
BITMAP
88
90
A0
E0
90
98
8C
ENDCHAR
STARTCHAR 043B
ENCODING 1083
SWIDTH 576 0
DWIDTH 8 0
BBX 7 7 0 0
BITMAP
3E
22
22
22
22
62
C2
ENDCHAR
STARTCHAR 043C
ENCODING 1084
SWIDTH 720 0
DWIDTH 10 0
BBX 8 7 1 0
BITMAP
C3
E3
A5
A5
95
99
99
ENDCHAR
STARTCHAR 043D
ENCODING 1085
SWIDTH 576 0
DWIDTH 8 0
BBX 7 7 1 0
BITMAP
86
86
86
FE
86
86
86
ENDCHAR
STARTCHAR 043E
ENCODING 1086
SWIDTH 576 0
DWIDTH 8 0
BBX 7 8 1 0
BITMAP
30
6C
84
86
86
86
C4
78
ENDCHAR
STARTCHAR 043F
ENCODING 1087
SWIDTH 576 0
DWIDTH 8 0
BBX 6 7 1 0
BITMAP
FC
84
84
84
84
84
84
ENDCHAR
STARTCHAR 0440
ENCODING 1088
SWIDTH 576 0
DWIDTH 8 0
BBX 7 11 1 -3
BITMAP
10
EC
C6
86
82
C6
C4
BC
80
80
80
ENDCHAR
STARTCHAR 0441
ENCODING 1089
SWIDTH 432 0
DWIDTH 6 0
BBX 5 8 1 0
BITMAP
30
78
80
80
80
80
C0
78
ENDCHAR
STARTCHAR 0442
ENCODING 1090
SWIDTH 432 0
DWIDTH 6 0
BBX 6 7 0 0
BITMAP
FC
10
10
10
10
10
10
ENDCHAR
STARTCHAR 0443
ENCODING 1091
SWIDTH 504 0
DWIDTH 7 0
BBX 7 10 0 -3
BITMAP
C6
44
44
2C
28
28
10
10
30
E0
ENDCHAR
STARTCHAR 0444
ENCODING 1092
SWIDTH 720 0
DWIDTH 10 0
BBX 8 14 1 -3
BITMAP
18
18
18
18
7E
99
99
99
99
DB
7E
18
18
18
ENDCHAR
STARTCHAR 0445
ENCODING 1093
SWIDTH 504 0
DWIDTH 7 0
BBX 6 7 1 0
BITMAP
88
58
70
30
50
C8
8C
ENDCHAR
STARTCHAR 0446
ENCODING 1094
SWIDTH 576 0
DWIDTH 8 0
BBX 8 10 1 -3
BITMAP
84
84
84
84
84
84
FF
03
03
03
ENDCHAR
STARTCHAR 0447
ENCODING 1095
SWIDTH 576 0
DWIDTH 8 0
BBX 6 7 1 0
BITMAP
84
84
84
DC
24
04
04
ENDCHAR
STARTCHAR 0448
ENCODING 1096
SWIDTH 864 0
DWIDTH 12 0
BBX 10 7 1 0
BITMAP
8440
8440
8440
8440
8440
8440
FFC0
ENDCHAR
STARTCHAR 0449
ENCODING 1097
SWIDTH 864 0
DWIDTH 12 0
BBX 11 10 1 -3
BITMAP
8440
8440
8440
8440
8440
8440
FFE0
0020
0020
0020
ENDCHAR
STARTCHAR 044A
ENCODING 1098
SWIDTH 648 0
DWIDTH 9 0
BBX 9 7 0 0
BITMAP
F000
1000
1000
1F80
1080
1180
1F00
ENDCHAR
STARTCHAR 044B
ENCODING 1099
SWIDTH 720 0
DWIDTH 10 0
BBX 9 7 1 0
BITMAP
8180
8180
8180
FD80
8580
8580
F980
ENDCHAR
STARTCHAR 044C
ENCODING 1100
SWIDTH 576 0
DWIDTH 8 0
BBX 7 7 1 0
BITMAP
80
80
80
FC
86
84
FC
ENDCHAR
STARTCHAR 044D
ENCODING 1101
SWIDTH 432 0
DWIDTH 6 0
BBX 6 8 0 0
BITMAP
20
58
04
04
7C
04
0C
F8
ENDCHAR
STARTCHAR 044E
ENCODING 1102
SWIDTH 792 0
DWIDTH 11 0
BBX 10 8 1 0
BITMAP
0200
8D80
88C0
9840
F840
98C0
8880
8780
ENDCHAR
STARTCHAR 044F
ENCODING 1103
SWIDTH 504 0
DWIDTH 7 0
BBX 6 7 1 0
BITMAP
FC
8C
8C
FC
4C
CC
8C
ENDCHAR
STARTCHAR 0450
ENCODING 1104
SWIDTH 504 0
DWIDTH 7 0
BBX 6 11 1 0
BITMAP
60
20
10
30
48
84
84
FC
80
C0
7C
ENDCHAR
STARTCHAR 0451
ENCODING 1105
SWIDTH 504 0
DWIDTH 7 0
BBX 6 10 1 0
BITMAP
48
00
30
48
84
84
FC
80
C0
7C
ENDCHAR
STARTCHAR 0452
ENCODING 1106
SWIDTH 576 0
DWIDTH 8 0
BBX 7 14 0 -3
BITMAP
40
40
F8
40
5E
62
42
42
42
42
42
02
02
06
ENDCHAR
STARTCHAR 0453
ENCODING 1107
SWIDTH 432 0
DWIDTH 6 0
BBX 5 11 1 0
BITMAP
10
30
20
00
F8
80
80
80
80
80
80
ENDCHAR
STARTCHAR 0454
ENCODING 1108
SWIDTH 432 0
DWIDTH 6 0
BBX 5 8 1 0
BITMAP
30
68
80
80
F8
80
C0
78
ENDCHAR
STARTCHAR 0455
ENCODING 1109
SWIDTH 432 0
DWIDTH 6 0
BBX 5 8 1 0
BITMAP
30
D8
80
C0
30
08
08
F0
ENDCHAR
STARTCHAR 0456
ENCODING 1110
SWIDTH 216 0
DWIDTH 3 0
BBX 2 10 1 0
BITMAP
C0
00
00
80
80
80
80
80
80
80
ENDCHAR
STARTCHAR 0457
ENCODING 1111
SWIDTH 216 0
DWIDTH 3 0
BBX 4 10 0 0
BITMAP
B0
00
00
40
40
40
40
40
40
40
ENDCHAR
STARTCHAR 0458
ENCODING 1112
SWIDTH 216 0
DWIDTH 3 0
BBX 4 13 -1 -3
BITMAP
30
00
00
20
20
20
20
20
20
20
20
20
E0
ENDCHAR
STARTCHAR 0459
ENCODING 1113
SWIDTH 792 0
DWIDTH 11 0
BBX 11 7 0 0
BITMAP
3C00
2400
2400
27E0
2420
6420
C7C0
ENDCHAR
STARTCHAR 045A
ENCODING 1114
SWIDTH 864 0
DWIDTH 12 0
BBX 11 7 1 0
BITMAP
8400
8400
8400
FFC0
8460
8440
87C0
ENDCHAR
STARTCHAR 045B
ENCODING 1115
SWIDTH 576 0
DWIDTH 8 0
BBX 7 11 0 0
BITMAP
40
40
F8
40
5E
62
42
42
42
42
42
ENDCHAR
STARTCHAR 045C
ENCODING 1116
SWIDTH 504 0
DWIDTH 7 0
BBX 6 11 1 0
BITMAP
18
10
20
00
88
90
A0
E0
90
98
8C
ENDCHAR
STARTCHAR 045D
ENCODING 1117
SWIDTH 576 0
DWIDTH 8 0
BBX 7 11 1 0
BITMAP
20
10
08
00
86
8A
9A
92
A2
E2
C2
ENDCHAR
STARTCHAR 045E
ENCODING 1118
SWIDTH 504 0
DWIDTH 7 0
BBX 7 14 0 -3
BITMAP
44
64
18
00
C6
44
44
2C
28
28
10
10
30
E0
ENDCHAR
STARTCHAR 045F
ENCODING 1119
SWIDTH 576 0
DWIDTH 8 0
BBX 7 10 1 -3
BITMAP
86
86
86
86
86
86
FE
10
10
10
ENDCHAR
STARTCHAR 0460
ENCODING 1120
SWIDTH 864 0
DWIDTH 12 0
BBX 12 10 0 0
BITMAP
C210
C210
4210
4210
4710
6530
2520
29A0
38E0
18C0
ENDCHAR
STARTCHAR 0461
ENCODING 1121
SWIDTH 720 0
DWIDTH 10 0
BBX 11 7 0 0
BITMAP
C460
C440
4440
4E40
6A80
3A80
3100
ENDCHAR
STARTCHAR 0462
ENCODING 1122
SWIDTH 648 0
DWIDTH 9 0
BBX 9 10 0 0
BITMAP
3000
FC00
FC00
3000
3E00
3300
3180
3180
3100
3E00
ENDCHAR
STARTCHAR 0463
ENCODING 1123
SWIDTH 576 0
DWIDTH 8 0
BBX 8 9 0 0
BITMAP
20
20
F8
20
20
3F
21
21
3E
ENDCHAR
STARTCHAR 0464
ENCODING 1124
SWIDTH 864 0
DWIDTH 12 0
BBX 11 10 1 0
BITMAP
C3E0
C600
CC00
C800
FFC0
C800
C800
CC00
C600
C3E0
ENDCHAR
STARTCHAR 0465
ENCODING 1125
SWIDTH 720 0
DWIDTH 10 0
BBX 9 8 1 0
BITMAP
0300
8D80
8800
9800
FF00
9800
8800
8780
ENDCHAR
STARTCHAR 0466
ENCODING 1126
SWIDTH 648 0
DWIDTH 9 0
BBX 9 10 0 0
BITMAP
0C00
0C00
1400
1200
3E00
2B00
6900
4900
4880
C880
ENDCHAR
STARTCHAR 0467
ENCODING 1127
SWIDTH 504 0
DWIDTH 7 0
BBX 8 7 0 0
BITMAP
18
3C
24
3C
5A
5A
DB
ENDCHAR
STARTCHAR 0468
ENCODING 1128
SWIDTH 864 0
DWIDTH 12 0
BBX 12 10 1 0
BITMAP
C300
C300
C280
C480
FFC0
CD40
C940
D920
D120
D130
ENDCHAR
STARTCHAR 0469
ENCODING 1129
SWIDTH 720 0
DWIDTH 10 0
BBX 10 7 1 0
BITMAP
8600
8A00
8900
FF00
9580
9480
A4C0
ENDCHAR
STARTCHAR 046A
ENCODING 1130
SWIDTH 720 0
DWIDTH 10 0
BBX 10 10 0 0
BITMAP
7F80
6180
3300
1200
1E00
2D00
6C80
4C80
4CC0
CC40
ENDCHAR
STARTCHAR 046B
ENCODING 1131
SWIDTH 576 0
DWIDTH 8 0
BBX 9 7 0 0
BITMAP
7F00
2600
1400
3E00
4900
4900
8980
ENDCHAR
STARTCHAR 046C
ENCODING 1132
SWIDTH 936 0
DWIDTH 13 0
BBX 12 10 1 0
BITMAP
CFF0
C820
C440
C2C0
FFC0
CD20
C930
C910
D910
D110
ENDCHAR
STARTCHAR 046D
ENCODING 1133
SWIDTH 792 0
DWIDTH 11 0
BBX 11 7 1 0
BITMAP
9FC0
8980
8700
FF80
9240
9240
A260
ENDCHAR
STARTCHAR 046E
ENCODING 1134
SWIDTH 576 0
DWIDTH 8 0
BBX 7 15 0 -3
BITMAP
26
18
7C
46
02
02
3C
0E
02
02
02
7C
C0
40
3E
ENDCHAR
STARTCHAR 046F
ENCODING 1135
SWIDTH 432 0
DWIDTH 6 0
BBX 6 11 0 -3
BITMAP
6C
30
4C
04
08
38
04
04
78
80
FC
ENDCHAR
STARTCHAR 0470
ENCODING 1136
SWIDTH 792 0
DWIDTH 11 0
BBX 9 10 1 0
BITMAP
C880
C880
C880
C880
C880
4980
7F00
0800
0800
0800
ENDCHAR
STARTCHAR 0471
ENCODING 1137
SWIDTH 720 0
DWIDTH 10 0
BBX 8 14 1 -3
BITMAP
08
08
08
08
89
89
89
89
89
CB
7E
08
08
08
ENDCHAR
STARTCHAR 0472
ENCODING 1138
SWIDTH 720 0
DWIDTH 10 0
BBX 9 10 1 0
BITMAP
3E00
6300
C180
8080
FF80
8080
8080
C180
4300
3E00
ENDCHAR
STARTCHAR 0473
ENCODING 1139
SWIDTH 576 0
DWIDTH 8 0
BBX 7 8 1 0
BITMAP
30
6C
84
86
FE
86
C4
78
ENDCHAR
STARTCHAR 0474
ENCODING 1140
SWIDTH 576 0
DWIDTH 8 0
BBX 9 10 0 0
BITMAP
8180
4300
4200
6200
2600
2400
3400
1400
1800
1800
ENDCHAR
STARTCHAR 0475
ENCODING 1141
SWIDTH 504 0
DWIDTH 7 0
BBX 7 7 0 1
BITMAP
C6
44
44
68
28
28
18
ENDCHAR
STARTCHAR 0476
ENCODING 1142
SWIDTH 576 0
DWIDTH 8 0
BBX 9 13 0 0
BITMAP
2800
2400
0000
8180
4300
4200
6200
2600
2400
3400
1400
1800
1800
ENDCHAR
STARTCHAR 0477
ENCODING 1143
SWIDTH 504 0
DWIDTH 7 0
BBX 7 11 0 0
BITMAP
D0
48
20
00
C6
44
44
68
28
28
18
ENDCHAR
STARTCHAR 0478
ENCODING 1144
SWIDTH 1152 0
DWIDTH 16 0
BBX 16 13 1 -3
BITMAP
3C00
4200
C100
8143
8122
8122
8134
C114
4214
3C08
0008
0018
0070
ENDCHAR
STARTCHAR 0479
ENCODING 1145
SWIDTH 1080 0
DWIDTH 15 0
BBX 14 11 1 -3
BITMAP
3000
6C84
8488
86C8
8658
8650
C430
7830
0020
0020
01C0
ENDCHAR
STARTCHAR 047A
ENCODING 1146
SWIDTH 792 0
DWIDTH 11 0
BBX 10 12 1 -1
BITMAP
0800
3E00
6900
C080
8080
80C0
80C0
8080
C080
6900
3E00
0800
ENDCHAR
STARTCHAR 047B
ENCODING 1147
SWIDTH 648 0
DWIDTH 9 0
BBX 7 9 1 -1
BITMAP
10
7C
82
82
82
82
C6
7C
10
ENDCHAR
STARTCHAR 047C
ENCODING 1148
SWIDTH 1008 0
DWIDTH 14 0
BBX 12 14 1 0
BITMAP
0F80
0600
0200
0000
39E0
4030
C010
8010
8010
8610
8610
C610
4630
3FE0
ENDCHAR
STARTCHAR 047D
ENCODING 1149
SWIDTH 864 0
DWIDTH 12 0
BBX 11 12 1 0
BITMAP
1E00
0400
0400
0800
3180
52C0
8060
8060
8460
8460
C440
7BC0
ENDCHAR
STARTCHAR 047E
ENCODING 1150
SWIDTH 864 0
DWIDTH 12 0
BBX 12 12 0 0
BITMAP
0F80
0000
C210
C210
4210
4210
4710
6530
2520
29A0
38E0
18C0
ENDCHAR
STARTCHAR 047F
ENCODING 1151
SWIDTH 720 0
DWIDTH 10 0
BBX 11 10 0 0
BITMAP
1F00
0500
0000
C460
C440
4440
4E40
6A80
3A80
3100
ENDCHAR
STARTCHAR 0480
ENCODING 1152
SWIDTH 576 0
DWIDTH 8 0
BBX 7 13 1 -3
BITMAP
3E
60
C0
80
80
80
80
C0
60
3C
04
04
04
ENDCHAR
STARTCHAR 0481
ENCODING 1153
SWIDTH 432 0
DWIDTH 6 0
BBX 5 11 1 -3
BITMAP
30
68
80
80
80
80
C0
78
18
18
18
ENDCHAR
STARTCHAR 0482
ENCODING 1154
SWIDTH 576 0
DWIDTH 8 0
BBX 6 9 1 0
BITMAP
04
0C
38
1C
10
E0
30
48
C0
ENDCHAR
STARTCHAR 0483
ENCODING 1155
SWIDTH 0 0
DWIDTH 0 0
BBX 5 2 -6 8
BITMAP
18
E0
ENDCHAR
STARTCHAR 0484
ENCODING 1156
SWIDTH 0 0
DWIDTH 0 0
BBX 5 2 -6 8
BITMAP
78
88
ENDCHAR
STARTCHAR 0485
ENCODING 1157
SWIDTH 0 0
DWIDTH 0 0
BBX 2 2 -5 8
BITMAP
C0
80
ENDCHAR
STARTCHAR 0486
ENCODING 1158
SWIDTH 0 0
DWIDTH 0 0
BBX 2 3 -5 8
BITMAP
C0
40
80
ENDCHAR
STARTCHAR 0487
ENCODING 1159
SWIDTH 0 0
DWIDTH 0 0
BBX 4 1 -2 11
BITMAP
F0
ENDCHAR
STARTCHAR 0488
ENCODING 1160
SWIDTH 0 0
DWIDTH 0 0
BBX 16 14 -8 -3
BITMAP
0180
0240
1008
6814
0000
0000
4002
A00D
0000
0000
0000
781C
0000
0380
ENDCHAR
STARTCHAR 0489
ENCODING 1161
SWIDTH 0 0
DWIDTH 0 0
BBX 16 15 -8 -4
BITMAP
0080
0100
100C
1818
0000
0000
8000
6007
0000
0000
0010
1818
2088
0100
0100
ENDCHAR
STARTCHAR 048A
ENCODING 1162
SWIDTH 720 0
DWIDTH 10 0
BBX 10 16 1 -3
BITMAP
2200
3C00
0000
C100
C300
C700
C500
C900
D900
9100
A100
E100
C1C0
0080
0080
0180
ENDCHAR
STARTCHAR 048B
ENCODING 1163
SWIDTH 648 0
DWIDTH 9 0
BBX 8 14 1 -3
BITMAP
44
64
18
00
86
8A
9A
92
A2
E2
C3
01
02
02
ENDCHAR
STARTCHAR 048C
ENCODING 1164
SWIDTH 576 0
DWIDTH 8 0
BBX 8 10 0 0
BITMAP
60
F8
60
60
7C
66
63
63
63
7E
ENDCHAR
STARTCHAR 048D
ENCODING 1165
SWIDTH 576 0
DWIDTH 8 0
BBX 8 11 0 0
BITMAP
40
40
F0
40
40
40
40
7E
43
42
7E
ENDCHAR
STARTCHAR 048E
ENCODING 1166
SWIDTH 576 0
DWIDTH 8 0
BBX 7 10 1 0
BITMAP
F8
C4
C6
C6
DC
FC
C4
C0
C0
C0
ENDCHAR
STARTCHAR 048F
ENCODING 1167
SWIDTH 576 0
DWIDTH 8 0
BBX 7 11 1 -3
BITMAP
10
EC
C6
86
82
C6
CC
BC
84
80
80
ENDCHAR
STARTCHAR 0490
ENCODING 1168
SWIDTH 504 0
DWIDTH 7 0
BBX 6 12 1 0
BITMAP
04
04
FC
C0
C0
C0
C0
C0
C0
C0
C0
C0
ENDCHAR
STARTCHAR 0491
ENCODING 1169
SWIDTH 432 0
DWIDTH 6 0
BBX 5 10 1 0
BITMAP
08
08
08
F8
80
80
80
80
80
80
ENDCHAR
STARTCHAR 0492
ENCODING 1170
SWIDTH 504 0
DWIDTH 7 0
BBX 7 10 0 0
BITMAP
7E
60
60
60
60
F8
60
60
60
60
ENDCHAR
STARTCHAR 0493
ENCODING 1171
SWIDTH 432 0
DWIDTH 6 0
BBX 6 7 0 0
BITMAP
7C
40
40
F8
40
40
40
ENDCHAR
STARTCHAR 0494
ENCODING 1172
SWIDTH 648 0
DWIDTH 9 0
BBX 8 13 1 -3
BITMAP
FC
C0
C0
C0
C0
FC
C6
C2
C3
C3
02
02
3C
ENDCHAR
STARTCHAR 0495
ENCODING 1173
SWIDTH 504 0
DWIDTH 7 0
BBX 6 10 1 -3
BITMAP
F8
80
80
F8
8C
84
84
04
0C
78
ENDCHAR
STARTCHAR 0496
ENCODING 1174
SWIDTH 864 0
DWIDTH 12 0
BBX 12 13 0 -3
BITMAP
C620
6660
26C0
1680
0F00
0F00
1680
26C0
6660
C630
0010
0010
0010
ENDCHAR
STARTCHAR 0497
ENCODING 1175
SWIDTH 792 0
DWIDTH 11 0
BBX 11 10 0 -3
BITMAP
44C0
2500
1700
1E00
3500
6480
C460
0020
0020
0020
ENDCHAR
STARTCHAR 0498
ENCODING 1176
SWIDTH 576 0
DWIDTH 8 0
BBX 6 13 1 -3
BITMAP
F8
84
04
04
78
1C
04
04
04
F8
20
10
30
ENDCHAR
STARTCHAR 0499
ENCODING 1177
SWIDTH 432 0
DWIDTH 6 0
BBX 6 11 0 -3
BITMAP
30
4C
04
0C
38
04
04
F8
10
10
30
ENDCHAR
STARTCHAR 049A
ENCODING 1178
SWIDTH 648 0
DWIDTH 9 0
BBX 8 13 1 -3
BITMAP
C2
C4
C8
D0
E0
F0
D0
C8
C4
C3
01
01
01
ENDCHAR
STARTCHAR 049B
ENCODING 1179
SWIDTH 504 0
DWIDTH 7 0
BBX 7 10 1 -3
BITMAP
88
90
A0
E0
90
98
8E
06
06
06
ENDCHAR
STARTCHAR 049C
ENCODING 1180
SWIDTH 576 0
DWIDTH 8 0
BBX 7 10 1 0
BITMAP
C2
C4
E8
F0
E0
F0
F0
E8
C4
C2
ENDCHAR
STARTCHAR 049D
ENCODING 1181
SWIDTH 504 0
DWIDTH 7 0
BBX 6 7 1 0
BITMAP
A8
B0
A0
E0
B0
B8
8C
ENDCHAR
STARTCHAR 049E
ENCODING 1182
SWIDTH 576 0
DWIDTH 8 0
BBX 8 10 0 0
BITMAP
61
F2
64
68
70
78
68
64
62
61
ENDCHAR
STARTCHAR 049F
ENCODING 1183
SWIDTH 504 0
DWIDTH 7 0
BBX 7 11 0 0
BITMAP
40
40
F8
40
44
48
50
70
48
4C
46
ENDCHAR
STARTCHAR 04A0
ENCODING 1184
SWIDTH 648 0
DWIDTH 9 0
BBX 9 10 0 0
BITMAP
F080
3100
3200
3400
3800
3C00
3600
3200
3100
3080
ENDCHAR
STARTCHAR 04A1
ENCODING 1185
SWIDTH 576 0
DWIDTH 8 0
BBX 8 7 0 0
BITMAP
F3
16
1C
18
14
12
11
ENDCHAR
STARTCHAR 04A2
ENCODING 1186
SWIDTH 720 0
DWIDTH 10 0
BBX 9 13 1 -3
BITMAP
C100
C100
C100
C100
FF00
C100
C100
C100
C100
C180
0080
0080
0080
ENDCHAR
STARTCHAR 04A3
ENCODING 1187
SWIDTH 648 0
DWIDTH 9 0
BBX 8 10 1 -3
BITMAP
86
86
86
FE
86
86
87
01
01
01
ENDCHAR
STARTCHAR 04A4
ENCODING 1188
SWIDTH 792 0
DWIDTH 11 0
BBX 10 10 1 0
BITMAP
C1C0
C100
C100
C100
FF00
C100
C100
C100
C100
C100
ENDCHAR
STARTCHAR 04A5
ENCODING 1189
SWIDTH 720 0
DWIDTH 10 0
BBX 9 7 1 0
BITMAP
8780
8600
8600
FE00
8600
8600
8600
ENDCHAR
STARTCHAR 04A6
ENCODING 1190
SWIDTH 1008 0
DWIDTH 14 0
BBX 13 13 1 -3
BITMAP
FE00
C200
C200
C200
C200
C3F0
C218
C208
C208
C208
0008
0018
00F0
ENDCHAR
STARTCHAR 04A7
ENCODING 1191
SWIDTH 792 0
DWIDTH 11 0
BBX 11 10 1 -3
BITMAP
FC00
8400
8400
87C0
8440
8440
8460
0060
0040
03C0
ENDCHAR
STARTCHAR 04A8
ENCODING 1192
SWIDTH 720 0
DWIDTH 10 0
BBX 9 11 1 -1
BITMAP
3C00
4000
C700
8D80
8880
8880
8880
CD80
6700
3F80
0080
ENDCHAR
STARTCHAR 04A9
ENCODING 1193
SWIDTH 576 0
DWIDTH 8 0
BBX 7 8 1 0
BITMAP
30
40
8C
92
92
92
DE
7E
ENDCHAR
STARTCHAR 04AA
ENCODING 1194
SWIDTH 576 0
DWIDTH 8 0
BBX 7 13 1 -3
BITMAP
3E
60
C0
80
80
80
80
C0
60
3E
08
08
18
ENDCHAR
STARTCHAR 04AB
ENCODING 1195
SWIDTH 432 0
DWIDTH 6 0
BBX 5 11 1 -3
BITMAP
30
78
80
80
80
80
C0
78
10
10
30
ENDCHAR
STARTCHAR 04AC
ENCODING 1196
SWIDTH 504 0
DWIDTH 7 0
BBX 8 13 0 -3
BITMAP
FF
10
10
10
10
10
10
10
10
1C
0C
0C
0C
ENDCHAR
STARTCHAR 04AD
ENCODING 1197
SWIDTH 432 0
DWIDTH 6 0
BBX 6 10 0 -3
BITMAP
FC
10
10
10
10
10
18
08
08
08
ENDCHAR
STARTCHAR 04AE
ENCODING 1198
SWIDTH 504 0
DWIDTH 7 0
BBX 8 10 0 0
BITMAP
C3
42
66
24
38
18
18
18
18
18
ENDCHAR
STARTCHAR 04AF
ENCODING 1199
SWIDTH 504 0
DWIDTH 7 0
BBX 7 10 0 -3
BITMAP
C6
44
44
2C
28
28
10
10
10
10
ENDCHAR
STARTCHAR 04B0
ENCODING 1200
SWIDTH 504 0
DWIDTH 7 0
BBX 8 10 0 0
BITMAP
C3
42
66
24
38
18
18
7E
18
18
ENDCHAR
STARTCHAR 04B1
ENCODING 1201
SWIDTH 504 0
DWIDTH 7 0
BBX 7 10 0 -3
BITMAP
C6
44
44
2C
28
28
10
7C
10
10
ENDCHAR
STARTCHAR 04B2
ENCODING 1202
SWIDTH 576 0
DWIDTH 8 0
BBX 9 13 0 -3
BITMAP
4300
6200
2400
3C00
1800
1800
3400
2400
4200
C380
0180
0180
0180
ENDCHAR
STARTCHAR 04B3
ENCODING 1203
SWIDTH 504 0
DWIDTH 7 0
BBX 6 10 1 -3
BITMAP
88
58
70
30
50
C8
8C
04
04
04
ENDCHAR
STARTCHAR 04B4
ENCODING 1204
SWIDTH 792 0
DWIDTH 11 0
BBX 12 13 0 -3
BITMAP
FE40
1040
1040
1040
1040
1040
1040
1040
1040
1FF0
0030
0030
0030
ENDCHAR
STARTCHAR 04B5
ENCODING 1205
SWIDTH 720 0
DWIDTH 10 0
BBX 10 10 0 -3
BITMAP
FD80
3180
3180
3180
3180
3180
3FC0
0040
0040
0040
ENDCHAR
STARTCHAR 04B6
ENCODING 1206
SWIDTH 648 0
DWIDTH 9 0
BBX 9 13 1 -3
BITMAP
8200
8200
8200
8200
8200
7E00
3200
0200
0200
0380
0180
0180
0180
ENDCHAR
STARTCHAR 04B7
ENCODING 1207
SWIDTH 576 0
DWIDTH 8 0
BBX 7 10 1 -3
BITMAP
84
84
84
DC
24
04
06
02
02
02
ENDCHAR
STARTCHAR 04B8
ENCODING 1208
SWIDTH 648 0
DWIDTH 9 0
BBX 7 10 1 0
BITMAP
82
82
82
92
92
7E
32
12
12
02
ENDCHAR
STARTCHAR 04B9
ENCODING 1209
SWIDTH 576 0
DWIDTH 8 0
BBX 6 7 1 0
BITMAP
84
84
A4
DC
24
24
04
ENDCHAR
STARTCHAR 04BA
ENCODING 1210
SWIDTH 648 0
DWIDTH 9 0
BBX 8 10 1 0
BITMAP
C0
C0
C0
C0
FE
C3
C3
C3
C3
C3
ENDCHAR
STARTCHAR 04BB
ENCODING 1211
SWIDTH 576 0
DWIDTH 8 0
BBX 6 11 1 0
BITMAP
80
80
80
98
EC
C4
84
84
84
84
84
ENDCHAR
STARTCHAR 04BC
ENCODING 1212
SWIDTH 792 0
DWIDTH 11 0
BBX 11 10 0 0
BITMAP
0780
1840
1060
9020
FFE0
3FE0
1000
1000
1800
0FC0
ENDCHAR
STARTCHAR 04BD
ENCODING 1213
SWIDTH 648 0
DWIDTH 9 0
BBX 9 8 0 0
BITMAP
0400
1B00
B100
E180
3F80
3000
1000
0F00
ENDCHAR
STARTCHAR 04BE
ENCODING 1214
SWIDTH 792 0
DWIDTH 11 0
BBX 11 13 0 -3
BITMAP
0780
1840
1060
9020
FFE0
3FE0
1000
1000
1800
0FC0
0300
0300
0300
ENDCHAR
STARTCHAR 04BF
ENCODING 1215
SWIDTH 648 0
DWIDTH 9 0
BBX 9 11 0 -3
BITMAP
0400
1B00
B100
E180
3F80
3000
1000
0F00
0400
0400
0400
ENDCHAR
STARTCHAR 04C0
ENCODING 1216
SWIDTH 288 0
DWIDTH 4 0
BBX 3 10 1 0
BITMAP
E0
40
40
40
40
40
40
40
40
E0
ENDCHAR
STARTCHAR 04C1
ENCODING 1217
SWIDTH 792 0
DWIDTH 11 0
BBX 11 13 0 0
BITMAP
1900
0F00
0000
C620
6660
26C0
1680
0F00
0F00
1680
26C0
6660
C620
ENDCHAR
STARTCHAR 04C2
ENCODING 1218
SWIDTH 720 0
DWIDTH 10 0
BBX 10 11 0 0
BITMAP
1100
1300
0C00
0000
44C0
2500
1700
1E00
3500
6480
C440
ENDCHAR
STARTCHAR 04C3
ENCODING 1219
SWIDTH 648 0
DWIDTH 9 0
BBX 8 13 1 -3
BITMAP
C2
C4
C8
D0
E0
FC
C2
C3
C1
C1
03
02
3E
ENDCHAR
STARTCHAR 04C4
ENCODING 1220
SWIDTH 504 0
DWIDTH 7 0
BBX 6 10 1 -3
BITMAP
88
90
A0
F8
8C
84
84
04
04
38
ENDCHAR
STARTCHAR 04C5
ENCODING 1221
SWIDTH 648 0
DWIDTH 9 0
BBX 10 13 0 -3
BITMAP
1F00
1100
1100
1100
3100
3100
2100
2100
2100
C1C0
0080
0080
0180
ENDCHAR
STARTCHAR 04C6
ENCODING 1222
SWIDTH 576 0
DWIDTH 8 0
BBX 8 10 0 -3
BITMAP
3E
22
22
22
22
62
C3
01
02
02
ENDCHAR
STARTCHAR 04C7
ENCODING 1223
SWIDTH 720 0
DWIDTH 10 0
BBX 8 13 1 -3
BITMAP
C1
C1
C1
C1
FF
C1
C1
C1
C1
C1
01
02
3E
ENDCHAR
STARTCHAR 04C8
ENCODING 1224
SWIDTH 576 0
DWIDTH 8 0
BBX 7 10 1 -3
BITMAP
86
86
86
FE
86
86
86
06
04
3C
ENDCHAR
STARTCHAR 04C9
ENCODING 1225
SWIDTH 720 0
DWIDTH 10 0
BBX 9 13 1 -3
BITMAP
C100
C100
C100
C100
FF00
C100
C100
C100
C100
C180
0080
0180
0100
ENDCHAR
STARTCHAR 04CA
ENCODING 1226
SWIDTH 648 0
DWIDTH 9 0
BBX 8 10 1 -3
BITMAP
86
86
86
FE
86
86
87
01
02
02
ENDCHAR
STARTCHAR 04CB
ENCODING 1227
SWIDTH 648 0
DWIDTH 9 0
BBX 7 13 1 -3
BITMAP
82
82
82
82
82
7E
32
02
02
06
04
04
04
ENDCHAR
STARTCHAR 04CC
ENCODING 1228
SWIDTH 576 0
DWIDTH 8 0
BBX 6 10 1 -3
BITMAP
84
84
84
DC
24
04
0C
08
08
08
ENDCHAR
STARTCHAR 04CD
ENCODING 1229
SWIDTH 864 0
DWIDTH 12 0
BBX 11 13 1 -3
BITMAP
C0C0
A0C0
A1C0
A140
D140
D240
DA40
CA40
CC40
C460
0020
0020
0060
ENDCHAR
STARTCHAR 04CE
ENCODING 1230
SWIDTH 720 0
DWIDTH 10 0
BBX 9 10 1 -3
BITMAP
C300
E300
A500
A500
9500
9900
9980
0080
0080
0180
ENDCHAR
STARTCHAR 04CF
ENCODING 1231
SWIDTH 288 0
DWIDTH 4 0
BBX 3 10 1 0
BITMAP
E0
40
40
40
40
40
40
40
40
E0
ENDCHAR
STARTCHAR 04D0
ENCODING 1232
SWIDTH 576 0
DWIDTH 8 0
BBX 9 13 0 0
BITMAP
2200
3C00
0000
0800
1C00
1400
1400
2200
2200
7F00
4100
4100
8180
ENDCHAR
STARTCHAR 04D1
ENCODING 1233
SWIDTH 504 0
DWIDTH 7 0
BBX 6 11 1 0
BITMAP
8C
48
30
30
48
0C
0C
FC
8C
8C
F4
ENDCHAR
STARTCHAR 04D2
ENCODING 1234
SWIDTH 576 0
DWIDTH 8 0
BBX 9 13 0 0
BITMAP
1400
1400
0000
0800
1C00
1400
1400
2200
2200
7F00
4100
4100
8180
ENDCHAR
STARTCHAR 04D3
ENCODING 1235
SWIDTH 504 0
DWIDTH 7 0
BBX 6 10 1 0
BITMAP
48
00
30
48
0C
0C
FC
8C
8C
F4
ENDCHAR
STARTCHAR 04D4
ENCODING 1236
SWIDTH 864 0
DWIDTH 12 0
BBX 11 10 0 0
BITMAP
0FE0
0A00
0A00
1200
13E0
2200
3E00
4200
4200
C3E0
ENDCHAR
STARTCHAR 04D5
ENCODING 1237
SWIDTH 864 0
DWIDTH 12 0
BBX 10 8 1 0
BITMAP
3100
DEC0
0C40
0C40
FFC0
8C00
8C00
F3C0
ENDCHAR
STARTCHAR 04D6
ENCODING 1238
SWIDTH 504 0
DWIDTH 7 0
BBX 6 13 1 0
BITMAP
44
78
00
FC
C0
C0
C0
FC
C0
C0
C0
C0
FC
ENDCHAR
STARTCHAR 04D7
ENCODING 1239
SWIDTH 504 0
DWIDTH 7 0
BBX 6 11 1 0
BITMAP
CC
48
30
30
48
84
84
FC
80
C0
7C
ENDCHAR
STARTCHAR 04D8
ENCODING 1240
SWIDTH 720 0
DWIDTH 10 0
BBX 8 10 1 0
BITMAP
FC
82
01
01
01
FF
81
81
42
3C
ENDCHAR
STARTCHAR 04D9
ENCODING 1241
SWIDTH 504 0
DWIDTH 7 0
BBX 6 8 1 0
BITMAP
60
D8
0C
04
FC
84
8C
78
ENDCHAR
STARTCHAR 04DA
ENCODING 1242
SWIDTH 720 0
DWIDTH 10 0
BBX 8 13 1 0
BITMAP
24
24
00
FC
82
01
01
01
FF
81
81
42
3C
ENDCHAR
STARTCHAR 04DB
ENCODING 1243
SWIDTH 504 0
DWIDTH 7 0
BBX 6 10 1 0
BITMAP
58
00
60
D8
0C
04
FC
84
8C
78
ENDCHAR
STARTCHAR 04DC
ENCODING 1244
SWIDTH 792 0
DWIDTH 11 0
BBX 11 13 0 0
BITMAP
0900
0900
0000
C620
6660
26C0
1680
0F00
0F00
1680
26C0
6660
C620
ENDCHAR
STARTCHAR 04DD
ENCODING 1245
SWIDTH 720 0
DWIDTH 10 0
BBX 10 10 0 0
BITMAP
1A00
0000
0000
44C0
2500
1700
1E00
3500
6480
C440
ENDCHAR
STARTCHAR 04DE
ENCODING 1246
SWIDTH 576 0
DWIDTH 8 0
BBX 6 13 1 0
BITMAP
48
48
00
F8
84
04
04
78
1C
04
04
04
F8
ENDCHAR
STARTCHAR 04DF
ENCODING 1247
SWIDTH 432 0
DWIDTH 6 0
BBX 6 10 0 0
BITMAP
68
00
30
4C
04
0C
38
04
04
F8
ENDCHAR
STARTCHAR 04E0
ENCODING 1248
SWIDTH 576 0
DWIDTH 8 0
BBX 7 10 0 0
BITMAP
7E
04
08
10
38
0E
02
02
86
FC
ENDCHAR
STARTCHAR 04E1
ENCODING 1249
SWIDTH 432 0
DWIDTH 6 0
BBX 6 10 0 -3
BITMAP
FC
08
10
20
38
04
04
04
04
F8
ENDCHAR
STARTCHAR 04E2
ENCODING 1250
SWIDTH 720 0
DWIDTH 10 0
BBX 8 12 1 0
BITMAP
3E
00
C1
C3
C7
C5
C9
D9
D1
A1
E1
C1
ENDCHAR
STARTCHAR 04E3
ENCODING 1251
SWIDTH 576 0
DWIDTH 8 0
BBX 7 9 1 0
BITMAP
3C
00
86
8A
9A
92
A2
E2
C2
ENDCHAR
STARTCHAR 04E4
ENCODING 1252
SWIDTH 720 0
DWIDTH 10 0
BBX 8 13 1 0
BITMAP
14
14
00
C1
C3
C7
C5
C9
D9
D1
A1
E1
C1
ENDCHAR
STARTCHAR 04E5
ENCODING 1253
SWIDTH 576 0
DWIDTH 8 0
BBX 7 10 1 0
BITMAP
2C
00
00
86
8A
9A
92
A2
E2
C2
ENDCHAR
STARTCHAR 04E6
ENCODING 1254
SWIDTH 720 0
DWIDTH 10 0
BBX 9 13 1 0
BITMAP
1400
1400
0000
3E00
6300
C180
8080
8080
8080
8080
C180
4300
3E00
ENDCHAR
STARTCHAR 04E7
ENCODING 1255
SWIDTH 576 0
DWIDTH 8 0
BBX 7 10 1 0
BITMAP
68
00
30
6C
84
86
86
86
C4
78
ENDCHAR
STARTCHAR 04E8
ENCODING 1256
SWIDTH 720 0
DWIDTH 10 0
BBX 9 10 1 0
BITMAP
3E00
6300
C180
8080
FF80
8080
8080
C180
4300
3E00
ENDCHAR
STARTCHAR 04E9
ENCODING 1257
SWIDTH 576 0
DWIDTH 8 0
BBX 7 8 1 0
BITMAP
30
6C
84
86
FE
86
C4
78
ENDCHAR
STARTCHAR 04EA
ENCODING 1258
SWIDTH 720 0
DWIDTH 10 0
BBX 9 12 1 0
BITMAP
1400
0000
3E00
6300
C180
8080
FF80
8080
8080
C180
4300
3E00
ENDCHAR
STARTCHAR 04EB
ENCODING 1259
SWIDTH 576 0
DWIDTH 8 0
BBX 7 10 1 0
BITMAP
68
00
30
6C
84
86
FE
86
C4
78
ENDCHAR
STARTCHAR 04EC
ENCODING 1260
SWIDTH 576 0
DWIDTH 8 0
BBX 8 13 0 0
BITMAP
08
68
00
FC
06
02
03
3F
01
03
02
06
FC
ENDCHAR
STARTCHAR 04ED
ENCODING 1261
SWIDTH 432 0
DWIDTH 6 0
BBX 6 10 0 0
BITMAP
48
00
20
58
04
04
7C
04
0C
F8
ENDCHAR
STARTCHAR 04EE
ENCODING 1262
SWIDTH 576 0
DWIDTH 8 0
BBX 8 12 0 0
BITMAP
3E
00
C1
41
63
22
36
14
1C
08
18
70
ENDCHAR
STARTCHAR 04EF
ENCODING 1263
SWIDTH 504 0
DWIDTH 7 0
BBX 7 12 0 -3
BITMAP
7C
00
C6
44
44
2C
28
28
10
10
30
E0
ENDCHAR
STARTCHAR 04F0
ENCODING 1264
SWIDTH 576 0
DWIDTH 8 0
BBX 8 13 0 0
BITMAP
14
14
00
C1
41
63
22
36
14
1C
08
18
70
ENDCHAR
STARTCHAR 04F1
ENCODING 1265
SWIDTH 504 0
DWIDTH 7 0
BBX 7 13 0 -3
BITMAP
28
00
00
C6
44
44
2C
28
28
10
10
30
E0
ENDCHAR
STARTCHAR 04F2
ENCODING 1266
SWIDTH 576 0
DWIDTH 8 0
BBX 8 13 0 0
BITMAP
0A
12
00
C1
41
63
22
36
14
1C
08
18
70
ENDCHAR
STARTCHAR 04F3
ENCODING 1267
SWIDTH 504 0
DWIDTH 7 0
BBX 7 14 0 -3
BITMAP
16
34
28
00
C6
44
44
2C
28
28
10
10
30
E0
ENDCHAR
STARTCHAR 04F4
ENCODING 1268
SWIDTH 648 0
DWIDTH 9 0
BBX 7 13 1 0
BITMAP
20
2C
00
82
82
82
82
82
7E
32
02
02
02
ENDCHAR
STARTCHAR 04F5
ENCODING 1269
SWIDTH 576 0
DWIDTH 8 0
BBX 6 10 1 0
BITMAP
48
00
00
84
84
84
DC
24
04
04
ENDCHAR
STARTCHAR 04F6
ENCODING 1270
SWIDTH 504 0
DWIDTH 7 0
BBX 6 13 1 -3
BITMAP
FC
C0
C0
C0
C0
C0
C0
C0
C0
E0
20
20
20
ENDCHAR
STARTCHAR 04F7
ENCODING 1271
SWIDTH 432 0
DWIDTH 6 0
BBX 5 10 1 -3
BITMAP
F8
80
80
80
80
80
E0
60
60
60
ENDCHAR
STARTCHAR 04F8
ENCODING 1272
SWIDTH 792 0
DWIDTH 11 0
BBX 10 13 1 0
BITMAP
1200
1200
0000
C0C0
C0C0
C0C0
C0C0
F8C0
CCC0
C6C0
C6C0
C4C0
FCC0
ENDCHAR
STARTCHAR 04F9
ENCODING 1273
SWIDTH 720 0
DWIDTH 10 0
BBX 9 10 1 0
BITMAP
3400
0000
0000
8180
8180
8180
FD80
8580
8580
F980
ENDCHAR
STARTCHAR 04FA
ENCODING 1274
SWIDTH 504 0
DWIDTH 7 0
BBX 7 13 0 -3
BITMAP
7E
60
60
60
60
F8
60
60
60
70
10
30
60
ENDCHAR
STARTCHAR 04FB
ENCODING 1275
SWIDTH 432 0
DWIDTH 6 0
BBX 6 10 0 -3
BITMAP
7C
40
40
F8
40
40
60
20
20
60
ENDCHAR
STARTCHAR 04FC
ENCODING 1276
SWIDTH 576 0
DWIDTH 8 0
BBX 8 13 0 -3
BITMAP
43
62
24
3C
18
18
34
24
42
C3
01
01
03
ENDCHAR
STARTCHAR 04FD
ENCODING 1277
SWIDTH 504 0
DWIDTH 7 0
BBX 6 10 1 -3
BITMAP
88
58
70
30
50
C8
8C
04
04
0C
ENDCHAR
STARTCHAR 04FE
ENCODING 1278
SWIDTH 576 0
DWIDTH 8 0
BBX 8 10 0 0
BITMAP
43
62
24
3C
7E
18
34
24
42
C3
ENDCHAR
STARTCHAR 04FF
ENCODING 1279
SWIDTH 504 0
DWIDTH 7 0
BBX 6 7 1 0
BITMAP
88
58
70
FC
50
C8
8C
ENDCHAR
STARTCHAR 0500
ENCODING 1280
SWIDTH 576 0
DWIDTH 8 0
BBX 6 10 1 0
BITMAP
04
04
04
04
3C
C4
84
84
C4
7C
ENDCHAR
STARTCHAR 0501
ENCODING 1281
SWIDTH 576 0
DWIDTH 8 0
BBX 6 11 1 0
BITMAP
04
04
04
34
4C
84
84
84
84
C4
7C
ENDCHAR
STARTCHAR 0502
ENCODING 1282
SWIDTH 864 0
DWIDTH 12 0
BBX 10 10 1 0
BITMAP
0400
0400
0400
0400
3C40
E440
8440
8440
CC40
7B80
ENDCHAR
STARTCHAR 0503
ENCODING 1283
SWIDTH 864 0
DWIDTH 12 0
BBX 10 11 1 0
BITMAP
0400
0400
0400
2400
5C00
8400
8440
8440
8440
CC40
7BC0
ENDCHAR
STARTCHAR 0504
ENCODING 1284
SWIDTH 864 0
DWIDTH 12 0
BBX 10 10 1 0
BITMAP
F800
8C00
0400
0C00
7040
1840
0440
0440
0440
03C0
ENDCHAR
STARTCHAR 0505
ENCODING 1285
SWIDTH 792 0
DWIDTH 11 0
BBX 9 8 1 0
BITMAP
6000
9000
0800
1080
7080
0880
0880
0F00
ENDCHAR
STARTCHAR 0506
ENCODING 1286
SWIDTH 576 0
DWIDTH 8 0
BBX 7 13 1 -3
BITMAP
F8
8C
04
0C
78
18
04
04
04
06
02
02
02
ENDCHAR
STARTCHAR 0507
ENCODING 1287
SWIDTH 504 0
DWIDTH 7 0
BBX 6 11 1 -3
BITMAP
60
98
08
10
70
08
08
0C
04
04
04
ENDCHAR
STARTCHAR 0508
ENCODING 1288
SWIDTH 936 0
DWIDTH 13 0
BBX 12 10 0 0
BITMAP
1F00
1100
1100
1100
3110
3110
2110
2110
2110
C0F0
ENDCHAR
STARTCHAR 0509
ENCODING 1289
SWIDTH 792 0
DWIDTH 11 0
BBX 11 7 0 0
BITMAP
3E00
2600
2620
2620
2220
6260
C3C0
ENDCHAR
STARTCHAR 050A
ENCODING 1290
SWIDTH 1008 0
DWIDTH 14 0
BBX 12 10 1 0
BITMAP
C300
C300
C300
C300
FF10
C310
C310
C310
C130
C1E0
ENDCHAR
STARTCHAR 050B
ENCODING 1291
SWIDTH 864 0
DWIDTH 12 0
BBX 11 7 1 0
BITMAP
8600
8600
8660
FE60
8660
8640
83C0
ENDCHAR
STARTCHAR 050C
ENCODING 1292
SWIDTH 720 0
DWIDTH 10 0
BBX 9 10 1 0
BITMAP
3F00
6100
C000
8000
8000
8780
8180
C180
6100
3E00
ENDCHAR
STARTCHAR 050D
ENCODING 1293
SWIDTH 576 0
DWIDTH 8 0
BBX 7 8 1 0
BITMAP
18
64
80
80
8E
82
C6
7C
ENDCHAR
STARTCHAR 050E
ENCODING 1294
SWIDTH 648 0
DWIDTH 9 0
BBX 9 10 0 0
BITMAP
FE00
1000
1000
1000
1180
1180
1180
1180
1980
0F00
ENDCHAR
STARTCHAR 050F
ENCODING 1295
SWIDTH 648 0
DWIDTH 9 0
BBX 8 7 0 0
BITMAP
FC
10
11
11
11
11
1E
ENDCHAR
STARTCHAR 0510
ENCODING 1296
SWIDTH 576 0
DWIDTH 8 0
BBX 7 10 1 0
BITMAP
7C
C4
80
C0
7C
60
80
80
C2
7E
ENDCHAR
STARTCHAR 0511
ENCODING 1297
SWIDTH 432 0
DWIDTH 6 0
BBX 5 8 1 0
BITMAP
30
C8
80
C0
F0
80
80
F8
ENDCHAR
STARTCHAR 0512
ENCODING 1298
SWIDTH 648 0
DWIDTH 9 0
BBX 10 13 0 -3
BITMAP
1F00
1100
1100
1100
3100
3100
2100
2100
2100
C1C0
00C0
00C0
0180
ENDCHAR
STARTCHAR 0513
ENCODING 1299
SWIDTH 576 0
DWIDTH 8 0
BBX 8 10 0 -3
BITMAP
3E
22
22
22
22
62
C3
01
01
06
ENDCHAR
STARTCHAR 0514
ENCODING 1300
SWIDTH 936 0
DWIDTH 13 0
BBX 13 10 0 0
BITMAP
1E18
1310
1120
11E0
30C0
30C0
21A0
2120
2210
C618
ENDCHAR
STARTCHAR 0515
ENCODING 1301
SWIDTH 792 0
DWIDTH 11 0
BBX 11 7 0 0
BITMAP
3C40
2280
2380
2180
2280
6640
CC60
ENDCHAR
STARTCHAR 0516
ENCODING 1302
SWIDTH 792 0
DWIDTH 11 0
BBX 10 10 1 0
BITMAP
F8C0
C480
C700
C700
C600
FA00
C100
C180
C080
C0C0
ENDCHAR
STARTCHAR 0517
ENCODING 1303
SWIDTH 792 0
DWIDTH 11 0
BBX 10 11 1 -3
BITMAP
1000
EC80
C780
8700
8300
C700
C480
BCC0
8000
8000
8000
ENDCHAR
STARTCHAR 0518
ENCODING 1304
SWIDTH 864 0
DWIDTH 12 0
BBX 11 10 1 0
BITMAP
7FE0
C400
8400
8400
C7E0
3C00
2400
4400
C400
87E0
ENDCHAR
STARTCHAR 0519
ENCODING 1305
SWIDTH 864 0
DWIDTH 12 0
BBX 11 8 1 0
BITMAP
0100
FEC0
8C40
8860
FFE0
4C00
C400
83C0
ENDCHAR
STARTCHAR 051A
ENCODING 1306
SWIDTH 720 0
DWIDTH 10 0
BBX 9 12 1 -2
BITMAP
3E00
6300
C180
8080
8080
8080
8080
C180
4300
3E00
0600
0300
ENDCHAR
STARTCHAR 051B
ENCODING 1307
SWIDTH 576 0
DWIDTH 8 0
BBX 6 11 1 -3
BITMAP
30
4C
84
84
84
84
C4
7C
04
04
04
ENDCHAR
STARTCHAR 051C
ENCODING 1308
SWIDTH 864 0
DWIDTH 12 0
BBX 13 10 0 0
BITMAP
C218
4610
4510
4510
6D30
29A0
28A0
28A0
30C0
1040
ENDCHAR
STARTCHAR 051D
ENCODING 1309
SWIDTH 720 0
DWIDTH 10 0
BBX 11 7 0 0
BITMAP
C460
4A40
4A40
4AC0
3180
3180
3180
ENDCHAR
STARTCHAR 051E
ENCODING 1310
SWIDTH 576 0
DWIDTH 8 0
BBX 7 10 1 0
BITMAP
D2
DC
CC
D6
E0
F0
D0
C8
C4
C2
ENDCHAR
STARTCHAR 051F
ENCODING 1311
SWIDTH 504 0
DWIDTH 7 0
BBX 6 7 1 0
BITMAP
98
98
A0
E0
90
98
8C
ENDCHAR
STARTCHAR 0520
ENCODING 1312
SWIDTH 1008 0
DWIDTH 14 0
BBX 14 13 0 -3
BITMAP
1F00
1100
1100
1100
3100
31F0
2118
2108
2108
C10C
0008
0008
00F0
ENDCHAR
STARTCHAR 0521
ENCODING 1313
SWIDTH 792 0
DWIDTH 11 0
BBX 11 10 0 -3
BITMAP
3C00
2400
2400
27C0
2460
6420
C420
0020
0060
03C0
ENDCHAR
STARTCHAR 0522
ENCODING 1314
SWIDTH 1080 0
DWIDTH 15 0
BBX 14 13 1 -3
BITMAP
C100
C100
C100
C100
FF00
C1F0
C108
C108
C10C
C10C
000C
0008
00F8
ENDCHAR
STARTCHAR 0523
ENCODING 1315
SWIDTH 864 0
DWIDTH 12 0
BBX 11 10 1 -3
BITMAP
8400
8400
8400
FFC0
8440
8460
8460
0060
0040
03C0
ENDCHAR
STARTCHAR 0524
ENCODING 1316
SWIDTH 720 0
DWIDTH 10 0
BBX 9 13 1 -3
BITMAP
FF00
C100
C100
C100
C100
C100
C100
C100
C100
C180
0080
0080
0080
ENDCHAR
STARTCHAR 0525
ENCODING 1317
SWIDTH 576 0
DWIDTH 8 0
BBX 8 10 1 -3
BITMAP
FC
84
84
84
84
84
87
03
03
03
ENDCHAR
STARTCHAR 0526
ENCODING 1318
SWIDTH 720 0
DWIDTH 10 0
BBX 9 13 1 -3
BITMAP
C000
C000
C000
C000
FE00
C300
C300
C300
C300
C380
0080
0080
0080
ENDCHAR
STARTCHAR 0527
ENCODING 1319
SWIDTH 576 0
DWIDTH 8 0
BBX 8 14 1 -3
BITMAP
80
80
80
98
EC
C4
84
84
84
84
87
03
03
03
ENDCHAR
STARTCHAR 0528
ENCODING 1320
SWIDTH 720 0
DWIDTH 10 0
BBX 9 13 0 -3
BITMAP
6080
6080
6080
6080
7F80
6080
6080
6080
6080
6080
6000
4000
C000
ENDCHAR
STARTCHAR 0529
ENCODING 1321
SWIDTH 576 0
DWIDTH 8 0
BBX 9 10 -1 -3
BITMAP
2180
2180
2180
3F80
2180
2180
2180
2000
2000
E000
ENDCHAR
STARTCHAR 052A
ENCODING 1322
SWIDTH 1368 0
DWIDTH 19 0
BBX 19 13 0 -3
BITMAP
1F0C60
190C40
110C80
110D00
11FE00
310F00
210D00
210C80
410C40
FF8C20
808000
808000
808000
ENDCHAR
STARTCHAR 052B
ENCODING 1323
SWIDTH 1152 0
DWIDTH 16 0
BBX 16 10 0 -3
BITMAP
1E22
1224
3228
23F8
222C
4226
FF23
8100
8100
8100
ENDCHAR
STARTCHAR 052C
ENCODING 1324
SWIDTH 648 0
DWIDTH 9 0
BBX 9 13 0 -3
BITMAP
4F00
4900
4900
4900
5900
7F00
1100
3100
2100
FF80
8080
8080
8080
ENDCHAR
STARTCHAR 052D
ENCODING 1325
SWIDTH 576 0
DWIDTH 8 0
BBX 8 10 0 -3
BITMAP
DE
D2
D2
7E
22
22
FF
81
81
81
ENDCHAR
STARTCHAR 052E
ENCODING 1326
SWIDTH 648 0
DWIDTH 9 0
BBX 10 13 0 -3
BITMAP
1F00
1100
1100
1100
3100
3100
2100
2100
2100
C1C0
00C0
00C0
00C0
ENDCHAR
STARTCHAR 052F
ENCODING 1327
SWIDTH 576 0
DWIDTH 8 0
BBX 8 10 0 -3
BITMAP
3E
22
22
22
22
62
C3
01
01
01
ENDCHAR
STARTCHAR 0900
ENCODING 2304
SWIDTH 0 0
DWIDTH 0 0
BBX 6 2 -5 9
BITMAP
78
B4
ENDCHAR
STARTCHAR 0901
ENCODING 2305
SWIDTH 0 0
DWIDTH 0 0
BBX 6 3 -5 9
BITMAP
B4
48
30
ENDCHAR
STARTCHAR 0902
ENCODING 2306
SWIDTH 0 0
DWIDTH 0 0
BBX 2 1 -3 11
BITMAP
C0
ENDCHAR
STARTCHAR 0903
ENCODING 2307
SWIDTH 216 0
DWIDTH 3 0
BBX 2 6 1 1
BITMAP
C0
C0
00
00
00
C0
ENDCHAR
STARTCHAR 0904
ENCODING 2308
SWIDTH 720 0
DWIDTH 10 0
BBX 10 12 1 0
BITMAP
1000
0F00
0100
33C0
4900
0900
1900
8F00
8900
4900
3900
0100
ENDCHAR
STARTCHAR 0905
ENCODING 2309
SWIDTH 720 0
DWIDTH 10 0
BBX 10 9 1 0
BITMAP
33C0
4900
0900
1900
8F00
8900
4900
3900
0100
ENDCHAR
STARTCHAR 0906
ENCODING 2310
SWIDTH 1008 0
DWIDTH 14 0
BBX 13 9 1 0
BITMAP
33F8
4910
0910
1910
8F10
8910
4910
3910
0110
ENDCHAR
STARTCHAR 0907
ENCODING 2311
SWIDTH 432 0
DWIDTH 6 0
BBX 7 10 0 -2
BITMAP
FE
08
08
78
40
7C
04
44
78
1C
ENDCHAR
STARTCHAR 0908
ENCODING 2312
SWIDTH 432 0
DWIDTH 6 0
BBX 7 13 0 -2
BITMAP
0E
10
08
FE
08
08
78
40
7C
04
44
78
1C
ENDCHAR
STARTCHAR 0909
ENCODING 2313
SWIDTH 504 0
DWIDTH 7 0
BBX 8 9 0 0
BITMAP
FF
04
02
06
0C
46
42
22
1C
ENDCHAR
STARTCHAR 090A
ENCODING 2314
SWIDTH 720 0
DWIDTH 10 0
BBX 11 9 0 0
BITMAP
FFE0
0400
0200
0600
0D80
46C0
4240
2240
1C80
ENDCHAR
STARTCHAR 090B
ENCODING 2315
SWIDTH 792 0
DWIDTH 11 0
BBX 12 9 0 0
BITMAP
FFF0
0400
0400
F4C0
0FC0
0C40
34C0
6480
04E0
ENDCHAR
STARTCHAR 090C
ENCODING 2316
SWIDTH 648 0
DWIDTH 9 0
BBX 10 11 0 -2
BITMAP
FFC0
0100
0100
7700
4C80
4880
4080
2300
1200
0340
0080
ENDCHAR
STARTCHAR 090D
ENCODING 2317
SWIDTH 504 0
DWIDTH 7 0
BBX 8 14 0 -3
BITMAP
22
36
08
FF
46
46
46
46
4C
20
18
04
02
06
ENDCHAR
STARTCHAR 090E
ENCODING 2318
SWIDTH 504 0
DWIDTH 7 0
BBX 8 14 0 -3
BITMAP
60
3C
04
FF
46
46
46
46
4C
20
18
04
02
06
ENDCHAR
STARTCHAR 090F
ENCODING 2319
SWIDTH 504 0
DWIDTH 7 0
BBX 8 11 0 -3
BITMAP
FF
46
46
46
46
4C
20
18
04
02
06
ENDCHAR
STARTCHAR 0910
ENCODING 2320
SWIDTH 504 0
DWIDTH 7 0
BBX 8 14 0 -3
BITMAP
38
04
04
FF
46
46
46
46
4C
20
18
04
02
06
ENDCHAR
STARTCHAR 0911
ENCODING 2321
SWIDTH 1008 0
DWIDTH 14 0
BBX 14 12 1 0
BITMAP
008C
0048
0030
33F8
4910
0910
1910
8F10
8910
4910
3910
0110
ENDCHAR
STARTCHAR 0912
ENCODING 2322
SWIDTH 1008 0
DWIDTH 14 0
BBX 13 12 1 0
BITMAP
0100
00E0
0010
33F8
4910
0910
1910
8F10
8910
4910
3910
0110
ENDCHAR
STARTCHAR 0913
ENCODING 2323
SWIDTH 1008 0
DWIDTH 14 0
BBX 13 12 1 0
BITMAP
00E0
0020
0010
33F8
4910
0910
1910
8F10
8910
4910
3910
0110
ENDCHAR
STARTCHAR 0914
ENCODING 2324
SWIDTH 1008 0
DWIDTH 14 0
BBX 13 12 1 0
BITMAP
00E0
01E0
0030
33F8
4910
0910
1910
8F10
8910
4910
3910
0110
ENDCHAR
STARTCHAR 0915
ENCODING 2325
SWIDTH 720 0
DWIDTH 10 0
BBX 11 9 0 0
BITMAP
FFE0
0400
0400
7D00
46C0
4440
7C40
04C0
0400
ENDCHAR
STARTCHAR 0916
ENCODING 2326
SWIDTH 792 0
DWIDTH 11 0
BBX 12 9 0 0
BITMAP
FFF0
1040
1140
1640
7440
44C0
2340
1840
07C0
ENDCHAR
STARTCHAR 0917
ENCODING 2327
SWIDTH 504 0
DWIDTH 7 0
BBX 8 9 0 0
BITMAP
FF
26
26
26
66
66
06
06
06
ENDCHAR
STARTCHAR 0918
ENCODING 2328
SWIDTH 576 0
DWIDTH 8 0
BBX 8 9 0 0
BITMAP
FF
42
42
72
62
42
3E
02
02
ENDCHAR
STARTCHAR 0919
ENCODING 2329
SWIDTH 576 0
DWIDTH 8 0
BBX 9 9 0 0
BITMAP
FF80
0200
0200
3E00
2180
3E00
4200
6200
3E00
ENDCHAR
STARTCHAR 091A
ENCODING 2330
SWIDTH 576 0
DWIDTH 8 0
BBX 9 9 0 0
BITMAP
FF80
0300
0300
7B00
2300
2300
3F00
0300
0300
ENDCHAR
STARTCHAR 091B
ENCODING 2331
SWIDTH 648 0
DWIDTH 9 0
BBX 10 9 0 0
BITMAP
FFC0
0200
3300
4480
4480
7680
6180
6300
3C00
ENDCHAR
STARTCHAR 091C
ENCODING 2332
SWIDTH 720 0
DWIDTH 10 0
BBX 11 9 0 0
BITMAP
FFE0
0080
0080
CF80
4480
4480
2480
1C80
0080
ENDCHAR
STARTCHAR 091D
ENCODING 2333
SWIDTH 720 0
DWIDTH 10 0
BBX 11 10 0 -2
BITMAP
FFE0
0880
0880
7880
4080
7F80
0480
4480
7880
1C00
ENDCHAR
STARTCHAR 091E
ENCODING 2334
SWIDTH 720 0
DWIDTH 10 0
BBX 11 9 0 0
BITMAP
FFE0
0080
0080
1C80
C280
4380
3C80
0080
0080
ENDCHAR
STARTCHAR 091F
ENCODING 2335
SWIDTH 504 0
DWIDTH 7 0
BBX 7 9 0 0
BITMAP
FE
08
08
38
60
40
40
40
3C
ENDCHAR
STARTCHAR 0920
ENCODING 2336
SWIDTH 576 0
DWIDTH 8 0
BBX 8 9 0 0
BITMAP
FF
08
08
3C
66
42
42
42
3C
ENDCHAR
STARTCHAR 0921
ENCODING 2337
SWIDTH 576 0
DWIDTH 8 0
BBX 8 9 0 0
BITMAP
FF
02
02
3E
20
3E
42
62
3E
ENDCHAR
STARTCHAR 0922
ENCODING 2338
SWIDTH 504 0
DWIDTH 7 0
BBX 8 9 0 0
BITMAP
FF
08
08
38
40
4E
52
52
3C
ENDCHAR
STARTCHAR 0923
ENCODING 2339
SWIDTH 720 0
DWIDTH 10 0
BBX 10 9 0 0
BITMAP
FFC0
4480
4480
4480
4480
4C80
3880
0080
0080
ENDCHAR
STARTCHAR 0924
ENCODING 2340
SWIDTH 504 0
DWIDTH 7 0
BBX 8 9 0 0
BITMAP
FF
02
02
1E
62
42
42
62
32
ENDCHAR
STARTCHAR 0925
ENCODING 2341
SWIDTH 576 0
DWIDTH 8 0
BBX 8 9 1 0
BITMAP
EF
A2
92
72
E2
C6
7E
02
02
ENDCHAR
STARTCHAR 0926
ENCODING 2342
SWIDTH 504 0
DWIDTH 7 0
BBX 7 9 0 -1
BITMAP
FE
08
08
78
40
40
4C
3C
04
ENDCHAR
STARTCHAR 0927
ENCODING 2343
SWIDTH 576 0
DWIDTH 8 0
BBX 8 9 1 0
BITMAP
EF
A4
A4
F4
44
44
4C
34
04
ENDCHAR
STARTCHAR 0928
ENCODING 2344
SWIDTH 504 0
DWIDTH 7 0
BBX 8 9 0 0
BITMAP
FF
04
04
04
7C
64
04
04
04
ENDCHAR
STARTCHAR 0929
ENCODING 2345
SWIDTH 504 0
DWIDTH 7 0
BBX 8 9 0 0
BITMAP
FF
04
04
04
7C
64
04
04
24
ENDCHAR
STARTCHAR 092A
ENCODING 2346
SWIDTH 504 0
DWIDTH 7 0
BBX 8 9 0 0
BITMAP
FF
42
42
42
42
46
3A
02
02
ENDCHAR
STARTCHAR 092B
ENCODING 2347
SWIDTH 720 0
DWIDTH 10 0
BBX 11 9 0 0
BITMAP
FFE0
4400
4400
4480
47C0
4440
3C40
04C0
0400
ENDCHAR
STARTCHAR 092C
ENCODING 2348
SWIDTH 504 0
DWIDTH 7 0
BBX 8 9 0 0
BITMAP
FF
02
02
7A
52
4A
7E
02
02
ENDCHAR
STARTCHAR 092D
ENCODING 2349
SWIDTH 648 0
DWIDTH 9 0
BBX 9 9 1 0
BITMAP
E780
A300
B300
5300
1300
7F00
3300
0300
0300
ENDCHAR
STARTCHAR 092E
ENCODING 2350
SWIDTH 576 0
DWIDTH 8 0
BBX 9 9 0 0
BITMAP
FF80
2200
2200
2200
2200
7E00
6200
0200
0200
ENDCHAR
STARTCHAR 092F
ENCODING 2351
SWIDTH 576 0
DWIDTH 8 0
BBX 8 9 0 0
BITMAP
FF
22
22
22
42
46
3E
02
02
ENDCHAR
STARTCHAR 0930
ENCODING 2352
SWIDTH 360 0
DWIDTH 5 0
BBX 6 9 0 0
BITMAP
FC
18
08
18
70
40
20
10
08
ENDCHAR
STARTCHAR 0931
ENCODING 2353
SWIDTH 360 0
DWIDTH 5 0
BBX 6 9 0 0
BITMAP
FC
18
08
18
70
40
20
10
48
ENDCHAR
STARTCHAR 0932
ENCODING 2354
SWIDTH 648 0
DWIDTH 9 0
BBX 10 9 0 0
BITMAP
FFC0
0100
0100
7700
4D00
4900
4100
2100
1100
ENDCHAR
STARTCHAR 0933
ENCODING 2355
SWIDTH 720 0
DWIDTH 10 0
BBX 11 8 0 1
BITMAP
FFE0
0100
0100
7B80
4440
4440
4C40
7B80
ENDCHAR
STARTCHAR 0934
ENCODING 2356
SWIDTH 720 0
DWIDTH 10 0
BBX 11 11 0 -2
BITMAP
FFE0
0100
0100
7B80
4440
4440
4C40
7B80
0000
2000
3000
ENDCHAR
STARTCHAR 0935
ENCODING 2357
SWIDTH 504 0
DWIDTH 7 0
BBX 8 9 0 0
BITMAP
FF
04
04
7C
44
44
7C
04
04
ENDCHAR
STARTCHAR 0936
ENCODING 2358
SWIDTH 648 0
DWIDTH 9 0
BBX 9 9 1 0
BITMAP
6780
9200
9200
7200
1200
E200
2200
1200
1A00
ENDCHAR
STARTCHAR 0937
ENCODING 2359
SWIDTH 576 0
DWIDTH 8 0
BBX 8 9 0 0
BITMAP
FF
62
52
5A
4A
46
3A
02
02
ENDCHAR
STARTCHAR 0938
ENCODING 2360
SWIDTH 648 0
DWIDTH 9 0
BBX 10 9 0 0
BITMAP
FFC0
1100
1100
1100
7B00
4500
2100
1100
0900
ENDCHAR
STARTCHAR 0939
ENCODING 2361
SWIDTH 504 0
DWIDTH 7 0
BBX 8 11 0 -2
BITMAP
FF
04
04
7C
40
3C
42
46
44
20
10
ENDCHAR
STARTCHAR 093A
ENCODING 2362
SWIDTH 0 0
DWIDTH 0 0
BBX 1 2 -2 9
BITMAP
80
80
ENDCHAR
STARTCHAR 093B
ENCODING 2363
SWIDTH 216 0
DWIDTH 3 0
BBX 4 11 0 0
BITMAP
40
40
F0
40
40
40
40
40
40
40
40
ENDCHAR
STARTCHAR 093C
ENCODING 2364
SWIDTH 0 0
DWIDTH 0 0
BBX 2 2 -5 -3
BITMAP
C0
40
ENDCHAR
STARTCHAR 093D
ENCODING 2365
SWIDTH 432 0
DWIDTH 6 0
BBX 5 8 1 1
BITMAP
38
40
40
60
30
18
88
78
ENDCHAR
STARTCHAR 093E
ENCODING 2366
SWIDTH 216 0
DWIDTH 3 0
BBX 4 9 0 0
BITMAP
F0
40
40
40
40
40
40
40
40
ENDCHAR
STARTCHAR 093F
ENCODING 2367
SWIDTH 216 0
DWIDTH 3 0
BBX 9 12 0 0
BITMAP
7E00
4100
4080
F000
4000
4000
4000
4000
4000
4000
4000
4000
ENDCHAR
STARTCHAR 0940
ENCODING 2368
SWIDTH 216 0
DWIDTH 3 0
BBX 7 12 -3 0
BITMAP
F0
88
88
1E
08
08
08
08
08
08
08
08
ENDCHAR
STARTCHAR 0941
ENCODING 2369
SWIDTH 0 0
DWIDTH 0 0
BBX 6 4 -6 -4
BITMAP
1C
84
64
38
ENDCHAR
STARTCHAR 0942
ENCODING 2370
SWIDTH 0 0
DWIDTH 0 0
BBX 7 4 -5 -4
BITMAP
78
84
42
70
ENDCHAR
STARTCHAR 0943
ENCODING 2371
SWIDTH 0 0
DWIDTH 0 0
BBX 4 4 -4 -4
BITMAP
60
80
C0
70
ENDCHAR
STARTCHAR 0944
ENCODING 2372
SWIDTH 0 0
DWIDTH 0 0
BBX 5 5 -4 -5
BITMAP
60
80
70
40
78
ENDCHAR
STARTCHAR 0945
ENCODING 2373
SWIDTH 0 0
DWIDTH 0 0
BBX 6 3 -5 9
BITMAP
84
68
10
ENDCHAR
STARTCHAR 0946
ENCODING 2374
SWIDTH 0 0
DWIDTH 0 0
BBX 4 3 -6 9
BITMAP
80
70
10
ENDCHAR
STARTCHAR 0947
ENCODING 2375
SWIDTH 0 0
DWIDTH 0 0
BBX 3 3 -5 9
BITMAP
C0
20
20
ENDCHAR
STARTCHAR 0948
ENCODING 2376
SWIDTH 0 0
DWIDTH 0 0
BBX 4 3 -6 9
BITMAP
60
D0
30
ENDCHAR
STARTCHAR 0949
ENCODING 2377
SWIDTH 216 0
DWIDTH 3 0
BBX 6 12 -2 0
BITMAP
C4
6C
10
3C
10
10
10
10
10
10
10
10
ENDCHAR
STARTCHAR 094A
ENCODING 2378
SWIDTH 216 0
DWIDTH 3 0
BBX 7 12 -3 0
BITMAP
80
78
08
1E
08
08
08
08
08
08
08
08
ENDCHAR
STARTCHAR 094B
ENCODING 2379
SWIDTH 216 0
DWIDTH 3 0
BBX 6 12 -2 0
BITMAP
E0
10
10
3C
10
10
10
10
10
10
10
10
ENDCHAR
STARTCHAR 094C
ENCODING 2380
SWIDTH 216 0
DWIDTH 3 0
BBX 6 12 -2 0
BITMAP
E0
D0
30
3C
10
10
10
10
10
10
10
10
ENDCHAR
STARTCHAR 094D
ENCODING 2381
SWIDTH 0 0
DWIDTH 0 0
BBX 4 3 -2 -4
BITMAP
E0
30
10
ENDCHAR
STARTCHAR 094E
ENCODING 2382
SWIDTH 216 0
DWIDTH 3 0
BBX 3 9 1 0
BITMAP
E0
C0
C0
C0
C0
C0
C0
C0
C0
ENDCHAR
STARTCHAR 094F
ENCODING 2383
SWIDTH 216 0
DWIDTH 3 0
BBX 7 12 -3 0
BITMAP
10
CC
34
1E
08
08
08
08
08
08
08
08
ENDCHAR
STARTCHAR 0950
ENCODING 2384
SWIDTH 864 0
DWIDTH 12 0
BBX 11 11 1 1
BITMAP
0AC0
0880
0700
3000
4880
0960
1A20
8E20
8BC0
4800
3800
ENDCHAR
STARTCHAR 0951
ENCODING 2385
SWIDTH 0 0
DWIDTH 0 0
BBX 1 3 -2 9
BITMAP
80
80
80
ENDCHAR
STARTCHAR 0952
ENCODING 2386
SWIDTH 0 0
DWIDTH 0 0
BBX 5 1 -6 -2
BITMAP
F8
ENDCHAR
STARTCHAR 0953
ENCODING 2387
SWIDTH 0 0
DWIDTH 0 0
BBX 2 3 -3 9
BITMAP
80
80
40
ENDCHAR
STARTCHAR 0954
ENCODING 2388
SWIDTH 0 0
DWIDTH 0 0
BBX 2 2 -2 9
BITMAP
C0
80
ENDCHAR
STARTCHAR 0955
ENCODING 2389
SWIDTH 0 0
DWIDTH 0 0
BBX 4 3 -4 9
BITMAP
90
70
F0
ENDCHAR
STARTCHAR 0956
ENCODING 2390
SWIDTH 0 0
DWIDTH 0 0
BBX 5 2 -7 -3
BITMAP
D8
20
ENDCHAR
STARTCHAR 0957
ENCODING 2391
SWIDTH 0 0
DWIDTH 0 0
BBX 5 4 -7 -4
BITMAP
80
F8
88
70
ENDCHAR
STARTCHAR 0958
ENCODING 2392
SWIDTH 720 0
DWIDTH 10 0
BBX 11 9 0 -1
BITMAP
FFE0
0400
0400
7D00
46C0
4440
7C40
04C0
6400
ENDCHAR
STARTCHAR 0959
ENCODING 2393
SWIDTH 792 0
DWIDTH 11 0
BBX 12 9 0 0
BITMAP
FFF0
1040
1140
1640
7440
44C0
2340
1840
47C0
ENDCHAR
STARTCHAR 095A
ENCODING 2394
SWIDTH 504 0
DWIDTH 7 0
BBX 8 9 0 0
BITMAP
FF
26
26
26
66
66
06
06
66
ENDCHAR
STARTCHAR 095B
ENCODING 2395
SWIDTH 720 0
DWIDTH 10 0
BBX 11 10 0 -2
BITMAP
FFE0
0080
0080
CF80
4480
4480
2480
1C80
0080
1800
ENDCHAR
STARTCHAR 095C
ENCODING 2396
SWIDTH 576 0
DWIDTH 8 0
BBX 8 12 0 -3
BITMAP
FF
02
02
3E
20
3E
42
62
3E
00
08
08
ENDCHAR
STARTCHAR 095D
ENCODING 2397
SWIDTH 504 0
DWIDTH 7 0
BBX 8 12 0 -3
BITMAP
FF
08
08
38
40
4E
52
52
3C
00
18
10
ENDCHAR
STARTCHAR 095E
ENCODING 2398
SWIDTH 720 0
DWIDTH 10 0
BBX 11 9 0 -1
BITMAP
FFE0
4400
4400
4480
47C0
4440
3C40
04C0
6400
ENDCHAR
STARTCHAR 095F
ENCODING 2399
SWIDTH 576 0
DWIDTH 8 0
BBX 8 9 0 -1
BITMAP
FF
22
22
22
42
46
3E
02
62
ENDCHAR
STARTCHAR 0960
ENCODING 2400
SWIDTH 792 0
DWIDTH 11 0
BBX 12 11 0 -2
BITMAP
FFF0
0400
0400
F4C0
0FC0
0C40
34C0
6480
04F0
0080
00F0
ENDCHAR
STARTCHAR 0961
ENCODING 2401
SWIDTH 648 0
DWIDTH 9 0
BBX 10 12 0 -3
BITMAP
FFC0
0100
0100
7700
4C80
4880
4180
2200
1240
0180
0100
01C0
ENDCHAR
STARTCHAR 0962
ENCODING 2402
SWIDTH 0 0
DWIDTH 0 0
BBX 6 5 -6 -5
BITMAP
FC
A4
8C
D8
4C
ENDCHAR
STARTCHAR 0963
ENCODING 2403
SWIDTH 0 0
DWIDTH 0 0
BBX 8 5 -6 -5
BITMAP
FC
A4
88
C6
47
ENDCHAR
STARTCHAR 0964
ENCODING 2404
SWIDTH 360 0
DWIDTH 5 0
BBX 1 9 3 0
BITMAP
80
80
80
80
80
80
80
80
80
ENDCHAR
STARTCHAR 0965
ENCODING 2405
SWIDTH 576 0
DWIDTH 8 0
BBX 4 9 3 0
BITMAP
90
90
90
90
90
90
90
90
90
ENDCHAR
STARTCHAR 0966
ENCODING 2406
SWIDTH 504 0
DWIDTH 7 0
BBX 6 5 1 2
BITMAP
78
88
8C
88
78
ENDCHAR
STARTCHAR 0967
ENCODING 2407
SWIDTH 504 0
DWIDTH 7 0
BBX 4 10 2 -1
BITMAP
60
90
90
20
60
80
60
30
10
10
ENDCHAR
STARTCHAR 0968
ENCODING 2408
SWIDTH 504 0
DWIDTH 7 0
BBX 6 9 1 0
BITMAP
70
98
08
08
58
F0
10
08
0C
ENDCHAR
STARTCHAR 0969
ENCODING 2409
SWIDTH 504 0
DWIDTH 7 0
BBX 4 10 2 -1
BITMAP
E0
30
10
60
10
10
F0
E0
20
10
ENDCHAR
STARTCHAR 096A
ENCODING 2410
SWIDTH 504 0
DWIDTH 7 0
BBX 6 9 1 0
BITMAP
84
84
C8
78
30
70
48
48
70
ENDCHAR
STARTCHAR 096B
ENCODING 2411
SWIDTH 504 0
DWIDTH 7 0
BBX 7 10 1 -1
BITMAP
40
C0
80
80
DC
78
08
0C
04
06
ENDCHAR
STARTCHAR 096C
ENCODING 2412
SWIDTH 504 0
DWIDTH 7 0
BBX 6 10 1 -1
BITMAP
30
40
C0
70
40
4C
6C
18
04
04
ENDCHAR
STARTCHAR 096D
ENCODING 2413
SWIDTH 504 0
DWIDTH 7 0
BBX 6 7 1 1
BITMAP
80
B8
A4
BC
C4
44
78
ENDCHAR
STARTCHAR 096E
ENCODING 2414
SWIDTH 504 0
DWIDTH 7 0
BBX 6 9 1 0
BITMAP
08
18
30
20
40
80
80
84
78
ENDCHAR
STARTCHAR 096F
ENCODING 2415
SWIDTH 504 0
DWIDTH 7 0
BBX 6 10 1 -1
BITMAP
70
D0
88
90
70
30
18
04
04
04
ENDCHAR
STARTCHAR 0970
ENCODING 2416
SWIDTH 360 0
DWIDTH 5 0
BBX 4 4 1 4
BITMAP
60
90
90
E0
ENDCHAR
STARTCHAR 0971
ENCODING 2417
SWIDTH 288 0
DWIDTH 4 0
BBX 1 2 2 7
BITMAP
80
80
ENDCHAR
STARTCHAR 0972
ENCODING 2418
SWIDTH 720 0
DWIDTH 10 0
BBX 10 12 1 0
BITMAP
0440
06C0
0100
33C0
4900
0900
1900
8F00
8900
4900
3900
0100
ENDCHAR
STARTCHAR 0973
ENCODING 2419
SWIDTH 720 0
DWIDTH 10 0
BBX 10 11 1 0
BITMAP
0100
0100
33C0
4900
0900
1900
8F00
8900
4900
3900
0100
ENDCHAR
STARTCHAR 0974
ENCODING 2420
SWIDTH 1008 0
DWIDTH 14 0
BBX 13 11 1 0
BITMAP
0010
0010
33F8
4910
0910
1910
8F10
8910
4910
3910
0110
ENDCHAR
STARTCHAR 0975
ENCODING 2421
SWIDTH 1008 0
DWIDTH 14 0
BBX 13 12 1 0
BITMAP
0060
0110
00F0
33F8
4910
0910
1910
8F10
8910
4910
3910
0110
ENDCHAR
STARTCHAR 0976
ENCODING 2422
SWIDTH 720 0
DWIDTH 10 0
BBX 10 12 1 -3
BITMAP
33C0
4900
0900
1900
8F00
8900
4900
3900
0100
0000
1B00
0400
ENDCHAR
STARTCHAR 0977
ENCODING 2423
SWIDTH 720 0
DWIDTH 10 0
BBX 10 13 1 -4
BITMAP
33C0
4900
0900
1900
8F00
8900
4900
3900
0100
0100
1F00
1100
0E00
ENDCHAR
STARTCHAR 0978
ENCODING 2424
SWIDTH 504 0
DWIDTH 7 0
BBX 8 8 0 0
BITMAP
FF
20
20
7C
62
62
02
06
ENDCHAR
STARTCHAR 0979
ENCODING 2425
SWIDTH 720 0
DWIDTH 10 0
BBX 11 10 0 -1
BITMAP
FFE0
0080
0080
4F80
4480
2480
3C80
0080
3480
0800
ENDCHAR
STARTCHAR 097A
ENCODING 2426
SWIDTH 576 0
DWIDTH 8 0
BBX 8 9 0 0
BITMAP
FF
22
32
32
4A
46
3E
02
02
ENDCHAR
STARTCHAR 097B
ENCODING 2427
SWIDTH 504 0
DWIDTH 7 0
BBX 8 9 0 0
BITMAP
FF
26
26
26
66
66
06
06
7E
ENDCHAR
STARTCHAR 097C
ENCODING 2428
SWIDTH 720 0
DWIDTH 10 0
BBX 10 9 0 0
BITMAP
FFC0
0080
0080
4F80
4480
2480
3C80
0080
7F80
ENDCHAR
STARTCHAR 097D
ENCODING 2429
SWIDTH 432 0
DWIDTH 6 0
BBX 5 9 1 0
BITMAP
F0
98
08
08
70
60
60
60
60
ENDCHAR
STARTCHAR 097E
ENCODING 2430
SWIDTH 576 0
DWIDTH 8 0
BBX 8 9 0 0
BITMAP
FF
02
1E
20
2C
12
62
1C
7E
ENDCHAR
STARTCHAR 097F
ENCODING 2431
SWIDTH 504 0
DWIDTH 7 0
BBX 8 9 0 0
BITMAP
FF
02
3A
62
52
4E
7A
02
7E
ENDCHAR
STARTCHAR 1AB0
ENCODING 6832
SWIDTH 0 0
DWIDTH 0 0
BBX 10 3 -5 8
BITMAP
2100
7380
8C40
ENDCHAR
STARTCHAR 1AB1
ENCODING 6833
SWIDTH 0 0
DWIDTH 0 0
BBX 8 3 -4 8
BITMAP
38
E7
18
ENDCHAR
STARTCHAR 1AB2
ENCODING 6834
SWIDTH 0 0
DWIDTH 0 0
BBX 6 4 -3 8
BITMAP
48
B4
B4
48
ENDCHAR
STARTCHAR 1AB3
ENCODING 6835
SWIDTH 0 0
DWIDTH 0 0
BBX 2 2 -1 9
BITMAP
80
C0
ENDCHAR
STARTCHAR 1AB4
ENCODING 6836
SWIDTH 0 0
DWIDTH 0 0
BBX 4 3 -2 9
BITMAP
60
00
90
ENDCHAR
STARTCHAR 1AB5
ENCODING 6837
SWIDTH 0 0
DWIDTH 0 0
BBX 6 2 -3 -3
BITMAP
D4
4C
ENDCHAR
STARTCHAR 1AB6
ENCODING 6838
SWIDTH 0 0
DWIDTH 0 0
BBX 14 3 -7 -4
BITMAP
6318
94A4
8844
ENDCHAR
STARTCHAR 1AB7
ENCODING 6839
SWIDTH 0 0
DWIDTH 0 0
BBX 2 3 -1 -3
BITMAP
80
80
C0
ENDCHAR
STARTCHAR 1AB8
ENCODING 6840
SWIDTH 0 0
DWIDTH 0 0
BBX 4 3 -2 -3
BITMAP
A0
A0
D0
ENDCHAR
STARTCHAR 1AB9
ENCODING 6841
SWIDTH 0 0
DWIDTH 0 0
BBX 2 4 -8 -3
BITMAP
40
40
80
80
ENDCHAR
STARTCHAR 1ABA
ENCODING 6842
SWIDTH 0 0
DWIDTH 0 0
BBX 2 4 -7 -3
BITMAP
40
40
80
80
ENDCHAR
STARTCHAR 1ABB
ENCODING 6843
SWIDTH 0 0
DWIDTH 0 0
BBX 6 3 -3 9
BITMAP
84
84
48
ENDCHAR
STARTCHAR 1ABC
ENCODING 6844
SWIDTH 0 0
DWIDTH 0 0
BBX 9 4 -5 8
BITMAP
4080
A180
A180
5280
ENDCHAR
STARTCHAR 1ABD
ENCODING 6845
SWIDTH 0 0
DWIDTH 0 0
BBX 6 2 -3 -2
BITMAP
84
84
ENDCHAR
STARTCHAR 1ABE
ENCODING 6846
SWIDTH 0 0
DWIDTH 0 0
BBX 12 4 -6 1
BITMAP
4020
8010
8010
4020
ENDCHAR
STARTCHAR 1ABF
ENCODING 6847
SWIDTH 0 0
DWIDTH 0 0
BBX 4 3 -2 -4
BITMAP
F0
F0
90
ENDCHAR
STARTCHAR 1AC0
ENCODING 6848
SWIDTH 0 0
DWIDTH 0 0
BBX 4 2 -2 -4
BITMAP
90
F0
ENDCHAR
STARTCHAR 1C80
ENCODING 7296
SWIDTH 504 0
DWIDTH 7 0
BBX 6 11 1 0
BITMAP
18
64
C4
F8
80
80
80
FC
84
C4
78
ENDCHAR
STARTCHAR 1C81
ENCODING 7297
SWIDTH 576 0
DWIDTH 8 0
BBX 8 10 0 -3
BITMAP
1E
12
32
22
62
FF
81
81
81
81
ENDCHAR
STARTCHAR 1C82
ENCODING 7298
SWIDTH 432 0
DWIDTH 6 0
BBX 5 8 1 0
BITMAP
20
F0
90
98
98
90
90
70
ENDCHAR
STARTCHAR 1C83
ENCODING 7299
SWIDTH 576 0
DWIDTH 8 0
BBX 7 8 1 0
BITMAP
1C
76
C0
80
80
80
C0
7E
ENDCHAR
STARTCHAR 1C84
ENCODING 7300
SWIDTH 360 0
DWIDTH 5 0
BBX 6 10 -1 0
BITMAP
FC
08
08
08
08
08
18
10
10
10
ENDCHAR
STARTCHAR 1C85
ENCODING 7301
SWIDTH 864 0
DWIDTH 12 0
BBX 10 7 1 0
BITMAP
FFC0
8440
8440
8440
8440
8440
8440
ENDCHAR
STARTCHAR 1C86
ENCODING 7302
SWIDTH 576 0
DWIDTH 8 0
BBX 9 11 -1 0
BITMAP
F000
1000
1000
1000
1000
1000
1000
1F80
1080
1080
1F00
ENDCHAR
STARTCHAR 1C87
ENCODING 7303
SWIDTH 576 0
DWIDTH 8 0
BBX 8 11 0 0
BITMAP
20
20
20
20
F8
20
20
3F
21
21
3E
ENDCHAR
STARTCHAR 1C88
ENCODING 7304
SWIDTH 576 0
DWIDTH 8 0
BBX 7 11 1 0
BITMAP
86
C4
48
28
38
CC
84
86
86
C4
78
ENDCHAR
STARTCHAR 1CD0
ENCODING 7376
SWIDTH 0 0
DWIDTH 0 0
BBX 5 4 -5 13
BITMAP
20
50
50
88
ENDCHAR
STARTCHAR 1CD1
ENCODING 7377
SWIDTH 0 0
DWIDTH 0 0
BBX 4 4 -5 13
BITMAP
20
50
B0
20
ENDCHAR
STARTCHAR 1CD2
ENCODING 7378
SWIDTH 0 0
DWIDTH 0 0
BBX 5 1 -5 14
BITMAP
F8
ENDCHAR
STARTCHAR 1CD3
ENCODING 7379
SWIDTH 216 0
DWIDTH 3 0
BBX 2 3 1 9
BITMAP
C0
C0
40
ENDCHAR
STARTCHAR 1CD4
ENCODING 7380
SWIDTH 0 0
DWIDTH 0 0
BBX 4 1 -4 4
BITMAP
F0
ENDCHAR
STARTCHAR 1CD5
ENCODING 7381
SWIDTH 0 0
DWIDTH 0 0
BBX 6 2 -6 -3
BITMAP
A4
D8
ENDCHAR
STARTCHAR 1CD6
ENCODING 7382
SWIDTH 0 0
DWIDTH 0 0
BBX 5 2 -6 -3
BITMAP
80
F8
ENDCHAR
STARTCHAR 1CD7
ENCODING 7383
SWIDTH 0 0
DWIDTH 0 0
BBX 5 4 -6 -4
BITMAP
40
80
80
78
ENDCHAR
STARTCHAR 1CD8
ENCODING 7384
SWIDTH 0 0
DWIDTH 0 0
BBX 6 3 -5 -4
BITMAP
84
48
30
ENDCHAR
STARTCHAR 1CD9
ENCODING 7385
SWIDTH 0 0
DWIDTH 0 0
BBX 5 2 -4 -2
BITMAP
70
88
ENDCHAR
STARTCHAR 1CDA
ENCODING 7386
SWIDTH 0 0
DWIDTH 0 0
BBX 3 3 -3 9
BITMAP
A0
A0
A0
ENDCHAR
STARTCHAR 1CDB
ENCODING 7387
SWIDTH 0 0
DWIDTH 0 0
BBX 4 3 -4 9
BITMAP
B0
B0
B0
ENDCHAR
STARTCHAR 1CDC
ENCODING 7388
SWIDTH 0 0
DWIDTH 0 0
BBX 1 2 -2 -3
BITMAP
80
80
ENDCHAR
STARTCHAR 1CDD
ENCODING 7389
SWIDTH 0 0
DWIDTH 0 0
BBX 2 1 -3 -3
BITMAP
C0
ENDCHAR
STARTCHAR 1CDE
ENCODING 7390
SWIDTH 0 0
DWIDTH 0 0
BBX 3 1 -4 -3
BITMAP
A0
ENDCHAR
STARTCHAR 1CDF
ENCODING 7391
SWIDTH 0 0
DWIDTH 0 0
BBX 5 1 -6 -3
BITMAP
A8
ENDCHAR
STARTCHAR 1CE0
ENCODING 7392
SWIDTH 0 0
DWIDTH 0 0
BBX 5 3 1 8
BITMAP
F8
80
C0
ENDCHAR
STARTCHAR 1CE1
ENCODING 7393
SWIDTH 360 0
DWIDTH 5 0
BBX 6 14 0 -2
BITMAP
18
24
20
20
20
20
20
30
30
10
10
30
20
E0
ENDCHAR
STARTCHAR 1CE2
ENCODING 7394
SWIDTH 0 0
DWIDTH 0 0
BBX 4 1 -4 3
BITMAP
F0
ENDCHAR
STARTCHAR 1CE3
ENCODING 7395
SWIDTH 0 0
DWIDTH 0 0
BBX 4 5 -2 3
BITMAP
60
30
10
10
E0
ENDCHAR
STARTCHAR 1CE4
ENCODING 7396
SWIDTH 0 0
DWIDTH 0 0
BBX 4 5 1 3
BITMAP
60
C0
80
80
70
ENDCHAR
STARTCHAR 1CE5
ENCODING 7397
SWIDTH 0 0
DWIDTH 0 0
BBX 4 4 1 0
BITMAP
F0
80
80
40
ENDCHAR
STARTCHAR 1CE6
ENCODING 7398
SWIDTH 0 0
DWIDTH 0 0
BBX 4 4 -2 0
BITMAP
F0
10
10
60
ENDCHAR
STARTCHAR 1CE7
ENCODING 7399
SWIDTH 0 0
DWIDTH 0 0
BBX 5 8 -2 3
BITMAP
30
58
48
60
30
10
10
E0
ENDCHAR
STARTCHAR 1CE8
ENCODING 7400
SWIDTH 0 0
DWIDTH 0 0
BBX 5 7 0 -3
BITMAP
78
40
40
30
10
90
70
ENDCHAR
STARTCHAR 1CE9
ENCODING 7401
SWIDTH 792 0
DWIDTH 11 0
BBX 9 9 1 0
BITMAP
6300
D480
9480
F380
8080
8080
8080
4100
3E00
ENDCHAR
STARTCHAR 1CEA
ENCODING 7402
SWIDTH 720 0
DWIDTH 10 0
BBX 9 9 1 0
BITMAP
E300
A480
9580
6400
4200
C100
C100
4300
3E00
ENDCHAR
STARTCHAR 1CEB
ENCODING 7403
SWIDTH 720 0
DWIDTH 10 0
BBX 9 9 1 0
BITMAP
E000
A700
9900
6C80
4680
C080
C100
4300
3E00
ENDCHAR
STARTCHAR 1CEC
ENCODING 7404
SWIDTH 792 0
DWIDTH 11 0
BBX 10 9 1 0
BITMAP
E000
A600
9900
6D00
4780
C1C0
C140
4240
3C40
ENDCHAR
STARTCHAR 1CED
ENCODING 7405
SWIDTH 0 0
DWIDTH 0 0
BBX 3 2 -2 -3
BITMAP
C0
60
ENDCHAR
STARTCHAR 1CEE
ENCODING 7406
SWIDTH 504 0
DWIDTH 7 0
BBX 6 9 1 0
BITMAP
70
80
80
84
74
40
C0
4C
78
ENDCHAR
STARTCHAR 1CEF
ENCODING 7407
SWIDTH 432 0
DWIDTH 6 0
BBX 5 9 1 0
BITMAP
70
C0
B0
80
78
60
B0
90
70
ENDCHAR
STARTCHAR 1CF0
ENCODING 7408
SWIDTH 504 0
DWIDTH 7 0
BBX 6 9 1 0
BITMAP
70
58
40
2C
70
C8
84
8C
78
ENDCHAR
STARTCHAR 1CF1
ENCODING 7409
SWIDTH 432 0
DWIDTH 6 0
BBX 6 8 1 0
BITMAP
60
D8
90
80
78
0C
C8
10
ENDCHAR
STARTCHAR 1CF2
ENCODING 7410
SWIDTH 504 0
DWIDTH 7 0
BBX 6 6 1 1
BITMAP
8C
C8
70
20
D8
88
ENDCHAR
STARTCHAR 1CF3
ENCODING 7411
SWIDTH 504 0
DWIDTH 7 0
BBX 6 6 1 1
BITMAP
84
D8
50
70
58
CC
ENDCHAR
STARTCHAR 1CF4
ENCODING 7412
SWIDTH 0 0
DWIDTH 0 0
BBX 6 3 -5 13
BITMAP
84
48
30
ENDCHAR
STARTCHAR 1CF5
ENCODING 7413
SWIDTH 504 0
DWIDTH 7 0
BBX 6 7 1 0
BITMAP
8C
58
70
30
50
88
80
ENDCHAR
STARTCHAR 1CF6
ENCODING 7414
SWIDTH 576 0
DWIDTH 8 0
BBX 7 3 1 3
BITMAP
92
92
EE
ENDCHAR
STARTCHAR 1CF8
ENCODING 7416
SWIDTH 0 0
DWIDTH 0 0
BBX 3 3 -3 9
BITMAP
C0
A0
40
ENDCHAR
STARTCHAR 1CF9
ENCODING 7417
SWIDTH 0 0
DWIDTH 0 0
BBX 6 3 -5 9
BITMAP
6C
B4
48
ENDCHAR
STARTCHAR 1D00
ENCODING 7424
SWIDTH 504 0
DWIDTH 7 0
BBX 7 7 0 0
BITMAP
18
38
28
24
7C
46
C2
ENDCHAR
STARTCHAR 1D01
ENCODING 7425
SWIDTH 648 0
DWIDTH 9 0
BBX 9 7 0 0
BITMAP
1F80
1400
3400
2780
7C00
4400
C780
ENDCHAR
STARTCHAR 1D02
ENCODING 7426
SWIDTH 864 0
DWIDTH 12 0
BBX 10 8 1 0
BITMAP
6180
DAC0
0C40
0C40
FF80
8C00
8C00
77C0
ENDCHAR
STARTCHAR 1D03
ENCODING 7427
SWIDTH 576 0
DWIDTH 8 0
BBX 8 7 0 0
BITMAP
7E
42
46
FF
42
42
7E
ENDCHAR
STARTCHAR 1D04
ENCODING 7428
SWIDTH 504 0
DWIDTH 7 0
BBX 6 8 1 0
BITMAP
10
6C
C0
80
80
80
C0
78
ENDCHAR
STARTCHAR 1D05
ENCODING 7429
SWIDTH 576 0
DWIDTH 8 0
BBX 6 7 1 0
BITMAP
F8
84
84
84
84
8C
F8
ENDCHAR
STARTCHAR 1D06
ENCODING 7430
SWIDTH 576 0
DWIDTH 8 0
BBX 7 7 0 0
BITMAP
7C
62
62
F2
62
66
7C
ENDCHAR
STARTCHAR 1D07
ENCODING 7431
SWIDTH 432 0
DWIDTH 6 0
BBX 5 7 1 0
BITMAP
F8
80
80
F0
80
80
F8
ENDCHAR
STARTCHAR 1D08
ENCODING 7432
SWIDTH 432 0
DWIDTH 6 0
BBX 6 8 0 0
BITMAP
30
CC
04
04
38
04
04
78
ENDCHAR
STARTCHAR 1D09
ENCODING 7433
SWIDTH 216 0
DWIDTH 3 0
BBX 2 10 1 -3
BITMAP
C0
C0
C0
C0
C0
C0
C0
00
80
C0
ENDCHAR
STARTCHAR 1D0A
ENCODING 7434
SWIDTH 288 0
DWIDTH 4 0
BBX 3 7 1 0
BITMAP
60
60
60
60
60
60
C0
ENDCHAR
STARTCHAR 1D0B
ENCODING 7435
SWIDTH 504 0
DWIDTH 7 0
BBX 6 7 1 0
BITMAP
88
90
A0
E0
90
98
8C
ENDCHAR
STARTCHAR 1D0C
ENCODING 7436
SWIDTH 432 0
DWIDTH 6 0
BBX 5 7 1 0
BITMAP
80
80
A0
C0
80
80
F8
ENDCHAR
STARTCHAR 1D0D
ENCODING 7437
SWIDTH 720 0
DWIDTH 10 0
BBX 8 7 1 0
BITMAP
C3
E3
A5
A5
99
99
99
ENDCHAR
STARTCHAR 1D0E
ENCODING 7438
SWIDTH 576 0
DWIDTH 8 0
BBX 6 7 1 0
BITMAP
8C
8C
9C
B4
A4
E4
C4
ENDCHAR
STARTCHAR 1D0F
ENCODING 7439
SWIDTH 576 0
DWIDTH 8 0
BBX 7 8 1 0
BITMAP
10
6C
86
82
82
82
C4
7C
ENDCHAR
STARTCHAR 1D10
ENCODING 7440
SWIDTH 504 0
DWIDTH 7 0
BBX 5 8 1 0
BITMAP
60
B8
08
08
08
08
18
F0
ENDCHAR
STARTCHAR 1D11
ENCODING 7441
SWIDTH 576 0
DWIDTH 8 0
BBX 8 7 0 0
BITMAP
3E
43
81
81
C1
7E
1C
ENDCHAR
STARTCHAR 1D12
ENCODING 7442
SWIDTH 576 0
DWIDTH 8 0
BBX 8 5 0 1
BITMAP
7E
43
81
81
41
ENDCHAR
STARTCHAR 1D13
ENCODING 7443
SWIDTH 576 0
DWIDTH 8 0
BBX 8 7 0 0
BITMAP
BE
63
B1
89
47
7F
1C
ENDCHAR
STARTCHAR 1D14
ENCODING 7444
SWIDTH 936 0
DWIDTH 13 0
BBX 11 8 1 0
BITMAP
6180
DA60
0C20
0420
FC20
8420
8E20
7BC0
ENDCHAR
STARTCHAR 1D15
ENCODING 7445
SWIDTH 504 0
DWIDTH 7 0
BBX 6 7 1 0
BITMAP
88
C8
70
8C
84
8C
78
ENDCHAR
STARTCHAR 1D16
ENCODING 7446
SWIDTH 576 0
DWIDTH 8 0
BBX 7 4 1 4
BITMAP
10
6C
86
82
ENDCHAR
STARTCHAR 1D17
ENCODING 7447
SWIDTH 576 0
DWIDTH 8 0
BBX 7 4 1 0
BITMAP
82
82
C4
7C
ENDCHAR
STARTCHAR 1D18
ENCODING 7448
SWIDTH 432 0
DWIDTH 6 0
BBX 5 7 1 0
BITMAP
F8
88
88
F8
80
80
80
ENDCHAR
STARTCHAR 1D19
ENCODING 7449
SWIDTH 504 0
DWIDTH 7 0
BBX 5 7 1 0
BITMAP
F8
88
88
78
48
C8
88
ENDCHAR
STARTCHAR 1D1A
ENCODING 7450
SWIDTH 504 0
DWIDTH 7 0
BBX 5 7 1 0
BITMAP
88
48
68
F8
88
88
78
ENDCHAR
STARTCHAR 1D1B
ENCODING 7451
SWIDTH 432 0
DWIDTH 6 0
BBX 6 7 0 0
BITMAP
FC
10
10
10
10
10
10
ENDCHAR
STARTCHAR 1D1C
ENCODING 7452
SWIDTH 576 0
DWIDTH 8 0
BBX 6 7 1 0
BITMAP
84
84
84
84
84
C4
78
ENDCHAR
STARTCHAR 1D1D
ENCODING 7453
SWIDTH 576 0
DWIDTH 8 0
BBX 7 6 1 1
BITMAP
FE
04
02
02
02
FE
ENDCHAR
STARTCHAR 1D1E
ENCODING 7454
SWIDTH 720 0
DWIDTH 10 0
BBX 11 6 0 1
BITMAP
1FC0
C0C0
0040
0020
C040
1FC0
ENDCHAR
STARTCHAR 1D1F
ENCODING 7455
SWIDTH 576 0
DWIDTH 8 0
BBX 7 11 1 -2
BITMAP
FE
04
02
02
06
FC
02
02
02
FE
F8
ENDCHAR
STARTCHAR 1D20
ENCODING 7456
SWIDTH 432 0
DWIDTH 6 0
BBX 6 7 0 0
BITMAP
C4
44
4C
68
28
38
30
ENDCHAR
STARTCHAR 1D21
ENCODING 7457
SWIDTH 648 0
DWIDTH 9 0
BBX 10 7 0 0
BITMAP
CCC0
4C80
4C80
5280
5380
3300
2300
ENDCHAR
STARTCHAR 1D22
ENCODING 7458
SWIDTH 432 0
DWIDTH 6 0
BBX 5 7 1 0
BITMAP
F8
10
20
60
40
80
F8
ENDCHAR
STARTCHAR 1D23
ENCODING 7459
SWIDTH 432 0
DWIDTH 6 0
BBX 6 7 0 0
BITMAP
7C
18
30
0C
04
04
F8
ENDCHAR
STARTCHAR 1D24
ENCODING 7460
SWIDTH 360 0
DWIDTH 5 0
BBX 6 11 0 0
BITMAP
30
58
0C
08
18
30
70
40
80
C0
7C
ENDCHAR
STARTCHAR 1D25
ENCODING 7461
SWIDTH 504 0
DWIDTH 7 0
BBX 7 8 0 0
BITMAP
10
7C
7C
7C
38
38
38
EE
ENDCHAR
STARTCHAR 1D26
ENCODING 7462
SWIDTH 432 0
DWIDTH 6 0
BBX 5 7 1 0
BITMAP
F8
80
80
80
80
80
80
ENDCHAR
STARTCHAR 1D27
ENCODING 7463
SWIDTH 432 0
DWIDTH 6 0
BBX 7 7 0 0
BITMAP
10
28
28
68
44
44
C6
ENDCHAR
STARTCHAR 1D28
ENCODING 7464
SWIDTH 576 0
DWIDTH 8 0
BBX 6 7 1 0
BITMAP
FC
84
84
84
84
84
84
ENDCHAR
STARTCHAR 1D29
ENCODING 7465
SWIDTH 432 0
DWIDTH 6 0
BBX 5 7 1 0
BITMAP
F8
88
88
F8
80
80
80
ENDCHAR
STARTCHAR 1D2A
ENCODING 7466
SWIDTH 648 0
DWIDTH 9 0
BBX 7 7 1 0
BITMAP
92
92
92
D6
7C
10
10
ENDCHAR
STARTCHAR 1D2B
ENCODING 7467
SWIDTH 576 0
DWIDTH 8 0
BBX 7 7 0 0
BITMAP
3E
22
22
22
22
22
C2
ENDCHAR
STARTCHAR 1D2C
ENCODING 7468
SWIDTH 360 0
DWIDTH 5 0
BBX 6 6 0 4
BITMAP
20
30
50
78
88
84
ENDCHAR
STARTCHAR 1D2D
ENCODING 7469
SWIDTH 504 0
DWIDTH 7 0
BBX 7 6 0 4
BITMAP
1E
28
28
7E
48
8E
ENDCHAR
STARTCHAR 1D2E
ENCODING 7470
SWIDTH 360 0
DWIDTH 5 0
BBX 4 6 1 4
BITMAP
F0
90
90
F0
90
F0
ENDCHAR
STARTCHAR 1D2F
ENCODING 7471
SWIDTH 360 0
DWIDTH 5 0
BBX 4 6 1 4
BITMAP
F0
90
90
F0
90
F0
ENDCHAR
STARTCHAR 1D30
ENCODING 7472
SWIDTH 432 0
DWIDTH 6 0
BBX 5 6 1 4
BITMAP
F0
88
88
88
88
F0
ENDCHAR
STARTCHAR 1D31
ENCODING 7473
SWIDTH 360 0
DWIDTH 5 0
BBX 3 6 1 4
BITMAP
E0
80
80
E0
80
E0
ENDCHAR
STARTCHAR 1D32
ENCODING 7474
SWIDTH 360 0
DWIDTH 5 0
BBX 3 6 1 4
BITMAP
E0
20
20
E0
20
E0
ENDCHAR
STARTCHAR 1D33
ENCODING 7475
SWIDTH 432 0
DWIDTH 6 0
BBX 5 6 1 4
BITMAP
78
80
80
98
88
78
ENDCHAR
STARTCHAR 1D34
ENCODING 7476
SWIDTH 432 0
DWIDTH 6 0
BBX 5 6 1 4
BITMAP
88
88
88
F8
88
88
ENDCHAR
STARTCHAR 1D35
ENCODING 7477
SWIDTH 216 0
DWIDTH 3 0
BBX 3 6 0 4
BITMAP
E0
40
40
40
40
40
ENDCHAR
STARTCHAR 1D36
ENCODING 7478
SWIDTH 144 0
DWIDTH 2 0
BBX 3 8 -1 2
BITMAP
20
20
20
20
20
20
20
C0
ENDCHAR
STARTCHAR 1D37
ENCODING 7479
SWIDTH 360 0
DWIDTH 5 0
BBX 4 6 1 4
BITMAP
90
A0
C0
A0
A0
90
ENDCHAR
STARTCHAR 1D38
ENCODING 7480
SWIDTH 288 0
DWIDTH 4 0
BBX 4 6 1 4
BITMAP
80
80
80
80
80
F0
ENDCHAR
STARTCHAR 1D39
ENCODING 7481
SWIDTH 576 0
DWIDTH 8 0
BBX 6 6 1 4
BITMAP
84
CC
CC
D4
B4
94
ENDCHAR
STARTCHAR 1D3A
ENCODING 7482
SWIDTH 432 0
DWIDTH 6 0
BBX 5 6 1 4
BITMAP
88
C8
A8
A8
98
88
ENDCHAR
STARTCHAR 1D3B
ENCODING 7483
SWIDTH 432 0
DWIDTH 6 0
BBX 5 6 1 4
BITMAP
88
98
A8
A8
C8
88
ENDCHAR
STARTCHAR 1D3C
ENCODING 7484
SWIDTH 504 0
DWIDTH 7 0
BBX 5 6 1 4
BITMAP
70
88
88
88
88
70
ENDCHAR
STARTCHAR 1D3D
ENCODING 7485
SWIDTH 432 0
DWIDTH 6 0
BBX 4 6 1 4
BITMAP
90
90
60
90
90
F0
ENDCHAR
STARTCHAR 1D3E
ENCODING 7486
SWIDTH 360 0
DWIDTH 5 0
BBX 4 6 1 4
BITMAP
E0
90
90
E0
80
80
ENDCHAR
STARTCHAR 1D3F
ENCODING 7487
SWIDTH 360 0
DWIDTH 5 0
BBX 4 6 1 4
BITMAP
E0
90
90
E0
A0
90
ENDCHAR
STARTCHAR 1D40
ENCODING 7488
SWIDTH 360 0
DWIDTH 5 0
BBX 5 6 0 4
BITMAP
F8
20
20
20
20
20
ENDCHAR
STARTCHAR 1D41
ENCODING 7489
SWIDTH 432 0
DWIDTH 6 0
BBX 5 6 1 4
BITMAP
88
88
88
88
88
F0
ENDCHAR
STARTCHAR 1D42
ENCODING 7490
SWIDTH 576 0
DWIDTH 8 0
BBX 8 6 0 4
BITMAP
89
99
59
66
66
22
ENDCHAR
STARTCHAR 1D43
ENCODING 7491
SWIDTH 360 0
DWIDTH 5 0
BBX 4 5 0 4
BITMAP
20
50
30
D0
70
ENDCHAR
STARTCHAR 1D44
ENCODING 7492
SWIDTH 360 0
DWIDTH 5 0
BBX 4 5 1 4
BITMAP
20
D0
A0
C0
E0
ENDCHAR
STARTCHAR 1D45
ENCODING 7493
SWIDTH 360 0
DWIDTH 5 0
BBX 5 5 0 4
BITMAP
20
58
88
88
78
ENDCHAR
STARTCHAR 1D46
ENCODING 7494
SWIDTH 504 0
DWIDTH 7 0
BBX 7 5 0 4
BITMAP
24
5A
12
FC
7E
ENDCHAR
STARTCHAR 1D47
ENCODING 7495
SWIDTH 360 0
DWIDTH 5 0
BBX 4 6 1 4
BITMAP
80
80
F0
90
90
F0
ENDCHAR
STARTCHAR 1D48
ENCODING 7496
SWIDTH 360 0
DWIDTH 5 0
BBX 5 6 0 4
BITMAP
08
28
58
88
88
78
ENDCHAR
STARTCHAR 1D49
ENCODING 7497
SWIDTH 360 0
DWIDTH 5 0
BBX 5 5 0 4
BITMAP
20
50
78
80
70
ENDCHAR
STARTCHAR 1D4A
ENCODING 7498
SWIDTH 360 0
DWIDTH 5 0
BBX 5 5 0 4
BITMAP
20
50
08
F8
70
ENDCHAR
STARTCHAR 1D4B
ENCODING 7499
SWIDTH 288 0
DWIDTH 4 0
BBX 4 5 0 4
BITMAP
20
D0
60
80
70
ENDCHAR
STARTCHAR 1D4C
ENCODING 7500
SWIDTH 288 0
DWIDTH 4 0
BBX 4 5 0 4
BITMAP
60
10
10
30
F0
ENDCHAR
STARTCHAR 1D4D
ENCODING 7501
SWIDTH 360 0
DWIDTH 5 0
BBX 5 7 0 2
BITMAP
20
58
88
88
78
08
70
ENDCHAR
STARTCHAR 1D4E
ENCODING 7502
SWIDTH 144 0
DWIDTH 2 0
BBX 1 6 1 2
BITMAP
80
80
80
80
00
80
ENDCHAR
STARTCHAR 1D4F
ENCODING 7503
SWIDTH 288 0
DWIDTH 4 0
BBX 3 6 1 4
BITMAP
80
80
A0
C0
C0
A0
ENDCHAR
STARTCHAR 1D50
ENCODING 7504
SWIDTH 576 0
DWIDTH 8 0
BBX 7 5 1 4
BITMAP
24
DA
92
92
92
ENDCHAR
STARTCHAR 1D51
ENCODING 7505
SWIDTH 360 0
DWIDTH 5 0
BBX 4 7 1 2
BITMAP
20
D0
90
90
90
10
30
ENDCHAR
STARTCHAR 1D52
ENCODING 7506
SWIDTH 360 0
DWIDTH 5 0
BBX 5 5 0 4
BITMAP
20
58
88
88
70
ENDCHAR
STARTCHAR 1D53
ENCODING 7507
SWIDTH 288 0
DWIDTH 4 0
BBX 4 5 0 4
BITMAP
40
30
10
10
E0
ENDCHAR
STARTCHAR 1D54
ENCODING 7508
SWIDTH 360 0
DWIDTH 5 0
BBX 4 2 1 7
BITMAP
F0
10
ENDCHAR
STARTCHAR 1D55
ENCODING 7509
SWIDTH 360 0
DWIDTH 5 0
BBX 4 2 1 4
BITMAP
90
F0
ENDCHAR
STARTCHAR 1D56
ENCODING 7510
SWIDTH 360 0
DWIDTH 5 0
BBX 4 7 1 2
BITMAP
20
D0
90
90
F0
80
80
ENDCHAR
STARTCHAR 1D57
ENCODING 7511
SWIDTH 216 0
DWIDTH 3 0
BBX 2 5 1 4
BITMAP
80
C0
80
80
C0
ENDCHAR
STARTCHAR 1D58
ENCODING 7512
SWIDTH 360 0
DWIDTH 5 0
BBX 4 4 1 4
BITMAP
90
90
90
F0
ENDCHAR
STARTCHAR 1D59
ENCODING 7513
SWIDTH 360 0
DWIDTH 5 0
BBX 5 4 0 4
BITMAP
F8
08
08
F0
ENDCHAR
STARTCHAR 1D5A
ENCODING 7514
SWIDTH 576 0
DWIDTH 8 0
BBX 7 4 1 4
BITMAP
92
92
92
FE
ENDCHAR
STARTCHAR 1D5B
ENCODING 7515
SWIDTH 288 0
DWIDTH 4 0
BBX 4 4 0 4
BITMAP
90
50
60
20
ENDCHAR
STARTCHAR 1D5C
ENCODING 7516
SWIDTH 288 0
DWIDTH 4 0
BBX 4 5 0 4
BITMAP
20
70
70
20
D0
ENDCHAR
STARTCHAR 1D5D
ENCODING 7517
SWIDTH 360 0
DWIDTH 5 0
BBX 4 8 1 2
BITMAP
F0
90
E0
90
90
F0
80
80
ENDCHAR
STARTCHAR 1D5E
ENCODING 7518
SWIDTH 288 0
DWIDTH 4 0
BBX 4 6 0 2
BITMAP
90
50
50
20
20
20
ENDCHAR
STARTCHAR 1D5F
ENCODING 7519
SWIDTH 360 0
DWIDTH 5 0
BBX 5 6 0 4
BITMAP
70
40
70
88
88
70
ENDCHAR
STARTCHAR 1D60
ENCODING 7520
SWIDTH 432 0
DWIDTH 6 0
BBX 6 8 0 2
BITMAP
10
10
7C
94
94
78
10
10
ENDCHAR
STARTCHAR 1D61
ENCODING 7521
SWIDTH 288 0
DWIDTH 4 0
BBX 5 6 0 2
BITMAP
48
50
20
20
50
88
ENDCHAR
STARTCHAR 1D62
ENCODING 7522
SWIDTH 144 0
DWIDTH 2 0
BBX 1 6 1 -1
BITMAP
80
00
80
80
80
80
ENDCHAR
STARTCHAR 1D63
ENCODING 7523
SWIDTH 216 0
DWIDTH 3 0
BBX 3 4 1 -1
BITMAP
E0
80
80
80
ENDCHAR
STARTCHAR 1D64
ENCODING 7524
SWIDTH 360 0
DWIDTH 5 0
BBX 4 4 1 -1
BITMAP
90
90
90
F0
ENDCHAR
STARTCHAR 1D65
ENCODING 7525
SWIDTH 288 0
DWIDTH 4 0
BBX 4 4 0 -1
BITMAP
90
90
60
60
ENDCHAR
STARTCHAR 1D66
ENCODING 7526
SWIDTH 360 0
DWIDTH 5 0
BBX 4 8 1 -3
BITMAP
E0
90
A0
90
90
90
E0
80
ENDCHAR
STARTCHAR 1D67
ENCODING 7527
SWIDTH 288 0
DWIDTH 4 0
BBX 4 6 0 -3
BITMAP
90
90
50
60
20
20
ENDCHAR
STARTCHAR 1D68
ENCODING 7528
SWIDTH 360 0
DWIDTH 5 0
BBX 4 6 1 -3
BITMAP
E0
90
90
90
E0
80
ENDCHAR
STARTCHAR 1D69
ENCODING 7529
SWIDTH 432 0
DWIDTH 6 0
BBX 6 8 0 -3
BITMAP
10
10
78
94
94
54
38
10
ENDCHAR
STARTCHAR 1D6A
ENCODING 7530
SWIDTH 288 0
DWIDTH 4 0
BBX 4 6 1 -3
BITMAP
90
A0
60
40
A0
B0
ENDCHAR
STARTCHAR 1D6B
ENCODING 7531
SWIDTH 864 0
DWIDTH 12 0
BBX 11 8 1 0
BITMAP
0180
8760
8420
8420
87E0
8400
C600
7BE0
ENDCHAR
STARTCHAR 1D6C
ENCODING 7532
SWIDTH 576 0
DWIDTH 8 0
BBX 8 11 0 0
BITMAP
40
D0
70
48
76
63
43
41
63
62
5E
ENDCHAR
STARTCHAR 1D6D
ENCODING 7533
SWIDTH 576 0
DWIDTH 8 0
BBX 8 11 1 0
BITMAP
04
0D
17
34
4C
84
84
84
84
C4
7C
ENDCHAR
STARTCHAR 1D6E
ENCODING 7534
SWIDTH 288 0
DWIDTH 4 0
BBX 5 11 0 0
BITMAP
18
20
20
20
F8
20
60
B0
20
20
20
ENDCHAR
STARTCHAR 1D6F
ENCODING 7535
SWIDTH 864 0
DWIDTH 12 0
BBX 13 8 0 0
BITMAP
0840
77B0
6210
4210
FFF8
4210
4210
4210
ENDCHAR
STARTCHAR 1D70
ENCODING 7536
SWIDTH 576 0
DWIDTH 8 0
BBX 9 8 0 0
BITMAP
0C00
7600
6200
4280
FF80
4200
4200
4200
ENDCHAR
STARTCHAR 1D71
ENCODING 7537
SWIDTH 576 0
DWIDTH 8 0
BBX 8 11 0 -3
BITMAP
08
76
63
43
41
63
62
5E
40
F0
40
ENDCHAR
STARTCHAR 1D72
ENCODING 7538
SWIDTH 360 0
DWIDTH 5 0
BBX 6 8 0 0
BITMAP
0C
58
60
40
D0
60
40
40
ENDCHAR
STARTCHAR 1D73
ENCODING 7539
SWIDTH 288 0
DWIDTH 4 0
BBX 4 8 0 0
BITMAP
10
60
40
40
D0
60
40
40
ENDCHAR
STARTCHAR 1D74
ENCODING 7540
SWIDTH 432 0
DWIDTH 6 0
BBX 7 8 0 0
BITMAP
18
6C
40
62
9C
04
04
78
ENDCHAR
STARTCHAR 1D75
ENCODING 7541
SWIDTH 360 0
DWIDTH 5 0
BBX 5 9 0 0
BITMAP
20
60
F8
60
E0
F0
60
60
38
ENDCHAR
STARTCHAR 1D76
ENCODING 7542
SWIDTH 432 0
DWIDTH 6 0
BBX 6 7 0 0
BITMAP
7C
08
74
BC
20
40
7C
ENDCHAR
STARTCHAR 1D77
ENCODING 7543
SWIDTH 576 0
DWIDTH 8 0
BBX 7 11 1 0
BITMAP
3C
44
C0
90
EC
C6
86
82
86
C4
BC
ENDCHAR
STARTCHAR 1D78
ENCODING 7544
SWIDTH 360 0
DWIDTH 5 0
BBX 4 4 1 4
BITMAP
90
F0
90
90
ENDCHAR
STARTCHAR 1D79
ENCODING 7545
SWIDTH 576 0
DWIDTH 8 0
BBX 6 10 1 -3
BITMAP
FC
10
60
30
7C
84
84
84
84
78
ENDCHAR
STARTCHAR 1D7A
ENCODING 7546
SWIDTH 936 0
DWIDTH 13 0
BBX 12 12 0 -1
BITMAP
0220
0240
2280
6360
FBB0
6310
6610
6A10
7210
7210
3A10
4000
ENDCHAR
STARTCHAR 1D7B
ENCODING 7547
SWIDTH 288 0
DWIDTH 4 0
BBX 4 7 0 0
BITMAP
60
20
20
70
20
20
F0
ENDCHAR
STARTCHAR 1D7C
ENCODING 7548
SWIDTH 288 0
DWIDTH 4 0
BBX 4 7 0 0
BITMAP
40
40
40
F0
40
40
30
ENDCHAR
STARTCHAR 1D7D
ENCODING 7549
SWIDTH 576 0
DWIDTH 8 0
BBX 9 11 0 -3
BITMAP
0800
7600
6300
4300
FF80
6300
6200
5E00
4000
4000
4000
ENDCHAR
STARTCHAR 1D7E
ENCODING 7550
SWIDTH 576 0
DWIDTH 8 0
BBX 8 7 0 0
BITMAP
42
42
FF
42
42
62
3C
ENDCHAR
STARTCHAR 1D7F
ENCODING 7551
SWIDTH 576 0
DWIDTH 8 0
BBX 8 7 0 0
BITMAP
F7
62
42
FF
43
62
3C
ENDCHAR
STARTCHAR 1D80
ENCODING 7552
SWIDTH 576 0
DWIDTH 8 0
BBX 7 14 1 -3
BITMAP
80
80
80
90
EC
C6
86
82
C6
C4
BC
04
04
18
ENDCHAR
STARTCHAR 1D81
ENCODING 7553
SWIDTH 576 0
DWIDTH 8 0
BBX 7 14 1 -3
BITMAP
04
04
04
34
4C
84
84
84
84
C4
7E
02
02
04
ENDCHAR
STARTCHAR 1D82
ENCODING 7554
SWIDTH 288 0
DWIDTH 4 0
BBX 5 14 0 -3
BITMAP
18
20
20
20
F8
20
20
20
20
20
20
20
20
60
ENDCHAR
STARTCHAR 1D83
ENCODING 7555
SWIDTH 720 0
DWIDTH 10 0
BBX 10 11 1 -3
BITMAP
3000
4C00
8400
8400
8400
8400
C7C0
7CC0
04C0
0480
FD80
ENDCHAR
STARTCHAR 1D84
ENCODING 7556
SWIDTH 504 0
DWIDTH 7 0
BBX 6 14 1 -3
BITMAP
80
80
80
80
8C
90
A0
F0
90
88
8C
04
04
0C
ENDCHAR
STARTCHAR 1D85
ENCODING 7557
SWIDTH 216 0
DWIDTH 3 0
BBX 2 14 1 -3
BITMAP
80
80
80
80
80
80
80
80
80
80
C0
40
40
80
ENDCHAR
STARTCHAR 1D86
ENCODING 7558
SWIDTH 864 0
DWIDTH 12 0
BBX 11 11 1 -3
BITMAP
1080
EF60
C420
8420
8420
8420
8420
8420
0020
0020
0060
ENDCHAR
STARTCHAR 1D87
ENCODING 7559
SWIDTH 576 0
DWIDTH 8 0
BBX 7 11 1 -3
BITMAP
18
EC
C4
84
84
84
84
86
02
02
04
ENDCHAR
STARTCHAR 1D88
ENCODING 7560
SWIDTH 576 0
DWIDTH 8 0
BBX 7 11 1 -3
BITMAP
10
EC
C6
86
82
C6
C4
BC
84
84
98
ENDCHAR
STARTCHAR 1D89
ENCODING 7561
SWIDTH 360 0
DWIDTH 5 0
BBX 5 11 1 -3
BITMAP
18
B0
C0
80
80
80
80
C0
40
40
80
ENDCHAR
STARTCHAR 1D8A
ENCODING 7562
SWIDTH 432 0
DWIDTH 6 0
BBX 5 11 1 -3
BITMAP
30
D8
80
C0
30
08
08
F0
10
10
30
ENDCHAR
STARTCHAR 1D8B
ENCODING 7563
SWIDTH 360 0
DWIDTH 5 0
BBX 6 14 0 -3
BITMAP
30
60
40
40
40
40
40
40
40
7C
4C
4C
4C
D8
ENDCHAR
STARTCHAR 1D8C
ENCODING 7564
SWIDTH 504 0
DWIDTH 7 0
BBX 7 10 0 -3
BITMAP
C6
44
44
6C
28
28
1E
06
04
0C
ENDCHAR
STARTCHAR 1D8D
ENCODING 7565
SWIDTH 504 0
DWIDTH 7 0
BBX 6 10 1 -3
BITMAP
88
58
70
30
50
C8
8C
04
04
08
ENDCHAR
STARTCHAR 1D8E
ENCODING 7566
SWIDTH 432 0
DWIDTH 6 0
BBX 5 10 1 -3
BITMAP
F8
10
20
60
40
80
F8
08
08
10
ENDCHAR
STARTCHAR 1D8F
ENCODING 7567
SWIDTH 504 0
DWIDTH 7 0
BBX 8 11 1 -3
BITMAP
30
48
0C
0C
FC
8C
8C
F4
04
04
03
ENDCHAR
STARTCHAR 1D90
ENCODING 7568
SWIDTH 576 0
DWIDTH 8 0
BBX 9 11 1 -3
BITMAP
3000
4C00
8400
8400
8400
8400
C400
7E00
0200
0200
0180
ENDCHAR
STARTCHAR 1D91
ENCODING 7569
SWIDTH 576 0
DWIDTH 8 0
BBX 8 14 1 -3
BITMAP
03
06
04
34
4C
84
84
84
84
C4
7C
04
04
07
ENDCHAR
STARTCHAR 1D92
ENCODING 7570
SWIDTH 504 0
DWIDTH 7 0
BBX 7 11 1 -3
BITMAP
30
48
84
84
FC
80
C0
7C
04
04
06
ENDCHAR
STARTCHAR 1D93
ENCODING 7571
SWIDTH 432 0
DWIDTH 6 0
BBX 7 11 1 -3
BITMAP
30
C8
80
C0
F0
80
80
F8
08
08
06
ENDCHAR
STARTCHAR 1D94
ENCODING 7572
SWIDTH 432 0
DWIDTH 6 0
BBX 6 11 0 -3
BITMAP
30
4C
04
0C
38
04
04
F8
C0
40
60
ENDCHAR
STARTCHAR 1D95
ENCODING 7573
SWIDTH 648 0
DWIDTH 9 0
BBX 8 11 1 -3
BITMAP
60
D8
0C
04
FE
86
8E
7A
02
02
01
ENDCHAR
STARTCHAR 1D96
ENCODING 7574
SWIDTH 216 0
DWIDTH 3 0
BBX 3 13 1 -3
BITMAP
C0
00
00
80
80
80
80
80
80
C0
40
40
20
ENDCHAR
STARTCHAR 1D97
ENCODING 7575
SWIDTH 432 0
DWIDTH 6 0
BBX 5 11 1 -3
BITMAP
40
B0
18
08
08
08
10
F0
80
80
C0
ENDCHAR
STARTCHAR 1D98
ENCODING 7576
SWIDTH 216 0
DWIDTH 3 0
BBX 4 14 0 -3
BITMAP
30
60
40
40
40
40
40
40
40
40
C0
80
80
C0
ENDCHAR
STARTCHAR 1D99
ENCODING 7577
SWIDTH 576 0
DWIDTH 8 0
BBX 8 10 1 -3
BITMAP
84
84
84
84
84
C4
7E
02
02
01
ENDCHAR
STARTCHAR 1D9A
ENCODING 7578
SWIDTH 432 0
DWIDTH 6 0
BBX 6 10 0 -3
BITMAP
7C
18
30
0C
04
04
F8
C0
40
60
ENDCHAR
STARTCHAR 1D9B
ENCODING 7579
SWIDTH 360 0
DWIDTH 5 0
BBX 5 5 0 4
BITMAP
90
68
48
48
78
ENDCHAR
STARTCHAR 1D9C
ENCODING 7580
SWIDTH 288 0
DWIDTH 4 0
BBX 4 5 0 4
BITMAP
20
50
80
80
70
ENDCHAR
STARTCHAR 1D9D
ENCODING 7581
SWIDTH 288 0
DWIDTH 4 0
BBX 4 5 0 4
BITMAP
20
50
80
B0
70
ENDCHAR
STARTCHAR 1D9E
ENCODING 7582
SWIDTH 360 0
DWIDTH 5 0
BBX 5 6 0 4
BITMAP
30
10
78
88
88
70
ENDCHAR
STARTCHAR 1D9F
ENCODING 7583
SWIDTH 288 0
DWIDTH 4 0
BBX 4 5 0 4
BITMAP
60
10
60
10
F0
ENDCHAR
STARTCHAR 1DA0
ENCODING 7584
SWIDTH 216 0
DWIDTH 3 0
BBX 2 6 1 4
BITMAP
C0
80
C0
80
80
80
ENDCHAR
STARTCHAR 1DA1
ENCODING 7585
SWIDTH 144 0
DWIDTH 2 0
BBX 3 6 -1 2
BITMAP
20
60
20
20
20
C0
ENDCHAR
STARTCHAR 1DA2
ENCODING 7586
SWIDTH 360 0
DWIDTH 5 0
BBX 5 7 0 2
BITMAP
20
58
88
88
78
08
70
ENDCHAR
STARTCHAR 1DA3
ENCODING 7587
SWIDTH 360 0
DWIDTH 5 0
BBX 4 6 1 2
BITMAP
90
90
90
F0
10
10
ENDCHAR
STARTCHAR 1DA4
ENCODING 7588
SWIDTH 144 0
DWIDTH 2 0
BBX 2 6 0 4
BITMAP
40
00
40
C0
40
40
ENDCHAR
STARTCHAR 1DA5
ENCODING 7589
SWIDTH 216 0
DWIDTH 3 0
BBX 2 4 1 4
BITMAP
80
80
80
C0
ENDCHAR
STARTCHAR 1DA6
ENCODING 7590
SWIDTH 144 0
DWIDTH 2 0
BBX 1 4 1 4
BITMAP
80
80
80
80
ENDCHAR
STARTCHAR 1DA7
ENCODING 7591
SWIDTH 144 0
DWIDTH 2 0
BBX 3 4 0 4
BITMAP
40
E0
40
40
ENDCHAR
STARTCHAR 1DA8
ENCODING 7592
SWIDTH 144 0
DWIDTH 2 0
BBX 3 8 -1 2
BITMAP
20
00
20
20
20
20
E0
C0
ENDCHAR
STARTCHAR 1DA9
ENCODING 7593
SWIDTH 144 0
DWIDTH 2 0
BBX 2 8 1 2
BITMAP
80
80
80
80
80
80
80
C0
ENDCHAR
STARTCHAR 1DAA
ENCODING 7594
SWIDTH 144 0
DWIDTH 2 0
BBX 2 8 0 2
BITMAP
40
40
40
40
40
40
40
C0
ENDCHAR
STARTCHAR 1DAB
ENCODING 7595
SWIDTH 216 0
DWIDTH 3 0
BBX 3 4 1 4
BITMAP
80
80
80
E0
ENDCHAR
STARTCHAR 1DAC
ENCODING 7596
SWIDTH 576 0
DWIDTH 8 0
BBX 7 7 1 2
BITMAP
24
DA
92
92
92
02
06
ENDCHAR
STARTCHAR 1DAD
ENCODING 7597
SWIDTH 576 0
DWIDTH 8 0
BBX 7 6 1 2
BITMAP
92
92
92
FE
02
02
ENDCHAR
STARTCHAR 1DAE
ENCODING 7598
SWIDTH 360 0
DWIDTH 5 0
BBX 5 7 0 2
BITMAP
10
68
48
48
48
40
80
ENDCHAR
STARTCHAR 1DAF
ENCODING 7599
SWIDTH 360 0
DWIDTH 5 0
BBX 5 7 1 2
BITMAP
20
D0
90
90
90
10
18
ENDCHAR
STARTCHAR 1DB0
ENCODING 7600
SWIDTH 360 0
DWIDTH 5 0
BBX 4 4 1 4
BITMAP
90
D0
B0
90
ENDCHAR
STARTCHAR 1DB1
ENCODING 7601
SWIDTH 360 0
DWIDTH 5 0
BBX 5 5 0 4
BITMAP
20
58
78
88
70
ENDCHAR
STARTCHAR 1DB2
ENCODING 7602
SWIDTH 432 0
DWIDTH 6 0
BBX 6 8 0 2
BITMAP
10
10
7C
94
94
78
10
10
ENDCHAR
STARTCHAR 1DB3
ENCODING 7603
SWIDTH 288 0
DWIDTH 4 0
BBX 4 7 0 2
BITMAP
20
C0
60
10
F0
80
60
ENDCHAR
STARTCHAR 1DB4
ENCODING 7604
SWIDTH 144 0
DWIDTH 2 0
BBX 2 8 0 2
BITMAP
40
40
40
40
40
40
40
80
ENDCHAR
STARTCHAR 1DB5
ENCODING 7605
SWIDTH 216 0
DWIDTH 3 0
BBX 2 7 1 2
BITMAP
80
C0
80
80
C0
40
C0
ENDCHAR
STARTCHAR 1DB6
ENCODING 7606
SWIDTH 360 0
DWIDTH 5 0
BBX 5 4 0 4
BITMAP
48
F8
48
78
ENDCHAR
STARTCHAR 1DB7
ENCODING 7607
SWIDTH 360 0
DWIDTH 5 0
BBX 5 4 0 4
BITMAP
58
88
88
70
ENDCHAR
STARTCHAR 1DB8
ENCODING 7608
SWIDTH 360 0
DWIDTH 5 0
BBX 4 4 1 4
BITMAP
90
90
90
E0
ENDCHAR
STARTCHAR 1DB9
ENCODING 7609
SWIDTH 360 0
DWIDTH 5 0
BBX 4 5 1 4
BITMAP
20
90
90
90
E0
ENDCHAR
STARTCHAR 1DBA
ENCODING 7610
SWIDTH 288 0
DWIDTH 4 0
BBX 4 4 0 4
BITMAP
60
50
90
90
ENDCHAR
STARTCHAR 1DBB
ENCODING 7611
SWIDTH 288 0
DWIDTH 4 0
BBX 4 4 0 4
BITMAP
70
20
40
F0
ENDCHAR
STARTCHAR 1DBC
ENCODING 7612
SWIDTH 288 0
DWIDTH 4 0
BBX 5 6 0 2
BITMAP
70
20
40
F0
10
18
ENDCHAR
STARTCHAR 1DBD
ENCODING 7613
SWIDTH 288 0
DWIDTH 4 0
BBX 5 5 0 3
BITMAP
70
20
58
F8
40
ENDCHAR
STARTCHAR 1DBE
ENCODING 7614
SWIDTH 288 0
DWIDTH 4 0
BBX 4 6 0 2
BITMAP
70
20
60
10
10
E0
ENDCHAR
STARTCHAR 1DBF
ENCODING 7615
SWIDTH 360 0
DWIDTH 5 0
BBX 5 6 0 4
BITMAP
70
88
F8
88
88
70
ENDCHAR
STARTCHAR 1DC0
ENCODING 7616
SWIDTH 0 0
DWIDTH 0 0
BBX 4 2 -2 9
BITMAP
50
A0
ENDCHAR
STARTCHAR 1DC1
ENCODING 7617
SWIDTH 0 0
DWIDTH 0 0
BBX 6 2 -3 9
BITMAP
1C
E0
ENDCHAR
STARTCHAR 1DC2
ENCODING 7618
SWIDTH 0 0
DWIDTH 0 0
BBX 1 2 -1 -3
BITMAP
80
80
ENDCHAR
STARTCHAR 1DC3
ENCODING 7619
SWIDTH 0 0
DWIDTH 0 0
BBX 6 2 -3 8
BITMAP
DC
20
ENDCHAR
STARTCHAR 1DC4
ENCODING 7620
SWIDTH 0 0
DWIDTH 0 0
BBX 4 2 -2 8
BITMAP
30
C0
ENDCHAR
STARTCHAR 1DC5
ENCODING 7621
SWIDTH 0 0
DWIDTH 0 0
BBX 4 2 -2 8
BITMAP
C0
30
ENDCHAR
STARTCHAR 1DC6
ENCODING 7622
SWIDTH 0 0
DWIDTH 0 0
BBX 4 2 -2 8
BITMAP
E0
10
ENDCHAR
STARTCHAR 1DC7
ENCODING 7623
SWIDTH 0 0
DWIDTH 0 0
BBX 4 2 -2 8
BITMAP
70
80
ENDCHAR
STARTCHAR 1DC8
ENCODING 7624
SWIDTH 0 0
DWIDTH 0 0
BBX 6 2 -3 8
BITMAP
F8
04
ENDCHAR
STARTCHAR 1DC9
ENCODING 7625
SWIDTH 0 0
DWIDTH 0 0
BBX 6 2 -3 8
BITMAP
7C
80
ENDCHAR
STARTCHAR 1DCA
ENCODING 7626
SWIDTH 0 0
DWIDTH 0 0
BBX 1 3 -1 -4
BITMAP
80
80
80
ENDCHAR
STARTCHAR 1DCB
ENCODING 7627
SWIDTH 0 0
DWIDTH 0 0
BBX 7 1 -7 9
BITMAP
FE
ENDCHAR
STARTCHAR 1DCC
ENCODING 7628
SWIDTH 0 0
DWIDTH 0 0
BBX 7 2 -7 8
BITMAP
F2
0C
ENDCHAR
STARTCHAR 1DCD
ENCODING 7629
SWIDTH 0 0
DWIDTH 0 0
BBX 12 3 -6 8
BITMAP
0600
1980
E070
ENDCHAR
STARTCHAR 1DCE
ENCODING 7630
SWIDTH 0 0
DWIDTH 0 0
BBX 2 3 -5 7
BITMAP
C0
40
40
ENDCHAR
STARTCHAR 1DCF
ENCODING 7631
SWIDTH 0 0
DWIDTH 0 0
BBX 3 2 -5 -3
BITMAP
E0
40
ENDCHAR
STARTCHAR 1DD0
ENCODING 7632
SWIDTH 0 0
DWIDTH 0 0
BBX 6 3 -3 -3
BITMAP
44
E4
9C
ENDCHAR
STARTCHAR 1DD1
ENCODING 7633
SWIDTH 0 0
DWIDTH 0 0
BBX 6 3 -3 8
BITMAP
E4
A4
58
ENDCHAR
STARTCHAR 1DD2
ENCODING 7634
SWIDTH 0 0
DWIDTH 0 0
BBX 4 4 -2 7
BITMAP
E0
90
60
20
ENDCHAR
STARTCHAR 1DD3
ENCODING 7635
SWIDTH 0 0
DWIDTH 0 0
BBX 8 2 -4 8
BITMAP
99
66
ENDCHAR
STARTCHAR 1DD4
ENCODING 7636
SWIDTH 0 0
DWIDTH 0 0
BBX 5 3 -2 9
BITMAP
D0
68
F0
ENDCHAR
STARTCHAR 1DD5
ENCODING 7637
SWIDTH 0 0
DWIDTH 0 0
BBX 6 3 -3 9
BITMAP
78
24
FC
ENDCHAR
STARTCHAR 1DD6
ENCODING 7638
SWIDTH 0 0
DWIDTH 0 0
BBX 5 3 -2 9
BITMAP
48
30
E0
ENDCHAR
STARTCHAR 1DD7
ENCODING 7639
SWIDTH 0 0
DWIDTH 0 0
BBX 2 4 -1 9
BITMAP
80
80
80
40
ENDCHAR
STARTCHAR 1DD8
ENCODING 7640
SWIDTH 0 0
DWIDTH 0 0
BBX 3 3 -1 10
BITMAP
C0
A0
E0
ENDCHAR
STARTCHAR 1DD9
ENCODING 7641
SWIDTH 0 0
DWIDTH 0 0
BBX 3 4 -1 9
BITMAP
C0
40
A0
E0
ENDCHAR
STARTCHAR 1DDA
ENCODING 7642
SWIDTH 0 0
DWIDTH 0 0
BBX 3 4 -1 9
BITMAP
E0
A0
A0
40
ENDCHAR
STARTCHAR 1DDB
ENCODING 7643
SWIDTH 0 0
DWIDTH 0 0
BBX 2 3 -1 9
BITMAP
40
80
C0
ENDCHAR
STARTCHAR 1DDC
ENCODING 7644
SWIDTH 0 0
DWIDTH 0 0
BBX 3 4 -1 9
BITMAP
80
A0
C0
C0
ENDCHAR
STARTCHAR 1DDD
ENCODING 7645
SWIDTH 0 0
DWIDTH 0 0
BBX 1 3 0 10
BITMAP
80
80
80
ENDCHAR
STARTCHAR 1DDE
ENCODING 7646
SWIDTH 0 0
DWIDTH 0 0
BBX 1 3 -1 9
BITMAP
80
80
80
ENDCHAR
STARTCHAR 1DDF
ENCODING 7647
SWIDTH 0 0
DWIDTH 0 0
BBX 4 3 -2 9
BITMAP
90
D0
B0
ENDCHAR
STARTCHAR 1DE0
ENCODING 7648
SWIDTH 0 0
DWIDTH 0 0
BBX 3 3 -1 9
BITMAP
40
A0
A0
ENDCHAR
STARTCHAR 1DE1
ENCODING 7649
SWIDTH 0 0
DWIDTH 0 0
BBX 3 3 -1 9
BITMAP
20
A0
E0
ENDCHAR
STARTCHAR 1DE2
ENCODING 7650
SWIDTH 0 0
DWIDTH 0 0
BBX 3 3 -1 9
BITMAP
C0
A0
C0
ENDCHAR
STARTCHAR 1DE3
ENCODING 7651
SWIDTH 0 0
DWIDTH 0 0
BBX 2 3 -1 9
BITMAP
C0
40
40
ENDCHAR
STARTCHAR 1DE4
ENCODING 7652
SWIDTH 0 0
DWIDTH 0 0
BBX 2 3 -1 9
BITMAP
C0
80
40
ENDCHAR
STARTCHAR 1DE5
ENCODING 7653
SWIDTH 0 0
DWIDTH 0 0
BBX 1 4 0 9
BITMAP
80
80
80
80
ENDCHAR
STARTCHAR 1DE6
ENCODING 7654
SWIDTH 0 0
DWIDTH 0 0
BBX 2 3 -1 9
BITMAP
C0
40
80
ENDCHAR
STARTCHAR 1DE7
ENCODING 7655
SWIDTH 0 0
DWIDTH 0 0
BBX 3 3 -1 9
BITMAP
E0
A0
E0
ENDCHAR
STARTCHAR 1DE8
ENCODING 7656
SWIDTH 0 0
DWIDTH 0 0
BBX 3 3 -1 10
BITMAP
C0
A0
E0
ENDCHAR
STARTCHAR 1DE9
ENCODING 7657
SWIDTH 0 0
DWIDTH 0 0
BBX 3 5 -1 9
BITMAP
C0
C0
A0
C0
80
ENDCHAR
STARTCHAR 1DEA
ENCODING 7658
SWIDTH 0 0
DWIDTH 0 0
BBX 3 3 -1 9
BITMAP
C0
20
C0
ENDCHAR
STARTCHAR 1DEB
ENCODING 7659
SWIDTH 0 0
DWIDTH 0 0
BBX 2 4 -1 9
BITMAP
40
C0
80
80
ENDCHAR
STARTCHAR 1DEC
ENCODING 7660
SWIDTH 0 0
DWIDTH 0 0
BBX 1 3 -1 10
BITMAP
80
80
80
ENDCHAR
STARTCHAR 1DED
ENCODING 7661
SWIDTH 0 0
DWIDTH 0 0
BBX 4 4 -2 8
BITMAP
60
90
90
60
ENDCHAR
STARTCHAR 1DEE
ENCODING 7662
SWIDTH 0 0
DWIDTH 0 0
BBX 3 4 -1 9
BITMAP
C0
A0
C0
80
ENDCHAR
STARTCHAR 1DEF
ENCODING 7663
SWIDTH 0 0
DWIDTH 0 0
BBX 1 4 -1 9
BITMAP
80
80
80
80
ENDCHAR
STARTCHAR 1DF0
ENCODING 7664
SWIDTH 0 0
DWIDTH 0 0
BBX 4 4 -2 8
BITMAP
10
90
90
E0
ENDCHAR
STARTCHAR 1DF1
ENCODING 7665
SWIDTH 0 0
DWIDTH 0 0
BBX 5 3 -2 9
BITMAP
08
F0
D0
ENDCHAR
STARTCHAR 1DF2
ENCODING 7666
SWIDTH 0 0
DWIDTH 0 0
BBX 2 4 -1 9
BITMAP
C0
C0
40
C0
ENDCHAR
STARTCHAR 1DF3
ENCODING 7667
SWIDTH 0 0
DWIDTH 0 0
BBX 3 4 -1 9
BITMAP
C0
C0
A0
E0
ENDCHAR
STARTCHAR 1DF4
ENCODING 7668
SWIDTH 0 0
DWIDTH 0 0
BBX 3 4 -1 9
BITMAP
C0
20
A0
E0
ENDCHAR
STARTCHAR 1DF5
ENCODING 7669
SWIDTH 0 0
DWIDTH 0 0
BBX 2 2 -1 7
BITMAP
80
C0
ENDCHAR
STARTCHAR 1DF6
ENCODING 7670
SWIDTH 0 0
DWIDTH 0 0
BBX 4 2 -2 8
BITMAP
90
60
ENDCHAR
STARTCHAR 1DF7
ENCODING 7671
SWIDTH 0 0
DWIDTH 0 0
BBX 4 2 -2 8
BITMAP
90
60
ENDCHAR
STARTCHAR 1DF8
ENCODING 7672
SWIDTH 0 0
DWIDTH 0 0
BBX 2 1 -1 9
BITMAP
C0
ENDCHAR
STARTCHAR 1DF9
ENCODING 7673
SWIDTH 0 0
DWIDTH 0 0
BBX 6 2 -3 -3
BITMAP
84
FC
ENDCHAR
STARTCHAR 1DFB
ENCODING 7675
SWIDTH 0 0
DWIDTH 0 0
BBX 8 4 -4 6
BITMAP
29
4A
54
84
ENDCHAR
STARTCHAR 1DFC
ENCODING 7676
SWIDTH 0 0
DWIDTH 0 0
BBX 10 2 -5 -3
BITMAP
7F80
80C0
ENDCHAR
STARTCHAR 1DFD
ENCODING 7677
SWIDTH 0 0
DWIDTH 0 0
BBX 4 3 -2 -3
BITMAP
C0
30
F0
ENDCHAR
STARTCHAR 1DFE
ENCODING 7678
SWIDTH 0 0
DWIDTH 0 0
BBX 2 3 -1 8
BITMAP
40
80
40
ENDCHAR
STARTCHAR 1DFF
ENCODING 7679
SWIDTH 0 0
DWIDTH 0 0
BBX 4 2 -2 -3
BITMAP
F0
90
ENDCHAR
STARTCHAR 1E00
ENCODING 7680
SWIDTH 576 0
DWIDTH 8 0
BBX 9 14 0 -4
BITMAP
0800
1C00
1400
1400
2200
2200
7F00
4100
4100
8180
0000
1C00
1400
1800
ENDCHAR
STARTCHAR 1E01
ENCODING 7681
SWIDTH 504 0
DWIDTH 7 0
BBX 6 12 1 -4
BITMAP
30
48
0C
0C
FC
8C
8C
F4
00
70
50
30
ENDCHAR
STARTCHAR 1E02
ENCODING 7682
SWIDTH 648 0
DWIDTH 9 0
BBX 7 13 1 0
BITMAP
10
10
00
FC
C6
C2
C6
FC
C6
C2
C2
C6
FC
ENDCHAR
STARTCHAR 1E03
ENCODING 7683
SWIDTH 576 0
DWIDTH 8 0
BBX 7 13 1 0
BITMAP
10
00
80
80
80
90
EC
C6
86
82
C6
C4
BC
ENDCHAR
STARTCHAR 1E04
ENCODING 7684
SWIDTH 648 0
DWIDTH 9 0
BBX 7 12 1 -2
BITMAP
FC
C6
C2
C6
FC
C6
C2
C2
C6
FC
00
10
ENDCHAR
STARTCHAR 1E05
ENCODING 7685
SWIDTH 576 0
DWIDTH 8 0
BBX 7 13 1 -2
BITMAP
80
80
80
90
EC
C6
86
82
C6
C4
BC
00
10
ENDCHAR
STARTCHAR 1E06
ENCODING 7686
SWIDTH 648 0
DWIDTH 9 0
BBX 7 12 1 -2
BITMAP
FC
C6
C2
C6
FC
C6
C2
C2
C6
FC
00
78
ENDCHAR
STARTCHAR 1E07
ENCODING 7687
SWIDTH 576 0
DWIDTH 8 0
BBX 7 13 1 -2
BITMAP
80
80
80
90
EC
C6
86
82
C6
C4
BC
00
7C
ENDCHAR
STARTCHAR 1E08
ENCODING 7688
SWIDTH 576 0
DWIDTH 8 0
BBX 7 16 1 -3
BITMAP
0C
08
00
3E
60
C0
80
80
80
80
C0
60
3E
10
08
18
ENDCHAR
STARTCHAR 1E09
ENCODING 7689
SWIDTH 432 0
DWIDTH 6 0
BBX 5 14 1 -3
BITMAP
18
10
20
30
78
80
80
80
80
C0
78
20
10
30
ENDCHAR
STARTCHAR 1E0A
ENCODING 7690
SWIDTH 720 0
DWIDTH 10 0
BBX 8 13 1 0
BITMAP
08
18
00
FC
C6
C3
C1
C1
C1
C1
C3
C6
FC
ENDCHAR
STARTCHAR 1E0B
ENCODING 7691
SWIDTH 576 0
DWIDTH 8 0
BBX 6 13 1 0
BITMAP
30
00
04
04
04
34
4C
84
84
84
84
C4
7C
ENDCHAR
STARTCHAR 1E0C
ENCODING 7692
SWIDTH 720 0
DWIDTH 10 0
BBX 8 12 1 -2
BITMAP
FC
C6
C3
C1
C1
C1
C1
C3
C6
FC
00
10
ENDCHAR
STARTCHAR 1E0D
ENCODING 7693
SWIDTH 576 0
DWIDTH 8 0
BBX 6 13 1 -2
BITMAP
04
04
04
34
4C
84
84
84
84
C4
7C
00
30
ENDCHAR
STARTCHAR 1E0E
ENCODING 7694
SWIDTH 720 0
DWIDTH 10 0
BBX 8 12 1 -2
BITMAP
FC
C6
C3
C1
C1
C1
C1
C3
C6
FC
00
3C
ENDCHAR
STARTCHAR 1E0F
ENCODING 7695
SWIDTH 576 0
DWIDTH 8 0
BBX 6 13 1 -2
BITMAP
04
04
04
34
4C
84
84
84
84
C4
7C
00
78
ENDCHAR
STARTCHAR 1E10
ENCODING 7696
SWIDTH 720 0
DWIDTH 10 0
BBX 8 13 1 -3
BITMAP
FC
C6
C3
C1
C1
C1
C1
C3
C6
FC
10
08
18
ENDCHAR
STARTCHAR 1E11
ENCODING 7697
SWIDTH 576 0
DWIDTH 8 0
BBX 6 14 1 -3
BITMAP
04
04
04
34
4C
84
84
84
84
C4
7C
10
18
38
ENDCHAR
STARTCHAR 1E12
ENCODING 7698
SWIDTH 720 0
DWIDTH 10 0
BBX 8 13 1 -3
BITMAP
FC
C6
C3
C1
C1
C1
C1
C3
C6
FC
00
38
24
ENDCHAR
STARTCHAR 1E13
ENCODING 7699
SWIDTH 576 0
DWIDTH 8 0
BBX 6 14 1 -3
BITMAP
04
04
04
34
4C
84
84
84
84
C4
7C
00
30
48
ENDCHAR
STARTCHAR 1E14
ENCODING 7700
SWIDTH 504 0
DWIDTH 7 0
BBX 6 15 1 0
BITMAP
20
10
00
78
00
FC
C0
C0
C0
FC
C0
C0
C0
C0
FC
ENDCHAR
STARTCHAR 1E15
ENCODING 7701
SWIDTH 504 0
DWIDTH 7 0
BBX 6 12 1 0
BITMAP
20
10
78
00
30
48
84
84
FC
80
C0
7C
ENDCHAR
STARTCHAR 1E16
ENCODING 7702
SWIDTH 504 0
DWIDTH 7 0
BBX 6 15 1 0
BITMAP
08
10
00
78
00
FC
C0
C0
C0
FC
C0
C0
C0
C0
FC
ENDCHAR
STARTCHAR 1E17
ENCODING 7703
SWIDTH 504 0
DWIDTH 7 0
BBX 6 12 1 0
BITMAP
10
20
78
00
30
48
84
84
FC
80
C0
7C
ENDCHAR
STARTCHAR 1E18
ENCODING 7704
SWIDTH 504 0
DWIDTH 7 0
BBX 6 13 1 -3
BITMAP
FC
C0
C0
C0
FC
C0
C0
C0
C0
FC
00
30
48
ENDCHAR
STARTCHAR 1E19
ENCODING 7705
SWIDTH 504 0
DWIDTH 7 0
BBX 6 11 1 -3
BITMAP
30
48
84
84
FC
80
C0
7C
00
30
48
ENDCHAR
STARTCHAR 1E1A
ENCODING 7706
SWIDTH 504 0
DWIDTH 7 0
BBX 6 13 1 -3
BITMAP
FC
C0
C0
C0
FC
C0
C0
C0
C0
FC
00
74
08
ENDCHAR
STARTCHAR 1E1B
ENCODING 7707
SWIDTH 504 0
DWIDTH 7 0
BBX 6 11 1 -3
BITMAP
30
48
84
84
FC
80
C0
7C
00
74
08
ENDCHAR
STARTCHAR 1E1C
ENCODING 7708
SWIDTH 504 0
DWIDTH 7 0
BBX 6 16 1 -3
BITMAP
40
38
00
FC
C0
C0
C0
FC
C0
C0
C0
C0
FC
20
10
30
ENDCHAR
STARTCHAR 1E1D
ENCODING 7709
SWIDTH 504 0
DWIDTH 7 0
BBX 6 13 1 -3
BITMAP
48
30
30
48
84
84
FC
80
C0
7C
20
18
30
ENDCHAR
STARTCHAR 1E1E
ENCODING 7710
SWIDTH 504 0
DWIDTH 7 0
BBX 6 13 1 0
BITMAP
10
10
00
FC
C0
C0
C0
C0
FC
C0
C0
C0
C0
ENDCHAR
STARTCHAR 1E1F
ENCODING 7711
SWIDTH 288 0
DWIDTH 4 0
BBX 5 13 0 0
BITMAP
10
00
18
20
20
20
F8
20
20
20
20
20
20
ENDCHAR
STARTCHAR 1E20
ENCODING 7712
SWIDTH 720 0
DWIDTH 10 0
BBX 8 12 1 0
BITMAP
1E
00
3F
61
C0
80
80
87
81
C1
61
3F
ENDCHAR
STARTCHAR 1E21
ENCODING 7713
SWIDTH 576 0
DWIDTH 8 0
BBX 6 12 1 -3
BITMAP
78
30
4C
84
84
84
84
C4
7C
04
04
FC
ENDCHAR
STARTCHAR 1E22
ENCODING 7714
SWIDTH 720 0
DWIDTH 10 0
BBX 8 13 1 0
BITMAP
08
08
00
C1
C1
C1
C1
FF
C1
C1
C1
C1
C1
ENDCHAR
STARTCHAR 1E23
ENCODING 7715
SWIDTH 576 0
DWIDTH 8 0
BBX 6 13 1 0
BITMAP
C0
00
80
80
80
98
EC
C4
84
84
84
84
84
ENDCHAR
STARTCHAR 1E24
ENCODING 7716
SWIDTH 720 0
DWIDTH 10 0
BBX 8 12 1 -2
BITMAP
C1
C1
C1
C1
FF
C1
C1
C1
C1
C1
00
18
ENDCHAR
STARTCHAR 1E25
ENCODING 7717
SWIDTH 576 0
DWIDTH 8 0
BBX 6 13 1 -2
BITMAP
80
80
80
98
EC
C4
84
84
84
84
84
00
10
ENDCHAR
STARTCHAR 1E26
ENCODING 7718
SWIDTH 720 0
DWIDTH 10 0
BBX 8 13 1 0
BITMAP
24
24
00
C1
C1
C1
C1
FF
C1
C1
C1
C1
C1
ENDCHAR
STARTCHAR 1E27
ENCODING 7719
SWIDTH 576 0
DWIDTH 8 0
BBX 7 13 0 0
BITMAP
B0
00
40
40
40
4C
76
62
42
42
42
42
42
ENDCHAR
STARTCHAR 1E28
ENCODING 7720
SWIDTH 720 0
DWIDTH 10 0
BBX 9 13 0 -3
BITMAP
6080
6080
6080
6080
7F80
6080
6080
6080
6080
6080
4000
2000
E000
ENDCHAR
STARTCHAR 1E29
ENCODING 7721
SWIDTH 576 0
DWIDTH 8 0
BBX 6 14 1 -3
BITMAP
80
80
80
98
EC
C4
84
84
84
84
84
80
40
C0
ENDCHAR
STARTCHAR 1E2A
ENCODING 7722
SWIDTH 720 0
DWIDTH 10 0
BBX 8 13 1 -3
BITMAP
C1
C1
C1
C1
FF
C1
C1
C1
C1
C1
00
24
18
ENDCHAR
STARTCHAR 1E2B
ENCODING 7723
SWIDTH 576 0
DWIDTH 8 0
BBX 6 14 1 -3
BITMAP
80
80
80
98
EC
C4
84
84
84
84
84
00
48
30
ENDCHAR
STARTCHAR 1E2C
ENCODING 7724
SWIDTH 288 0
DWIDTH 4 0
BBX 5 13 0 -3
BITMAP
70
20
20
20
20
20
20
20
20
70
00
E8
90
ENDCHAR
STARTCHAR 1E2D
ENCODING 7725
SWIDTH 216 0
DWIDTH 3 0
BBX 5 13 -1 -3
BITMAP
30
00
00
20
20
20
20
20
20
20
00
78
80
ENDCHAR
STARTCHAR 1E2E
ENCODING 7726
SWIDTH 288 0
DWIDTH 4 0
BBX 4 15 0 0
BITMAP
10
30
00
D0
00
70
20
20
20
20
20
20
20
20
70
ENDCHAR
STARTCHAR 1E2F
ENCODING 7727
SWIDTH 216 0
DWIDTH 3 0
BBX 4 12 0 0
BITMAP
20
40
90
90
00
40
40
40
40
40
40
40
ENDCHAR
STARTCHAR 1E30
ENCODING 7728
SWIDTH 576 0
DWIDTH 8 0
BBX 7 13 1 0
BITMAP
08
10
00
C2
C4
C8
D0
F0
D0
C8
CC
C6
C2
ENDCHAR
STARTCHAR 1E31
ENCODING 7729
SWIDTH 504 0
DWIDTH 7 0
BBX 6 14 1 0
BITMAP
60
40
00
80
80
80
80
8C
90
A0
F0
90
88
8C
ENDCHAR
STARTCHAR 1E32
ENCODING 7730
SWIDTH 576 0
DWIDTH 8 0
BBX 7 12 1 -2
BITMAP
C2
C4
C8
D0
F0
D0
C8
CC
C6
C2
00
10
ENDCHAR
STARTCHAR 1E33
ENCODING 7731
SWIDTH 504 0
DWIDTH 7 0
BBX 6 13 1 -2
BITMAP
80
80
80
80
8C
90
A0
F0
90
88
8C
00
20
ENDCHAR
STARTCHAR 1E34
ENCODING 7732
SWIDTH 576 0
DWIDTH 8 0
BBX 7 12 1 -2
BITMAP
C2
C4
C8
D0
F0
D0
C8
CC
C6
C2
00
3C
ENDCHAR
STARTCHAR 1E35
ENCODING 7733
SWIDTH 504 0
DWIDTH 7 0
BBX 6 13 1 -2
BITMAP
80
80
80
80
8C
90
A0
F0
90
88
8C
00
78
ENDCHAR
STARTCHAR 1E36
ENCODING 7734
SWIDTH 504 0
DWIDTH 7 0
BBX 6 12 1 -2
BITMAP
C0
C0
C0
C0
C0
C0
C0
C0
C0
FC
00
30
ENDCHAR
STARTCHAR 1E37
ENCODING 7735
SWIDTH 216 0
DWIDTH 3 0
BBX 1 13 1 -2
BITMAP
80
80
80
80
80
80
80
80
80
80
80
00
80
ENDCHAR
STARTCHAR 1E38
ENCODING 7736
SWIDTH 504 0
DWIDTH 7 0
BBX 7 14 0 -2
BITMAP
F0
00
60
60
60
60
60
60
60
60
60
7E
00
18
ENDCHAR
STARTCHAR 1E39
ENCODING 7737
SWIDTH 216 0
DWIDTH 3 0
BBX 4 15 0 -2
BITMAP
F0
00
40
40
40
40
40
40
40
40
40
40
40
00
40
ENDCHAR
STARTCHAR 1E3A
ENCODING 7738
SWIDTH 504 0
DWIDTH 7 0
BBX 6 12 1 -2
BITMAP
C0
C0
C0
C0
C0
C0
C0
C0
C0
FC
00
78
ENDCHAR
STARTCHAR 1E3B
ENCODING 7739
SWIDTH 216 0
DWIDTH 3 0
BBX 4 13 0 -2
BITMAP
40
40
40
40
40
40
40
40
40
40
40
00
F0
ENDCHAR
STARTCHAR 1E3C
ENCODING 7740
SWIDTH 504 0
DWIDTH 7 0
BBX 6 13 1 -3
BITMAP
C0
C0
C0
C0
C0
C0
C0
C0
C0
FC
00
30
48
ENDCHAR
STARTCHAR 1E3D
ENCODING 7741
SWIDTH 216 0
DWIDTH 3 0
BBX 4 14 0 -3
BITMAP
40
40
40
40
40
40
40
40
40
40
40
00
E0
90
ENDCHAR
STARTCHAR 1E3E
ENCODING 7742
SWIDTH 864 0
DWIDTH 12 0
BBX 10 13 1 0
BITMAP
0600
0400
0000
C0C0
A0C0
A1C0
A140
D140
D240
DA40
CA40
CC40
C440
ENDCHAR
STARTCHAR 1E3F
ENCODING 7743
SWIDTH 864 0
DWIDTH 12 0
BBX 11 11 1 0
BITMAP
0300
0600
0400
1080
EF60
C420
8420
8420
8420
8420
8420
ENDCHAR
STARTCHAR 1E40
ENCODING 7744
SWIDTH 864 0
DWIDTH 12 0
BBX 10 13 1 0
BITMAP
0400
0400
0000
C0C0
A0C0
A1C0
A140
D140
D240
DA40
CA40
CC40
C440
ENDCHAR
STARTCHAR 1E41
ENCODING 7745
SWIDTH 864 0
DWIDTH 12 0
BBX 11 10 1 0
BITMAP
0400
0000
1080
EF60
C420
8420
8420
8420
8420
8420
ENDCHAR
STARTCHAR 1E42
ENCODING 7746
SWIDTH 864 0
DWIDTH 12 0
BBX 10 12 1 -2
BITMAP
C0C0
A0C0
A1C0
A140
D140
D240
DA40
CA40
CC40
C440
0000
0C00
ENDCHAR
STARTCHAR 1E43
ENCODING 7747
SWIDTH 864 0
DWIDTH 12 0
BBX 11 10 1 -2
BITMAP
1080
EF60
C420
8420
8420
8420
8420
8420
0000
0400
ENDCHAR
STARTCHAR 1E44
ENCODING 7748
SWIDTH 720 0
DWIDTH 10 0
BBX 8 13 1 0
BITMAP
08
08
00
C1
E1
A1
91
D9
C9
CD
C7
C3
C3
ENDCHAR
STARTCHAR 1E45
ENCODING 7749
SWIDTH 576 0
DWIDTH 8 0
BBX 6 10 1 0
BITMAP
10
00
18
EC
C4
84
84
84
84
84
ENDCHAR
STARTCHAR 1E46
ENCODING 7750
SWIDTH 720 0
DWIDTH 10 0
BBX 8 12 1 -2
BITMAP
C1
E1
A1
91
D9
C9
CD
C7
C3
C3
00
08
ENDCHAR
STARTCHAR 1E47
ENCODING 7751
SWIDTH 576 0
DWIDTH 8 0
BBX 6 10 1 -2
BITMAP
18
EC
C4
84
84
84
84
84
00
10
ENDCHAR
STARTCHAR 1E48
ENCODING 7752
SWIDTH 720 0
DWIDTH 10 0
BBX 8 12 1 -2
BITMAP
C1
E1
A1
91
D9
C9
CD
C7
C3
C3
00
3C
ENDCHAR
STARTCHAR 1E49
ENCODING 7753
SWIDTH 576 0
DWIDTH 8 0
BBX 6 10 1 -2
BITMAP
18
EC
C4
84
84
84
84
84
00
78
ENDCHAR
STARTCHAR 1E4A
ENCODING 7754
SWIDTH 720 0
DWIDTH 10 0
BBX 8 13 1 -3
BITMAP
C1
E1
A1
91
D9
C9
CD
C7
C3
C3
00
1C
24
ENDCHAR
STARTCHAR 1E4B
ENCODING 7755
SWIDTH 576 0
DWIDTH 8 0
BBX 6 11 1 -3
BITMAP
18
EC
C4
84
84
84
84
84
00
38
4C
ENDCHAR
STARTCHAR 1E4C
ENCODING 7756
SWIDTH 720 0
DWIDTH 10 0
BBX 9 15 1 0
BITMAP
0400
0800
0000
3C00
0000
3E00
6300
C180
8080
8080
8080
8080
C180
4300
3E00
ENDCHAR
STARTCHAR 1E4D
ENCODING 7757
SWIDTH 576 0
DWIDTH 8 0
BBX 7 12 1 0
BITMAP
18
20
78
48
30
6C
84
86
86
86
C4
78
ENDCHAR
STARTCHAR 1E4E
ENCODING 7758
SWIDTH 720 0
DWIDTH 10 0
BBX 9 14 1 0
BITMAP
3400
0000
3E00
0000
3E00
6300
C180
8080
8080
8080
8080
C180
4300
3E00
ENDCHAR
STARTCHAR 1E4F
ENCODING 7759
SWIDTH 576 0
DWIDTH 8 0
BBX 7 12 1 0
BITMAP
48
08
74
08
30
6C
84
86
86
86
C4
78
ENDCHAR
STARTCHAR 1E50
ENCODING 7760
SWIDTH 720 0
DWIDTH 10 0
BBX 9 15 1 0
BITMAP
1000
0800
0000
3C00
0000
3E00
6300
C180
8080
8080
8080
8080
C180
4300
3E00
ENDCHAR
STARTCHAR 1E51
ENCODING 7761
SWIDTH 576 0
DWIDTH 8 0
BBX 7 12 1 0
BITMAP
20
10
78
00
30
6C
84
86
86
86
C4
78
ENDCHAR
STARTCHAR 1E52
ENCODING 7762
SWIDTH 720 0
DWIDTH 10 0
BBX 9 15 1 0
BITMAP
0400
0800
0000
3C00
0000
3E00
6300
C180
8080
8080
8080
8080
C180
4300
3E00
ENDCHAR
STARTCHAR 1E53
ENCODING 7763
SWIDTH 576 0
DWIDTH 8 0
BBX 7 12 1 0
BITMAP
18
20
78
00
30
6C
84
86
86
86
C4
78
ENDCHAR
STARTCHAR 1E54
ENCODING 7764
SWIDTH 576 0
DWIDTH 8 0
BBX 7 13 1 0
BITMAP
08
10
00
F8
C4
C6
C6
C4
F8
C0
C0
C0
C0
ENDCHAR
STARTCHAR 1E55
ENCODING 7765
SWIDTH 576 0
DWIDTH 8 0
BBX 7 14 1 -3
BITMAP
0C
08
10
10
EC
C6
86
82
C6
C4
BC
80
80
80
ENDCHAR
STARTCHAR 1E56
ENCODING 7766
SWIDTH 576 0
DWIDTH 8 0
BBX 7 13 1 0
BITMAP
10
10
00
F8
C4
C6
C6
C4
F8
C0
C0
C0
C0
ENDCHAR
STARTCHAR 1E57
ENCODING 7767
SWIDTH 576 0
DWIDTH 8 0
BBX 7 13 1 -3
BITMAP
10
00
10
EC
C6
86
82
C6
C4
BC
80
80
80
ENDCHAR
STARTCHAR 1E58
ENCODING 7768
SWIDTH 576 0
DWIDTH 8 0
BBX 7 13 1 0
BITMAP
10
10
00
F8
C4
C6
C6
C4
F8
C8
CC
C6
C2
ENDCHAR
STARTCHAR 1E59
ENCODING 7769
SWIDTH 360 0
DWIDTH 5 0
BBX 5 10 1 0
BITMAP
20
00
18
B0
C0
80
80
80
80
80
ENDCHAR
STARTCHAR 1E5A
ENCODING 7770
SWIDTH 576 0
DWIDTH 8 0
BBX 7 12 1 -2
BITMAP
F8
C4
C6
C6
C4
F8
C8
CC
C6
C2
00
10
ENDCHAR
STARTCHAR 1E5B
ENCODING 7771
SWIDTH 360 0
DWIDTH 5 0
BBX 5 10 1 -2
BITMAP
18
B0
C0
80
80
80
80
80
00
80
ENDCHAR
STARTCHAR 1E5C
ENCODING 7772
SWIDTH 576 0
DWIDTH 8 0
BBX 7 14 1 -2
BITMAP
78
00
F8
C4
C6
C6
C4
F8
C8
CC
C6
C2
00
10
ENDCHAR
STARTCHAR 1E5D
ENCODING 7773
SWIDTH 360 0
DWIDTH 5 0
BBX 5 11 1 -2
BITMAP
F0
18
B0
C0
80
80
80
80
80
00
80
ENDCHAR
STARTCHAR 1E5E
ENCODING 7774
SWIDTH 576 0
DWIDTH 8 0
BBX 7 12 1 -2
BITMAP
F8
C4
C6
C6
C4
F8
C8
CC
C6
C2
00
7C
ENDCHAR
STARTCHAR 1E5F
ENCODING 7775
SWIDTH 360 0
DWIDTH 5 0
BBX 6 10 0 -2
BITMAP
0C
58
60
40
40
40
40
40
00
F0
ENDCHAR
STARTCHAR 1E60
ENCODING 7776
SWIDTH 504 0
DWIDTH 7 0
BBX 6 13 1 0
BITMAP
20
30
00
7C
80
80
80
60
18
0C
04
0C
F8
ENDCHAR
STARTCHAR 1E61
ENCODING 7777
SWIDTH 432 0
DWIDTH 6 0
BBX 5 10 1 0
BITMAP
20
00
30
D8
80
C0
30
08
08
F0
ENDCHAR
STARTCHAR 1E62
ENCODING 7778
SWIDTH 504 0
DWIDTH 7 0
BBX 6 12 1 -2
BITMAP
7C
80
80
80
60
18
0C
04
0C
F8
00
20
ENDCHAR
STARTCHAR 1E63
ENCODING 7779
SWIDTH 432 0
DWIDTH 6 0
BBX 5 10 1 -2
BITMAP
30
D8
80
C0
30
08
08
F0
00
20
ENDCHAR
STARTCHAR 1E64
ENCODING 7780
SWIDTH 504 0
DWIDTH 7 0
BBX 6 13 1 0
BITMAP
48
50
00
7C
80
80
80
60
18
0C
04
0C
F8
ENDCHAR
STARTCHAR 1E65
ENCODING 7781
SWIDTH 432 0
DWIDTH 6 0
BBX 5 11 1 0
BITMAP
18
50
20
30
D8
80
C0
30
08
08
F0
ENDCHAR
STARTCHAR 1E66
ENCODING 7782
SWIDTH 504 0
DWIDTH 7 0
BBX 6 14 1 0
BITMAP
30
48
30
00
7C
80
80
80
60
18
0C
04
0C
F8
ENDCHAR
ENDFONT
